<svg width="160" height="80" viewBox="0 0 160 80" fill="none" xmlns="http://www.w3.org/2000/svg">
<g clip-path="url(#clip0_280_317)">
<path fill-rule="evenodd" clip-rule="evenodd" d="M155.776 39.1748H150.771V45.639H157.629V46.4642H149.845V32.1605H156.981V32.9857H150.771V38.3496H155.776V39.1748ZM133.487 33.9943C134.97 35.4155 135.665 37.2035 135.665 39.3582C135.665 41.3754 134.924 43.1175 133.441 44.5846C131.958 46.0058 130.197 46.7393 128.112 46.7393C125.981 46.7393 124.173 46.0058 122.691 44.5846C121.208 43.1634 120.513 41.4213 120.513 39.3582C120.513 37.2952 121.254 35.5072 122.691 34.086C124.173 32.619 125.981 31.9313 128.112 31.9313C130.244 31.8854 132.051 32.5731 133.487 33.9943ZM128.112 32.7565C126.259 32.7565 124.683 33.3525 123.386 34.5903C122.088 35.8281 121.439 37.3869 121.439 39.2207C121.439 41.0087 122.088 42.5674 123.339 43.8969C124.637 45.2264 126.166 45.8683 127.973 45.8683C129.873 45.8683 131.495 45.2264 132.792 43.9886C134.09 42.7508 134.738 41.192 134.738 39.3124C134.738 37.3869 134.09 35.8281 132.792 34.5445C131.495 33.3525 129.966 32.7565 128.112 32.7565ZM119.957 32.9857H115.786V46.4642H114.859V32.9857H110.689V32.1605H120.003V32.9857H119.957ZM141.318 32.1605C142.616 32.1605 143.682 32.4356 144.562 33.0316C145.628 33.7651 146.184 34.8195 146.184 36.2407C146.184 37.5244 145.767 38.533 144.933 39.3582C144.052 40.1376 142.894 40.596 141.411 40.6419L147.759 46.4642H146.369L140.299 40.596H139.465V46.4642H138.538V32.1605H141.318ZM139.465 32.9857V39.8167H140.623C142.106 39.8167 143.265 39.4958 144.052 38.8998C144.84 38.3038 145.257 37.3869 145.257 36.2407C145.257 35.1863 144.886 34.4069 144.145 33.8109C143.45 33.2608 142.523 32.9857 141.318 32.9857H139.465ZM101.514 44.2178C102.395 45.3181 103.599 45.8683 105.221 45.8683C106.148 45.8683 106.936 45.5932 107.538 45.0889C108.141 44.5387 108.465 43.8052 108.465 42.9342C108.465 41.9714 108.094 41.192 107.399 40.5502C106.982 40.1834 106.194 39.6791 105.082 39.129C103.97 38.5789 103.182 38.1204 102.765 37.7536C102.07 37.1118 101.7 36.3324 101.7 35.3697C101.7 34.2694 102.07 33.3983 102.858 32.7565C103.599 32.1605 104.48 31.8396 105.592 31.8396C106.333 31.8396 107.028 31.9771 107.723 32.2981C108.233 32.5273 108.65 32.8024 108.975 33.1691L108.419 33.7651C107.677 33.0316 106.704 32.619 105.592 32.619C104.758 32.619 104.063 32.8482 103.553 33.2608C102.951 33.7193 102.673 34.3611 102.673 35.1863C102.673 36.0115 103.043 36.6992 103.738 37.2035C104.063 37.4786 104.851 37.8912 106.102 38.4872C107.167 39.0373 107.955 39.5416 108.419 40.0459C109.114 40.7794 109.484 41.7422 109.484 42.8883C109.484 43.8969 109.114 44.768 108.372 45.5015C107.538 46.2809 106.472 46.6935 105.175 46.6935C104.248 46.6935 103.368 46.4642 102.487 46.0516C101.746 45.6849 101.236 45.2723 100.912 44.8138L101.514 44.2178ZM90.2541 45.2264C90.3005 44.9972 90.3931 44.768 90.5321 44.4929L96.5561 32.0688L98.0389 46.6476H97.1121L96.0463 35.1405L90.2541 47.1519L84.4619 35.1405L83.3961 46.6476H82.4694L83.9058 32.0688L89.9297 44.4929C90.1151 44.768 90.2078 44.9972 90.2541 45.2264ZM64.722 33.3066H60.5516V46.6935H59.6248V33.3066H55.5008V32.5273H64.722V33.3066ZM68.0583 44.1261C69.3558 45.4556 70.8849 46.0975 72.6457 46.0975C74.5456 46.0975 76.1211 45.5015 77.4185 44.2637C78.716 43.0258 79.3184 41.4671 79.3184 39.6333C79.3184 37.7536 78.6697 36.1949 77.3722 34.9112C76.1211 33.6734 74.5919 33.0774 72.7848 33.0774C70.9312 33.0774 69.3558 33.6734 68.1046 34.9112C66.8072 36.1491 66.2048 37.7078 66.2048 39.5416C66.2048 41.2837 66.8072 42.8425 68.0583 44.1261ZM65.2317 39.5875C65.2317 37.5244 65.9731 35.7823 67.4096 34.3611C68.8924 32.9399 70.6532 32.2064 72.7848 32.2064C74.9163 32.2064 76.6771 32.894 78.0673 34.3152C79.5501 35.7364 80.2451 37.4786 80.2451 39.6333C80.2451 41.6505 79.5037 43.3468 78.0209 44.768C76.5381 46.1892 74.7773 46.8768 72.7384 46.8768C70.6069 46.8768 68.846 46.1433 67.3632 44.7221C65.9731 43.3468 65.2317 41.6505 65.2317 39.5875ZM55.1764 46.6935L53.3229 42.5215H46.0942L44.2407 46.6935H43.3139L49.7549 32.1147L56.1495 46.6935H55.1764ZM46.4649 41.6505H52.9522L50.0792 35.0488C49.8939 34.7279 49.8012 34.4069 49.7085 34.086L46.4649 41.6505Z" fill="white"/>
<path fill-rule="evenodd" clip-rule="evenodd" d="M30.3857 51.0946C27.281 54.1662 23.5277 55.725 19.1256 55.725C14.7235 55.725 10.9701 54.1662 7.86547 51.0946C4.7145 48.023 3.18535 44.3095 3.18535 39.9542C3.18535 35.5989 4.76083 31.8854 7.86547 28.8138C10.9701 25.6963 14.7235 24.1376 19.1256 24.1376C23.5277 24.1376 27.281 25.6963 30.3857 28.7679C33.4903 31.8396 35.0658 35.553 35.0658 39.9083C35.0658 44.3095 33.4903 48.023 30.3857 51.0946Z" fill="#FF0102"/>
<path fill-rule="evenodd" clip-rule="evenodd" d="M18.8475 37.1117C18.6158 35.9198 17.8744 34.957 16.577 34.2693C16.0673 33.9943 15.5112 33.765 14.8161 33.6275L14.9551 33.5358C16.438 32.5731 17.8281 32.0229 19.1719 31.9771C20.145 31.9312 21.1181 32.2063 22.0912 32.8481C22.5546 33.169 22.9716 33.49 23.2496 33.8567L23.0643 33.7192C22.7862 33.5358 22.4619 33.3983 22.1375 33.2607C21.5351 33.0774 21.0254 33.1232 20.6084 33.3983C19.8206 33.9026 19.5889 34.8653 19.8206 36.2407C20.006 37.1117 20.3767 38.0745 20.8864 39.1289C19.5426 39.7708 18.6158 40.5043 18.1525 41.3753C17.8744 41.8796 17.7818 42.3381 17.9208 42.7507C18.1988 43.7135 19.1256 44.1719 20.6547 44.1719C21.1644 44.1719 21.7668 44.1261 22.4155 43.9885C22.2765 45.639 22.6009 46.6017 23.3423 46.8768C23.5276 46.9685 23.7593 47.0143 23.8983 47.0143C24.13 47.0143 24.3617 46.9685 24.5934 46.8309C25.1495 46.5559 25.6592 46.0057 26.1226 45.0888C26.4006 44.6762 26.5859 44.2177 26.7713 43.7135L27.7907 44.0802C27.42 44.8137 26.9566 45.5931 26.4469 46.3266C25.4738 47.702 24.3617 48.7106 23.1106 49.3524C22.0448 49.8567 20.9791 50.1318 19.8206 50.1318C19.3572 50.1318 18.8475 50.0859 18.3841 49.9943C16.1136 49.5358 14.9551 48.2521 14.9088 46.2349V45.9599C15.0942 46.3725 15.4185 46.7392 15.8819 47.0602C16.3916 47.3811 16.9013 47.5186 17.4111 47.4269C18.2451 47.2894 18.6158 46.7851 18.6158 45.914C18.6158 45.5931 18.4768 45.2722 18.2451 44.9054C17.8744 44.4011 17.3184 44.0344 16.577 43.8968C15.6502 43.7135 14.7698 43.851 13.8894 44.4011C13.009 44.9054 12.1285 45.1347 11.3408 44.9513C10.5067 44.8137 9.90433 44.3553 9.44095 43.6676C8.93123 42.8424 8.93123 41.8338 9.39461 40.6418C9.57996 40.9627 9.81165 41.2837 10.0897 41.5587C10.4604 41.8796 10.8311 42.1089 11.2481 42.1547C11.7115 42.2464 12.1749 42.1547 12.6383 41.8796C13.148 41.5587 13.426 41.0544 13.4723 40.3667C13.5187 39.6791 13.287 39.0831 12.6846 38.6246C12.0822 38.1203 11.3871 38.0286 10.6457 38.3496C9.53362 38.808 8.51419 38.808 7.68011 38.4412C6.93871 38.0745 6.47533 37.5243 6.1973 36.6991C5.96561 35.8739 6.05829 35.0029 6.47533 33.9943C6.47533 33.9943 6.568 34.1318 6.75335 34.361C6.98504 34.7278 7.26307 35.0029 7.5411 35.1862C8.46785 35.8739 9.57996 35.7364 10.8311 34.7736C11.2018 34.4986 11.6188 34.3152 12.0822 34.1776C12.4992 34.0859 12.8236 34.0859 13.148 34.1318C14.1211 34.3152 14.8161 34.7278 15.2332 35.3238C15.6039 35.8281 15.8356 36.6533 15.9746 37.7994C16.0209 38.3954 16.2526 38.8539 16.5306 39.1289C16.9477 39.5415 17.5501 39.5415 18.2915 39.1748C18.8012 38.8997 19.0329 38.1662 18.8475 37.1117Z" fill="white"/>
<path fill-rule="evenodd" clip-rule="evenodd" d="M28.9492 39.404L28.7638 40.5043C28.3004 40.7794 27.7444 41.1003 27.1883 41.3754C27.1883 40.5043 27.0493 39.6791 26.8176 38.8539C27.698 38.9456 28.3931 39.129 28.9492 39.404Z" fill="white"/>
<path fill-rule="evenodd" clip-rule="evenodd" d="M30.1076 35.6905C30.9417 35.5071 31.5904 35.5071 31.9611 35.6447C32.1465 35.7364 32.2855 35.8739 32.3782 36.149C32.4708 36.5157 32.4245 36.8825 32.2392 37.2951C32.0538 37.616 31.8685 37.9369 31.6368 38.2578C31.2197 38.7621 30.6173 39.3123 29.8759 39.8166C30.0149 38.3037 30.1076 36.9283 30.1076 35.6905Z" fill="white"/>
<path fill-rule="evenodd" clip-rule="evenodd" d="M30.8027 40.1833C31.3124 40.5043 31.7294 40.8252 32.0075 41.1919C32.4708 41.7421 32.6099 42.2922 32.4245 42.7507C32.2855 43.0716 32.0538 43.3008 31.6831 43.4384C31.0807 43.6676 30.154 43.6676 28.9028 43.4384C29.1809 42.659 29.4125 41.8796 29.5516 41.0544C30.0613 40.7335 30.4783 40.4126 30.8027 40.1833Z" fill="white"/>
<path fill-rule="evenodd" clip-rule="evenodd" d="M28.5321 41.6504C28.3931 42.2922 28.2078 42.7965 28.0688 43.2091C27.6054 43.0716 27.0493 42.8882 26.4469 42.7048C27.142 42.3839 27.8371 42.0172 28.5321 41.6504Z" fill="white"/>
<path fill-rule="evenodd" clip-rule="evenodd" d="M23.574 46.0516C23.1569 45.914 23.0643 45.1347 23.2033 43.8052L24.0374 43.5759C24.4081 43.4842 24.7788 43.3467 25.1958 43.1633L25.7519 43.3926C25.5665 43.9427 25.3348 44.4012 25.1031 44.8596C24.7788 45.4556 24.4081 45.8682 24.0837 46.0057C23.9447 46.0974 23.7593 46.0974 23.574 46.0516Z" fill="white"/>
<path fill-rule="evenodd" clip-rule="evenodd" d="M25.8909 38.808C26.2152 39.8166 26.3543 40.8252 26.3079 41.7879C25.4275 42.2005 24.5934 42.4756 23.852 42.7048L23.3886 42.8424C23.574 41.6504 23.9447 40.3667 24.3617 38.9914L24.4081 38.9455C24.9178 38.8538 25.4275 38.808 25.8909 38.808Z" fill="white"/>
<path fill-rule="evenodd" clip-rule="evenodd" d="M18.8475 41.7879C19.2182 41.1461 19.867 40.596 20.7474 40.1375C21.0717 39.9541 21.3961 39.8166 21.7668 39.6332C22.2302 39.4498 22.7399 39.2664 23.3423 39.1289L23.2033 39.4957C22.7862 40.7793 22.5082 41.9713 22.3692 43.0716C21.2571 43.3008 20.3303 43.3467 19.6816 43.2091C19.1256 43.0716 18.7549 42.8424 18.6622 42.4756C18.6158 42.2922 18.6622 42.063 18.8475 41.7879Z" fill="white"/>
<path fill-rule="evenodd" clip-rule="evenodd" d="M25.5202 37.9369C24.7324 37.9828 23.9447 38.0745 23.1106 38.3037C22.5546 38.4412 22.0448 38.6246 21.5815 38.808C21.0717 37.7535 20.7474 36.7908 20.6084 35.9656L20.562 35.6905L20.5157 35.1862C20.5157 34.6819 20.701 34.3152 20.9791 34.0859L21.0717 34.0401C21.4424 33.9484 21.9058 34.0859 22.5546 34.4527C23.1106 34.8194 23.6667 35.3237 24.2227 35.9197C24.7788 36.6074 25.1958 37.2492 25.5202 37.9369Z" fill="white"/>
<path fill-rule="evenodd" clip-rule="evenodd" d="M24.3154 35.0028C24.13 35.0028 23.9447 34.957 23.8057 34.8194C23.6667 34.6819 23.6203 34.4985 23.6203 34.3151C23.6203 34.1317 23.6667 33.9484 23.8057 33.8108C23.9447 33.6733 24.13 33.6274 24.3154 33.6274C24.5007 33.6274 24.6861 33.6733 24.8251 33.8108C24.9641 33.9484 25.0105 34.1317 25.0105 34.3151C25.0105 34.4985 24.9641 34.6819 24.8251 34.8194C24.6861 34.957 24.5007 35.0028 24.3154 35.0028Z" fill="white"/>
<path fill-rule="evenodd" clip-rule="evenodd" d="M27.9761 32.8022C28.2078 32.8022 28.3931 32.9398 28.5785 33.2607C28.8101 33.6733 28.9955 34.2693 29.0882 35.0028C28.8101 35.0487 28.4394 35.232 27.9761 35.4613C27.8371 35.3696 27.698 35.2779 27.5127 35.2779C27.3273 35.2779 27.142 35.3237 27.003 35.4613C26.864 35.5988 26.8176 35.7822 26.8176 35.9656C26.8176 36.149 26.864 36.3323 27.003 36.4699C27.142 36.6074 27.3273 36.6532 27.5127 36.6532C27.6517 36.6532 27.7907 36.6074 27.9297 36.5157C28.0687 36.424 28.1614 36.2865 28.1614 36.149C28.4394 36.0114 28.8101 35.9197 29.2272 35.828C29.2272 36.6532 29.1809 37.5243 29.0882 38.4412C28.3468 38.1203 27.4664 37.9369 26.5396 37.8911L26.2616 37.2951C26.0299 36.8366 25.7519 36.3323 25.3811 35.7822C25.6592 35.1862 26.0299 34.5444 26.4933 33.9025C27.0493 33.169 27.559 32.8022 27.9761 32.8022Z" fill="white"/>
<path fill-rule="evenodd" clip-rule="evenodd" d="M32.4245 38.8539C32.6098 38.8539 32.7952 38.8997 32.9342 39.0373C33.0732 39.1748 33.1196 39.3582 33.1196 39.5416C33.1196 39.7249 33.0732 39.9083 32.9342 40.0459C32.7952 40.1834 32.6098 40.2292 32.4245 40.2292C32.2391 40.2292 32.0538 40.1834 31.9148 40.0459C31.7758 39.9083 31.7294 39.7249 31.7294 39.5416C31.7294 39.3582 31.7758 39.1748 31.9148 39.0373C32.0538 38.8997 32.2391 38.8539 32.4245 38.8539Z" fill="white"/>
<path fill-rule="evenodd" clip-rule="evenodd" d="M28.8565 44.6304C29.0418 44.6304 29.2272 44.6762 29.3662 44.8138C29.5052 44.9513 29.5516 45.1347 29.5516 45.3181C29.5516 45.5014 29.5052 45.6848 29.3662 45.8223C29.2272 45.9599 29.0418 46.0057 28.8565 46.0057C28.6711 46.0057 28.4858 45.9599 28.3468 45.8223C28.2078 45.6848 28.1614 45.5014 28.1614 45.3181C28.1614 45.1347 28.2078 44.9513 28.3468 44.8138C28.4858 44.6762 28.6711 44.6304 28.8565 44.6304Z" fill="white"/>
</g>
<defs>
<clipPath id="clip0_280_317">
<rect width="155" height="32" fill="white" transform="translate(3 24)"/>
</clipPath>
</defs>
</svg>
