<svg width="160" height="80" viewBox="0 0 160 80" fill="none" xmlns="http://www.w3.org/2000/svg">
<g clip-path="url(#clip0_280_341)">
<path d="M1 46.3048L8.20848 27.5883H11.5355L18.771 46.3048H14.9977L13.4965 42.3476H6.26097L4.78682 46.3048H1ZM7.39702 39.1792H12.3334L10.44 34.1658C10.3769 34.0143 10.3092 33.8449 10.2372 33.6578C10.165 33.4706 10.0974 33.2834 10.0343 33.0963C9.97115 32.9002 9.91704 32.7309 9.87195 32.5883C9.82686 32.7309 9.77282 32.9002 9.7097 33.0963C9.64657 33.2834 9.57897 33.4706 9.50682 33.6578C9.43467 33.8449 9.36707 34.0143 9.30395 34.1658L7.39702 39.1792Z" fill="white"/>
<path d="M41.5745 46.6256C39.627 46.6256 38.0897 45.9884 36.9627 44.7139C35.8357 43.4394 35.2722 41.6969 35.2722 39.4866C35.2722 38.0249 35.5291 36.7593 36.0431 35.6898C36.557 34.6114 37.2828 33.7825 38.2205 33.2032C39.1672 32.6149 40.2852 32.3208 41.5745 32.3208C42.8548 32.3208 43.9639 32.6105 44.9016 33.1898C45.8392 33.7691 46.5606 34.5935 47.0654 35.663C47.5703 36.7326 47.8228 38.0026 47.8228 39.4732C47.8228 40.9527 47.5703 42.2272 47.0654 43.2967C46.5695 44.3662 45.8527 45.1907 44.9151 45.77C43.9774 46.3404 42.8639 46.6256 41.5745 46.6256ZM41.5745 43.4304C42.4852 43.4304 43.1929 43.0828 43.6979 42.3877C44.2028 41.6924 44.4553 40.7209 44.4553 39.4732C44.4553 38.2254 44.1983 37.2539 43.6843 36.5588C43.1794 35.8547 42.4762 35.5026 41.5745 35.5026C40.6639 35.5026 39.9516 35.8547 39.4377 36.5588C38.9237 37.2629 38.6668 38.2388 38.6668 39.4866C38.6668 40.7165 38.9237 41.6835 39.4377 42.3877C39.9516 43.0828 40.6639 43.4304 41.5745 43.4304Z" fill="white"/>
<path d="M51.059 46.3047V32.6417H54.44V33.9518C54.8818 33.4081 55.4093 33.0026 56.0224 32.7352C56.6445 32.4589 57.3523 32.3208 58.1457 32.3208C59.6875 32.3208 60.8776 32.7932 61.7162 33.7379C62.5547 34.6737 62.9739 36.024 62.9739 37.7887V46.3047H59.6063V38.8182C59.6063 37.6684 59.4035 36.8306 58.9978 36.3047C58.601 35.77 57.9789 35.5026 57.1314 35.5026C56.2117 35.5026 55.531 35.77 55.0892 36.3047C54.6564 36.8306 54.44 37.6506 54.44 38.7647V46.3047H51.059Z" fill="white"/>
<path d="M73.9635 46.3048V27.5883H80.347C81.9883 27.5883 83.3858 27.8556 84.5394 28.3904C85.6938 28.9162 86.6273 29.6293 87.3394 30.5294C88.0609 31.4207 88.5832 32.4234 88.9079 33.5375C89.2419 34.6426 89.4086 35.779 89.4086 36.9465C89.4086 38.0161 89.2506 39.099 88.9353 40.1952C88.6287 41.2915 88.1237 42.303 87.4202 43.23C86.7168 44.148 85.7753 44.8922 84.5935 45.4626C83.4219 46.0241 81.9703 46.3048 80.2388 46.3048H73.9635ZM77.4662 43.0161H80.6039C81.5692 43.0161 82.3801 42.8378 83.0388 42.4813C83.6968 42.1159 84.2241 41.6391 84.621 41.0508C85.0264 40.4537 85.3193 39.7986 85.4997 39.0856C85.6894 38.3637 85.7839 37.6507 85.7839 36.9465C85.7839 36.1979 85.6894 35.4626 85.4997 34.7407C85.3107 34.0187 85.0178 33.3637 84.621 32.7754C84.2241 32.1872 83.7191 31.7193 83.1059 31.3717C82.4934 31.0241 81.7582 30.8503 80.9018 30.8503H77.4662V43.0161Z" fill="white"/>
<path d="M93.0592 46.3048V32.6417H96.4399V46.3048H93.0592ZM94.7495 30.9305C94.2084 30.9305 93.7395 30.7389 93.3427 30.3556C92.9553 29.9635 92.7612 29.5 92.7612 28.9652C92.7612 28.4305 92.9553 27.9759 93.3427 27.6016C93.7308 27.2184 94.1998 27.0267 94.7495 27.0267C95.3173 27.0267 95.7906 27.2139 96.1694 27.5882C96.5481 27.9626 96.7379 28.4216 96.7379 28.9652C96.7379 29.5089 96.5438 29.9724 96.1564 30.3556C95.7776 30.7389 95.3087 30.9305 94.7495 30.9305Z" fill="white"/>
<path d="M105.574 51.9999L103.708 49.2058C105.025 49.1078 106.043 48.9607 106.765 48.7647C107.495 48.5686 108.004 48.2878 108.293 47.9224C108.581 47.557 108.726 47.0802 108.726 46.4919V45.5026C108.022 46.2513 107.031 46.6256 105.75 46.6256C104.551 46.6256 103.519 46.3404 102.653 45.77C101.787 45.1907 101.121 44.3662 100.652 43.2967C100.192 42.2183 99.9621 40.9394 99.9621 39.4598C99.9621 38.016 100.201 36.7593 100.679 35.6898C101.165 34.6202 101.841 33.7914 102.707 33.2032C103.582 32.6149 104.605 32.3208 105.777 32.3208C106.39 32.3208 106.949 32.4144 107.454 32.6016C107.968 32.7887 108.392 33.0606 108.726 33.4171V32.6417H112.093V45.0748C112.093 46.2869 111.98 47.3119 111.755 48.1497C111.53 48.9874 111.16 49.6737 110.646 50.2085C110.141 50.7432 109.474 51.1488 108.645 51.4251C107.815 51.7103 106.791 51.9019 105.574 51.9999ZM106.305 43.4304C106.783 43.4304 107.229 43.3234 107.643 43.1096C108.068 42.8867 108.428 42.5882 108.726 42.2139V36.7058C108.473 36.3582 108.126 36.073 107.685 35.8502C107.242 35.6185 106.796 35.5026 106.346 35.5026C105.372 35.5026 104.628 35.8413 104.114 36.5187C103.609 37.1871 103.357 38.1675 103.357 39.4598C103.357 40.2977 103.469 41.0151 103.695 41.6122C103.929 42.2004 104.267 42.6506 104.709 42.9625C105.151 43.2744 105.683 43.4304 106.305 43.4304Z" fill="white"/>
<path d="M116.331 46.3048V32.6417H119.711V46.3048H116.331ZM118.021 30.9305C117.48 30.9305 117.011 30.7389 116.614 30.3556C116.227 29.9635 116.033 29.5 116.033 28.9652C116.033 28.4305 116.227 27.9759 116.614 27.6016C117.002 27.2184 117.471 27.0267 118.021 27.0267C118.589 27.0267 119.062 27.2139 119.441 27.5882C119.82 27.9626 120.009 28.4216 120.009 28.9652C120.009 29.5089 119.815 29.9724 119.428 30.3556C119.049 30.7389 118.58 30.9305 118.021 30.9305Z" fill="white"/>
<path d="M127.994 46.6256C126.894 46.6256 126.069 46.3271 125.519 45.7299C124.969 45.1328 124.694 44.2415 124.694 43.0561V35.5695H122.679V32.6417H124.694V28.5909L128.048 27V32.6417H131.186V35.5695H128.048V42.4546C128.048 42.8824 128.134 43.1988 128.305 43.4037C128.485 43.6087 128.765 43.7112 129.144 43.7112C129.81 43.7112 130.541 43.5062 131.334 43.0963L130.942 46.0107C130.528 46.2157 130.077 46.3672 129.59 46.4652C129.103 46.5722 128.571 46.6256 127.994 46.6256Z" fill="white"/>
<path d="M138.534 46.6256C137.029 46.6256 135.835 46.2245 134.951 45.4224C134.076 44.6114 133.639 43.5151 133.639 42.1337C133.639 41.2424 133.864 40.4625 134.315 39.7941C134.775 39.1167 135.41 38.5953 136.222 38.2299C137.042 37.8556 137.998 37.6684 139.089 37.6684C139.693 37.6684 140.274 37.7263 140.834 37.8422C141.402 37.9492 141.898 38.1051 142.321 38.3101V37.4545C142.321 36.688 142.101 36.1132 141.659 35.7299C141.226 35.3377 140.586 35.1417 139.738 35.1417C139.062 35.1417 138.368 35.2619 137.656 35.5026C136.944 35.7432 136.222 36.0998 135.492 36.5722L134.478 33.9384C135.271 33.4215 136.154 33.0249 137.128 32.7486C138.102 32.4634 139.085 32.3208 140.077 32.3208C141.934 32.3208 143.323 32.7575 144.242 33.631C145.162 34.4955 145.621 35.7878 145.621 37.5079V46.3047H142.321V45.2085C141.852 45.6719 141.294 46.024 140.645 46.2647C140.005 46.5053 139.301 46.6256 138.534 46.6256ZM139.319 43.8047C139.878 43.8047 140.414 43.6978 140.929 43.4839C141.451 43.2611 141.916 42.9492 142.321 42.5481V40.9304C141.934 40.7432 141.501 40.6007 141.023 40.5026C140.554 40.3957 140.085 40.3422 139.617 40.3422C138.778 40.3422 138.115 40.5026 137.629 40.8234C137.151 41.1354 136.912 41.5722 136.912 42.1337C136.912 42.6594 137.124 43.0694 137.547 43.3636C137.971 43.6577 138.562 43.8047 139.319 43.8047Z" fill="white"/>
<path d="M149.642 46.3048V28.5107L153.023 27V46.3048H149.642Z" fill="white"/>
<path d="M24.0465 46.3425L28.9414 39.5137L24.0465 32.6849H19.768L24.6629 39.5137L19.768 46.3425H24.0465Z" fill="#8F006F"/>
<path d="M27.8153 44.0126L29.4853 46.3425H33.7638L29.9776 41.0605L27.8153 44.0126Z" fill="white"/>
<path d="M27.8286 34.9962L29.9863 37.9549L33.7638 32.6849H29.4853L27.8286 34.9962Z" fill="white"/>
<path d="M156.099 43.4375H159V46.3048H156.099V43.4375Z" fill="#8F006F"/>
</g>
<defs>
<clipPath id="clip0_280_341">
<rect width="158" height="25" fill="white" transform="translate(1 27)"/>
</clipPath>
</defs>
</svg>
