<svg width="160" height="80" viewBox="0 0 160 80" fill="none" xmlns="http://www.w3.org/2000/svg">
<g clip-path="url(#clip0_280_393)">
<path d="M140.874 28.0416V37.0833C140.499 36.5416 138.915 35.0416 136.205 35.0416C131.662 35.0416 128.703 38.4583 128.703 43.3333C128.703 48.2083 131.912 51.5833 136.414 51.5833C139.081 51.5833 140.665 50.0833 141.082 49.5416V51.1666H145V28.75L140.874 28.0416ZM136.164 47.9166C133.788 47.9166 132.121 46.1666 132.121 43.375C132.121 40.625 133.746 38.7083 136.164 38.7083C138.456 38.7083 140.54 40.375 140.54 43.2916C140.499 45.7916 138.706 47.9166 136.164 47.9166Z" fill="white"/>
<path d="M28.2123 46.875L29.3376 50.2916C28.4207 51 26.7118 52 24.4194 52C19.5011 52 16 48.5416 16 43.75C16 38.9583 19.5845 35.4166 24.3777 35.4166C26.7118 35.4166 28.3373 36.3333 29.3793 37.125L28.2123 40.625C27.5037 40 26.295 39.125 24.5444 39.125C21.8769 39.125 20.2097 41.2083 20.2097 43.75C20.2097 46.4166 22.0853 48.3333 24.7111 48.3333C26.2533 48.2916 27.5454 47.4583 28.2123 46.875Z" fill="white"/>
<path d="M38.674 35.4166C43.5089 35.4166 47.1768 38.9583 47.1768 43.75C47.1768 48.5 43.6339 52 38.674 52C33.7558 52 30.1713 48.5416 30.1713 43.75C30.2129 38.9583 33.8808 35.4166 38.674 35.4166ZM38.674 48.2916C41.1748 48.2916 43.0087 46.4166 43.0087 43.75C43.0087 41.0833 41.1748 39.0833 38.674 39.0833C36.1732 39.0833 34.3393 41 34.3393 43.75C34.381 46.4166 36.2149 48.2916 38.674 48.2916Z" fill="white"/>
<path d="M63.8904 35.2916C68.7253 35.2916 72.3932 38.8333 72.3932 43.625C72.3932 48.375 68.8504 51.875 63.8904 51.875C58.9722 51.875 55.3877 48.4166 55.3877 43.625C55.3877 38.8333 59.0972 35.2916 63.8904 35.2916ZM63.8904 48.2083C66.3913 48.2083 68.2252 46.3333 68.2252 43.6666C68.2252 41 66.3913 39 63.8904 39C61.3896 39 59.5557 40.9166 59.5557 43.6666C59.5557 46.3333 61.3896 48.2083 63.8904 48.2083Z" fill="white"/>
<path d="M83.1467 39.4167C80.0207 39.4167 78.8953 41.3334 78.8953 44.5V51.375H74.7273V35.5834H78.8119V37.875C79.5205 36.2917 81.0627 35.2084 83.1467 35.2084V39.4167Z" fill="white"/>
<path d="M53.3871 51.5833V28.75L49.2191 28V51.5833H53.3871Z" fill="white"/>
<path d="M89.7738 51.2917V28.75L85.6058 28V51.2917H89.7738Z" fill="white"/>
<path d="M126.744 42.25V51.375H122.576V42.0416C122.576 39.625 121.242 38.9583 119.658 38.9583C117.741 38.9583 115.616 40.2083 115.616 41.9166V51.375H111.364V35.5833H115.49V37.4166C116.241 36.3333 118.825 35.1666 121.117 35.1666C126.119 35.2083 126.744 38.9166 126.744 42.25Z" fill="white"/>
<path d="M104.362 35.5V37.25C103.987 36.7084 102.403 35.2084 99.6937 35.2084C95.1506 35.2084 92.1913 38.625 92.1913 43.5C92.1913 48.375 95.4007 51.7501 99.9021 51.7501C102.57 51.7501 104.153 50.25 104.57 49.7084V51.3334H108.488V35.4584H104.362V35.5ZM99.652 48.0834C97.2763 48.0834 95.6091 46.3334 95.6091 43.5417C95.6091 40.7917 97.2346 38.875 99.652 38.875C101.944 38.875 104.028 40.5417 104.028 43.4584C104.028 46 102.195 48.0834 99.652 48.0834Z" fill="white"/>
<path d="M140.499 43.2917C140.499 40.3334 138.456 38.7084 136.122 38.7084C133.705 38.7084 132.079 40.625 132.079 43.375C132.079 46.1667 133.788 47.9167 136.122 47.9167C138.706 47.9167 140.499 45.7917 140.499 43.2917Z" fill="#FFDA00"/>
<path d="M99.652 38.875C97.2346 38.875 95.6091 40.7917 95.6091 43.5417C95.6091 46.3333 97.3179 48.0833 99.652 48.0833C101.861 48.0833 103.528 46.5 103.903 44.4167C103.945 44.0833 103.987 43.75 103.987 43.375C103.945 40.5 101.903 38.875 99.652 38.875Z" fill="#EF4652"/>
<path d="M59.5557 43.625C59.5557 46.2917 61.3897 48.1667 63.8905 48.1667C66.3913 48.1667 68.2252 46.2917 68.2252 43.625C68.2252 40.9584 66.3913 38.9584 63.8905 38.9584C61.3897 39 59.5557 40.9167 59.5557 43.625Z" fill="#5BCAEC"/>
<path d="M34.3809 43.75C34.3809 46.4167 36.2148 48.2917 38.7157 48.2917C41.2165 48.2917 43.0504 46.4167 43.0504 43.75C43.0504 41.0834 41.2165 39.0834 38.7157 39.0834C36.1732 39.0834 34.3809 41.0417 34.3809 43.75Z" fill="#8DC63F"/>
</g>
<defs>
<clipPath id="clip0_280_393">
<rect width="129" height="24" fill="white" transform="translate(16 28)"/>
</clipPath>
</defs>
</svg>
