<svg width="160" height="80" viewBox="0 0 160 80" fill="none" xmlns="http://www.w3.org/2000/svg">
<path d="M49.7136 48.9735V55.8734H57.6326V47.9054H53.6729C52.2302 47.9054 50.8792 48.2956 49.7136 48.9735Z" fill="#DD1E35"/>
<path d="M49.7136 39.9366V40.4384C50.9789 40.1115 52.3062 39.9366 53.6729 39.9366H57.6326C57.6326 35.5359 61.1773 31.9683 65.5505 31.9683V24C56.804 24 49.7136 31.1347 49.7136 39.9366Z" fill="#DD1E35"/>
<path d="M29.9182 39.9365H22V55.8734H29.9182V47.9054C34.2911 47.9054 37.8363 51.4721 37.8363 55.8734C37.8363 51.8324 39.332 48.1433 41.7957 45.334C38.8935 42.0251 34.6488 39.9365 29.9182 39.9365Z" fill="#D2D2D3"/>
<path d="M41.7958 45.3341C44.2592 48.1433 45.7549 51.8324 45.7549 55.8734C45.7549 52.9241 47.3477 50.3524 49.7136 48.9736V40.4384C46.6011 41.245 43.8587 42.9816 41.7958 45.3341Z" fill="#B8B9BA"/>
<path d="M57.6327 47.9054H61.5912V39.9365H57.6327V47.9054Z" fill="#B8B9BA"/>
<path d="M49.7136 40.4383V48.9735C50.8792 48.2956 52.2302 47.9054 53.6729 47.9054H57.6326V39.9365H53.6729C52.3062 39.9365 50.9789 40.1114 49.7136 40.4383Z" fill="#B32223"/>
<path d="M37.8363 55.8735H45.7548C45.7548 51.8324 44.2591 48.1434 41.7957 45.3341C39.3319 48.1434 37.8363 51.8324 37.8363 55.8735Z" fill="#9C9C9C"/>
<path d="M76.2254 48.2311V49.0882H72.2433V51.5211H75.7356V52.3776H72.2433V55.8819H71.2317V48.2311H76.2254Z" fill="#DD1E35"/>
<path d="M78.2589 50.3423V55.8819H77.3539V50.3423H78.2589ZM77.3539 49.0882V48.2311H78.2589V49.0882H77.3539Z" fill="#DD1E35"/>
<path d="M80.6221 50.3422V51.2208H80.6439C81.0198 50.5496 81.6157 50.2135 82.4325 50.2135C82.7944 50.2135 83.0962 50.263 83.3374 50.3633C83.5787 50.4636 83.7741 50.6025 83.9233 50.7817C84.0722 50.9602 84.177 51.1718 84.2372 51.4186C84.2967 51.6651 84.3277 51.9382 84.3277 52.2387V55.8819H83.4222V52.1314C83.4222 51.7883 83.3231 51.5177 83.1244 51.3171C82.926 51.1171 82.6531 51.0168 82.3046 51.0168C82.0281 51.0168 81.7883 51.0596 81.5856 51.1455C81.3836 51.2312 81.2152 51.3526 81.0803 51.5097C80.9454 51.6666 80.8439 51.8516 80.7767 52.0623C80.709 52.2721 80.6758 52.5026 80.6758 52.7531V55.8819H79.7706V50.3422H80.6221Z" fill="#DD1E35"/>
<path d="M88.7578 53.2081C88.5725 53.2479 88.3789 53.2797 88.1768 53.305C87.9751 53.3295 87.7709 53.3582 87.5645 53.39C87.3585 53.4222 87.1741 53.4748 87.0115 53.5463C86.8474 53.6169 86.7149 53.7188 86.6116 53.8515C86.5089 53.983 86.4569 54.1637 86.4569 54.393C86.4569 54.542 86.487 54.6695 86.5475 54.7722C86.6077 54.8759 86.6867 54.96 86.7821 55.0242C86.8775 55.0881 86.9914 55.1346 87.123 55.1633C87.2546 55.1924 87.3871 55.2067 87.5226 55.2067C87.8198 55.2067 88.0756 55.1652 88.2886 55.0835C88.5014 55.0016 88.6755 54.8979 88.8101 54.7722C88.9453 54.6475 89.0441 54.512 89.1088 54.3658C89.1723 54.219 89.2042 54.0808 89.2042 53.9527V53.021C89.0912 53.106 88.942 53.1683 88.7578 53.2081ZM89.2571 55.8819V55.1532C89.0091 55.4523 88.7198 55.6694 88.3898 55.8009C88.0595 55.9336 87.7037 56 87.3199 56C87.0708 56 86.8374 55.9731 86.6168 55.9189C86.3968 55.8651 86.2038 55.7761 86.0361 55.6508C85.8705 55.526 85.7389 55.3658 85.6426 55.1685C85.5469 54.9728 85.4991 54.7349 85.4991 54.4566C85.4991 54.1423 85.552 53.8854 85.6593 53.6845C85.7647 53.4858 85.9057 53.3228 86.0798 53.1974C86.253 53.0726 86.4518 52.9781 86.6754 52.9139C86.8994 52.8497 87.1279 52.7959 87.3619 52.7531C87.6104 52.7032 87.8468 52.6659 88.0708 52.6409C88.2938 52.6152 88.4913 52.58 88.6612 52.5329C88.8314 52.4874 88.9663 52.4189 89.0659 52.3296C89.1647 52.2403 89.2151 52.1094 89.2151 51.9382C89.2151 51.7385 89.1781 51.5782 89.1027 51.4559C89.0292 51.3354 88.9325 51.2422 88.8162 51.1777C88.6992 51.1128 88.5667 51.0706 88.4214 51.0495C88.2768 51.0275 88.1328 51.0168 87.9902 51.0168C87.6071 51.0168 87.288 51.0911 87.0325 51.237C86.7769 51.3828 86.638 51.6599 86.6168 52.0672H85.7119C85.7264 51.7244 85.7966 51.4348 85.9249 51.1991C86.0531 50.9639 86.223 50.7722 86.4357 50.6254C86.6496 50.4795 86.8942 50.374 87.1707 50.3104C87.4472 50.2453 87.739 50.2135 88.044 50.2135C88.2917 50.2135 88.5387 50.2309 88.7833 50.2673C89.0292 50.3028 89.2504 50.3759 89.4497 50.4866C89.6475 50.5979 89.8074 50.7529 89.9289 50.9529C90.0499 51.1523 90.11 51.4131 90.11 51.7351V55.8819H89.2571Z" fill="#DD1E35"/>
<path d="M92.4729 50.3422V51.2208H92.4945C92.87 50.5496 93.4665 50.2135 94.2827 50.2135C94.6446 50.2135 94.9464 50.263 95.188 50.3633C95.4289 50.4636 95.6249 50.6025 95.7738 50.7817C95.9233 50.9602 96.0272 51.1718 96.0874 51.4186C96.1479 51.6651 96.1779 51.9382 96.1779 52.2387V55.8819H95.273V52.1314C95.273 51.7883 95.1743 51.5177 94.9746 51.3171C94.7771 51.1171 94.5027 51.0168 94.1551 51.0168C93.8789 51.0168 93.6391 51.0596 93.4362 51.1455C93.2344 51.2312 93.066 51.3526 92.9305 51.5097C92.7962 51.6666 92.6947 51.8516 92.627 52.0623C92.5601 52.2721 92.5264 52.5026 92.5264 52.7531V55.8819H91.6215V50.3422H92.4729Z" fill="#DD1E35"/>
<path d="M98.3397 54.6441C98.4251 54.7829 98.5372 54.8936 98.6749 54.9765C98.8137 55.0587 98.9696 55.1168 99.144 55.1532C99.3172 55.1887 99.4965 55.2067 99.6819 55.2067C99.8226 55.2067 99.9718 55.1954 100.128 55.1743C100.285 55.1532 100.428 55.1138 100.56 55.0563C100.691 54.9997 100.799 54.9156 100.885 54.8043C100.97 54.6936 101.013 54.553 101.013 54.3808C101.013 54.1457 100.924 53.9668 100.746 53.8463C100.568 53.7243 100.347 53.6255 100.081 53.5512C99.8141 53.476 99.5251 53.4081 99.2127 53.3472C98.9009 53.2867 98.611 53.2014 98.3445 53.091C98.079 52.9797 97.8571 52.8246 97.6794 52.6237C97.5016 52.425 97.4129 52.1458 97.4129 51.7883C97.4129 51.5097 97.4749 51.2706 97.5998 51.0706C97.7234 50.87 97.8839 50.7083 98.079 50.5835C98.274 50.4587 98.4937 50.3649 98.7384 50.3043C98.9839 50.2444 99.2267 50.2135 99.4679 50.2135C99.7809 50.2135 100.068 50.2401 100.33 50.2939C100.593 50.3471 100.826 50.4401 101.028 50.5728C101.23 50.7049 101.392 50.8835 101.512 51.1079C101.633 51.333 101.705 51.6137 101.726 51.9495H100.82C100.806 51.7706 100.76 51.6223 100.683 51.5042C100.603 51.3868 100.504 51.2917 100.384 51.2208C100.263 51.1489 100.13 51.0975 99.9851 51.0657C99.8393 51.0336 99.6919 51.0168 99.5427 51.0168C99.4078 51.0168 99.2713 51.0275 99.1328 51.0495C98.9948 51.0706 98.8681 51.1079 98.7551 51.1618C98.6411 51.2159 98.5491 51.2865 98.4786 51.3758C98.4065 51.4654 98.3713 51.5819 98.3713 51.7244C98.3713 51.8819 98.4266 52.0119 98.5372 52.1155C98.6463 52.2192 98.787 52.3051 98.9568 52.3727C99.127 52.44 99.32 52.4974 99.5327 52.5439C99.7457 52.5901 99.9584 52.639 100.171 52.6886C100.398 52.7384 100.62 52.7993 100.836 52.8711C101.053 52.9427 101.244 53.0372 101.411 53.1549C101.579 53.272 101.713 53.4215 101.817 53.5992C101.919 53.7784 101.971 53.9998 101.971 54.264C101.971 54.5991 101.901 54.8786 101.763 55.0994C101.624 55.3211 101.443 55.4991 101.22 55.6358C100.996 55.7706 100.744 55.8651 100.464 55.9189C100.183 55.9731 99.9049 56 99.6284 56C99.3233 56 99.0316 55.9669 98.7551 55.9033C98.4786 55.8391 98.233 55.7333 98.0203 55.5868C97.8073 55.4401 97.6374 55.2477 97.5089 55.0083C97.381 54.7689 97.3108 54.4777 97.2962 54.1346H98.2011C98.209 54.3352 98.2543 54.5053 98.3397 54.6441Z" fill="#DD1E35"/>
<path d="M106.809 48.2311L105.847 49.5818H104.953L105.91 48.2311H106.809ZM103.951 54.0117C104.041 54.2729 104.163 54.4906 104.319 54.6652C104.474 54.8404 104.658 54.9747 104.867 55.0673C105.076 55.1603 105.299 55.2068 105.532 55.2068C105.766 55.2068 105.989 55.1603 106.199 55.0673C106.407 54.9747 106.591 54.8404 106.747 54.6652C106.903 54.4906 107.025 54.2729 107.114 54.0117C107.203 53.7509 107.247 53.4537 107.247 53.117C107.247 52.7818 107.203 52.4831 107.114 52.2226C107.025 51.9617 106.903 51.7419 106.747 51.5633C106.591 51.3856 106.407 51.2495 106.199 51.1566C105.989 51.0639 105.766 51.0168 105.532 51.0168C105.299 51.0168 105.076 51.0639 104.867 51.1566C104.658 51.2495 104.474 51.3856 104.319 51.5633C104.163 51.7419 104.041 51.9617 103.951 52.2226C103.863 52.4831 103.818 52.7818 103.818 53.117C103.818 53.4537 103.863 53.7509 103.951 54.0117ZM103.03 51.9764C103.144 51.6223 103.315 51.3153 103.541 51.0547C103.769 50.7942 104.049 50.5884 104.382 50.4383C104.716 50.2884 105.099 50.2135 105.532 50.2135C105.972 50.2135 106.358 50.2884 106.688 50.4383C107.018 50.5884 107.296 50.7942 107.524 51.0547C107.75 51.3153 107.922 51.6223 108.035 51.9764C108.149 52.3296 108.204 52.7097 108.204 53.117C108.204 53.5243 108.149 53.9032 108.035 54.253C107.922 54.6025 107.75 54.9089 107.524 55.1685C107.296 55.43 107.018 55.6339 106.688 55.7795C106.358 55.9257 105.972 56 105.532 56C105.099 56 104.716 55.9257 104.382 55.7795C104.049 55.6339 103.769 55.43 103.541 55.1685C103.315 54.9089 103.144 54.6025 103.03 54.253C102.917 53.9032 102.861 53.5243 102.861 53.117C102.861 52.7097 102.917 52.3296 103.03 51.9764Z" fill="#DD1E35"/>
<path d="M113.751 55.8821L112.633 51.4784H112.612L111.504 55.8821H110.524L108.757 50.3424H109.758L111.003 54.8745H111.025L112.132 50.3424H113.123L114.272 54.8745H114.294L115.529 50.3424H116.466L114.709 55.8821H113.751Z" fill="#DD1E35"/>
<path d="M73.5872 36.7588L75.3651 42.0202H75.387L77.0692 36.7588H79.4221V44.4097H77.8569V38.9874H77.8356L75.972 44.4097H74.6839L72.8203 39.0415H72.7996V44.4097H71.2341V36.7588H73.5872Z" fill="#D2D2D3"/>
<path d="M82.5525 38.8694V44.4097H81.0411V38.8694H82.5525ZM81.0411 38.0122V36.7588H82.5525V38.0122H81.0411Z" fill="#D2D2D3"/>
<path d="M85.448 38.8693V39.6405H85.4806C85.6726 39.3197 85.9206 39.0855 86.2256 38.9393C86.5307 38.7922 86.8428 38.7197 87.1621 38.7197C87.5678 38.7197 87.8987 38.7745 88.1582 38.8852C88.4174 38.9965 88.6219 39.15 88.7711 39.3463C88.9191 39.5429 89.0242 39.782 89.0844 40.064C89.1449 40.3462 89.175 40.6594 89.175 41.0015V44.4096H87.6635V41.2798C87.6635 40.8226 87.5918 40.482 87.4505 40.2569C87.308 40.0319 87.057 39.9193 86.6939 39.9193C86.2825 39.9193 85.9844 40.0429 85.7999 40.289C85.6158 40.5361 85.5234 40.941 85.5234 41.5058V44.4096H84.011V38.8693H85.448Z" fill="#D2D2D3"/>
<path d="M92.146 38.8694V44.4097H90.6336V38.8694H92.146ZM90.6336 38.0122V36.7588H92.146V38.0122H90.6336Z" fill="#D2D2D3"/>
<path d="M94.8764 43.032C94.9442 43.15 95.0308 43.246 95.1371 43.3222C95.2444 43.3962 95.3669 43.4518 95.5048 43.4873C95.6434 43.5234 95.7874 43.5411 95.9366 43.5411C96.0421 43.5411 96.1542 43.5295 96.2718 43.5041C96.3891 43.4787 96.4951 43.439 96.5909 43.3861C96.6872 43.332 96.7668 43.2613 96.8303 43.1717C96.8941 43.0824 96.926 42.9693 96.926 42.8341C96.926 42.6051 96.775 42.4345 96.4733 42.3204C96.1718 42.2054 95.7513 42.0911 95.2116 41.9761C94.9919 41.9272 94.7771 41.8681 94.5674 41.7996C94.358 41.7318 94.1718 41.6425 94.0086 41.5321C93.8454 41.4214 93.7144 41.2822 93.6145 41.1144C93.5151 40.9459 93.4653 40.741 93.4653 40.4985C93.4653 40.1404 93.5352 39.8481 93.6734 39.6191C93.8117 39.3912 93.9943 39.2105 94.2222 39.0784C94.4483 38.9463 94.7047 38.8531 94.988 38.7998C95.2721 38.7457 95.5635 38.7197 95.8613 38.7197C96.1594 38.7197 96.4493 38.7479 96.7291 38.8053C97.0096 38.8625 97.2603 38.9589 97.4797 39.0943C97.6994 39.2298 97.8826 39.4102 98.0278 39.6356C98.1737 39.8606 98.2606 40.1444 98.2895 40.4872H96.8516C96.8303 40.1946 96.7206 39.9964 96.5213 39.8927C96.3225 39.7891 96.0892 39.7374 95.819 39.7374C95.7336 39.7374 95.6416 39.7429 95.5416 39.7533C95.4422 39.7643 95.3517 39.7875 95.2702 39.8233C95.1891 39.8591 95.1195 39.9105 95.0636 39.9781C95.0065 40.0462 94.9779 40.1371 94.9779 40.2514C94.9779 40.3878 95.0272 40.4985 95.1271 40.5832C95.2259 40.6691 95.3556 40.7395 95.5158 40.7924C95.6753 40.8465 95.8579 40.8948 96.0639 40.9376C96.27 40.9804 96.4793 41.0269 96.6923 41.0761C96.9117 41.1263 97.1263 41.1868 97.3356 41.259C97.5453 41.3303 97.7319 41.4247 97.8954 41.5431C98.0579 41.6611 98.1895 41.8076 98.2895 41.9822C98.3882 42.1565 98.4384 42.3736 98.4384 42.6305C98.4384 42.995 98.3651 43.3002 98.2196 43.5463C98.0749 43.7925 97.8844 43.9915 97.6507 44.1414C97.4162 44.2918 97.1481 44.3961 96.8464 44.457C96.545 44.5175 96.2381 44.5481 95.9254 44.5481C95.6063 44.5481 95.2939 44.516 94.988 44.4518C94.6832 44.3875 94.4115 44.2808 94.1736 44.1304C93.9357 43.9802 93.7412 43.7824 93.5889 43.5362C93.4352 43.2888 93.3525 42.9806 93.3383 42.6088H94.7752C94.7752 42.7739 94.8087 42.9139 94.8764 43.032Z" fill="#D2D2D3"/>
<path d="M102.612 38.8692V39.8872H101.505V42.4788C101.505 43.0402 101.749 43.2301 102.257 43.2301C102.381 43.2301 102.612 43.2301 102.612 43.2301V44.4095C102.612 44.4095 102.093 44.4095 101.789 44.4095C100.607 44.4095 99.9927 43.7197 99.9927 42.7231V39.8872H99.0768V38.8692H99.9927V37.2085H101.505V38.8692H102.612Z" fill="#D2D2D3"/>
<path d="M123.397 38.8692V39.8872H122.29V42.4788C122.29 43.0402 122.534 43.2301 123.042 43.2301C123.167 43.2301 123.397 43.2301 123.397 43.2301V44.4095C123.397 44.4095 122.878 44.4095 122.574 44.4095C121.392 44.4095 120.777 43.7197 120.777 42.7231V39.8872H119.862V38.8692H120.777V37.2085H122.29V38.8692H123.397Z" fill="#D2D2D3"/>
<path d="M106.965 40.1658C106.784 39.9661 106.509 39.8661 106.14 39.8661C105.899 39.8661 105.698 39.9071 105.539 39.9891C105.378 40.0719 105.251 40.1731 105.155 40.2945C105.059 40.4166 104.991 40.5444 104.953 40.6801C104.914 40.8162 104.891 40.9376 104.883 41.0443H107.343C107.272 40.6594 107.146 40.3658 106.965 40.1658ZM105.256 43.0806C105.483 43.3017 105.81 43.413 106.236 43.413C106.541 43.413 106.804 43.3359 107.023 43.1821C107.243 43.0286 107.378 42.8662 107.429 42.6944H108.76C108.547 43.3589 108.22 43.8347 107.78 44.1194C107.34 44.4056 106.807 44.5481 106.183 44.5481C105.75 44.5481 105.359 44.4787 105.011 44.3386C104.664 44.2004 104.369 44.0013 104.128 43.7451C103.886 43.4873 103.7 43.1803 103.569 42.8228C103.437 42.4663 103.372 42.073 103.372 41.644C103.372 41.2309 103.439 40.8447 103.573 40.4872C103.709 40.13 103.9 39.8209 104.15 39.561C104.397 39.2998 104.694 39.0943 105.037 38.9445C105.382 38.7946 105.764 38.7197 106.183 38.7197C106.651 38.7197 107.059 38.8105 107.407 38.9928C107.755 39.1747 108.041 39.42 108.264 39.7267C108.488 40.0337 108.649 40.3844 108.749 40.7768C108.848 41.1691 108.883 41.5801 108.855 42.0091H104.883C104.905 42.5014 105.029 42.8592 105.256 43.0806Z" fill="#D2D2D3"/>
<path d="M115.66 43.032C115.728 43.15 115.814 43.246 115.921 43.3222C116.027 43.3962 116.15 43.4518 116.288 43.4873C116.426 43.5234 116.57 43.5411 116.72 43.5411C116.826 43.5411 116.938 43.5295 117.055 43.5041C117.172 43.4787 117.278 43.439 117.374 43.3861C117.471 43.332 117.55 43.2613 117.614 43.1717C117.677 43.0824 117.709 42.9693 117.709 42.8341C117.709 42.6051 117.558 42.4345 117.257 42.3204C116.955 42.2054 116.535 42.0911 115.995 41.9761C115.775 41.9272 115.561 41.8681 115.351 41.7996C115.142 41.7318 114.956 41.6425 114.792 41.5321C114.629 41.4214 114.498 41.2822 114.398 41.1144C114.299 40.9459 114.249 40.741 114.249 40.4985C114.249 40.1404 114.318 39.8481 114.456 39.6191C114.595 39.3912 114.778 39.2105 115.006 39.0784C115.233 38.9463 115.488 38.8531 115.772 38.7998C116.056 38.7457 116.347 38.7197 116.645 38.7197C116.944 38.7197 117.233 38.7479 117.513 38.8053C117.793 38.8625 118.044 38.9589 118.264 39.0943C118.484 39.2298 118.666 39.4102 118.812 39.6356C118.957 39.8606 119.044 40.1444 119.072 40.4872H117.635C117.614 40.1946 117.504 39.9964 117.306 39.8927C117.106 39.7891 116.872 39.7374 116.602 39.7374C116.518 39.7374 116.425 39.7429 116.325 39.7533C116.226 39.7643 116.136 39.7875 116.054 39.8233C115.972 39.8591 115.903 39.9105 115.846 39.9781C115.79 40.0462 115.762 40.1371 115.762 40.2514C115.762 40.3878 115.81 40.4985 115.911 40.5832C116.01 40.6691 116.139 40.7395 116.3 40.7924C116.459 40.8465 116.642 40.8948 116.847 40.9376C117.054 40.9804 117.263 41.0269 117.476 41.0761C117.696 41.1263 117.911 41.1868 118.12 41.259C118.329 41.3303 118.516 41.4247 118.679 41.5431C118.842 41.6611 118.973 41.8076 119.072 41.9822C119.172 42.1565 119.222 42.3736 119.222 42.6305C119.222 42.995 119.149 43.3002 119.003 43.5463C118.858 43.7925 118.667 43.9915 118.434 44.1414C118.2 44.2918 117.931 44.3961 117.629 44.457C117.328 44.5175 117.021 44.5481 116.709 44.5481C116.39 44.5481 116.077 44.516 115.772 44.4518C115.467 44.3875 115.195 44.2808 114.958 44.1304C114.72 43.9802 114.525 43.7824 114.372 43.5362C114.219 43.2888 114.136 42.9806 114.122 42.6088H115.559C115.559 42.7739 115.593 42.9139 115.66 43.032Z" fill="#D2D2D3"/>
<path d="M129.387 44.4097L128.407 40.6913H128.387L127.449 44.4097H125.884L124.137 38.8694H125.735L126.746 42.6306H126.768L127.683 38.8694H129.153L130.09 42.6196H130.11L131.122 38.8694H132.677L130.941 44.4097H129.387Z" fill="#D2D2D3"/>
<path d="M134.61 42.2935C134.653 42.5042 134.726 42.6932 134.829 42.8604C134.932 43.0286 135.07 43.1625 135.239 43.2628C135.41 43.3625 135.623 43.413 135.878 43.413C136.134 43.413 136.349 43.3625 136.523 43.2628C136.696 43.1625 136.834 43.0286 136.937 42.8604C137.04 42.6932 137.113 42.5042 137.156 42.2935C137.198 42.0825 137.219 41.8666 137.219 41.644C137.219 41.4232 137.198 41.2055 137.156 40.9902C137.113 40.7768 137.04 40.5872 136.937 40.423C136.834 40.2588 136.696 40.1248 136.523 40.0215C136.349 39.9175 136.134 39.8661 135.878 39.8661C135.623 39.8661 135.41 39.9175 135.239 40.0215C135.07 40.1248 134.932 40.2588 134.829 40.423C134.726 40.5872 134.653 40.7768 134.61 40.9902C134.569 41.2055 134.547 41.4232 134.547 41.644C134.547 41.8666 134.569 42.0825 134.61 42.2935ZM133.238 40.4389C133.372 40.0784 133.564 39.7713 133.812 39.5175C134.061 39.264 134.359 39.0677 134.707 38.928C135.055 38.7891 135.445 38.7197 135.878 38.7197C136.311 38.7197 136.704 38.7891 137.055 38.928C137.406 39.0677 137.706 39.264 137.955 39.5175C138.203 39.7713 138.395 40.0784 138.53 40.4389C138.664 40.8 138.731 41.2021 138.731 41.644C138.731 42.0877 138.664 42.4874 138.53 42.8448C138.395 43.202 138.203 43.5075 137.955 43.7604C137.706 44.0145 137.406 44.209 137.055 44.3447C136.704 44.4805 136.311 44.5481 135.878 44.5481C135.445 44.5481 135.055 44.4805 134.707 44.3447C134.359 44.209 134.061 44.0145 133.812 43.7604C133.564 43.5075 133.372 43.202 133.238 42.8448C133.103 42.4874 133.036 42.0877 133.036 41.644C133.036 41.2021 133.103 40.8 133.238 40.4389Z" fill="#D2D2D3"/>
<path d="M111.43 38.8693V39.547H111.452C111.851 38.9849 112.717 38.7541 113.539 38.7733V40.0252C112.181 39.9968 111.505 40.6845 111.505 41.6964V44.4096H109.993V38.8693H111.43Z" fill="#D2D2D3"/>
</svg>
