<svg width="160" height="80" viewBox="0 0 160 80" fill="none" xmlns="http://www.w3.org/2000/svg">
<g clip-path="url(#clip0_280_479)">
<path d="M92.942 32.0698C91.3115 32.0698 89.7177 32.551 88.362 33.4524C87.0064 34.3538 85.9497 35.6351 85.3258 37.1341C84.7018 38.6331 84.5386 40.2826 84.8567 41.8739C85.1747 43.4653 85.9599 44.927 87.1128 46.0743C88.2657 47.2216 89.7346 48.0029 91.3337 48.3195C92.9329 48.636 94.5904 48.4736 96.0967 47.8527C97.6031 47.2317 98.8906 46.1803 99.7964 44.8312C100.702 43.4821 101.186 41.896 101.186 40.2735C101.183 38.0986 100.313 36.0136 98.7681 34.4757C97.2227 32.9379 95.1275 32.0726 92.942 32.0698ZM92.942 46.4762C91.7092 46.4762 90.5041 46.1124 89.4791 45.4309C88.4541 44.7493 87.6552 43.7806 87.1834 42.6472C86.7116 41.5138 86.5882 40.2666 86.8287 39.0634C87.0692 37.8602 87.6628 36.7549 88.5346 35.8875C89.4063 35.02 90.5169 34.4292 91.726 34.1899C92.9351 33.9506 94.1884 34.0734 95.3273 34.5429C96.4662 35.0123 97.4397 35.8074 98.1246 36.8274C98.8095 37.8474 99.1751 39.0467 99.1751 40.2735C99.1715 41.9175 98.5137 43.4931 97.3455 44.6556C96.1774 45.8181 94.594 46.4727 92.942 46.4762Z" fill="white"/>
<path d="M111.4 46.4762C109.748 46.4727 108.165 45.8181 106.996 44.6556C105.828 43.4931 105.17 41.9174 105.167 40.2735V34.2041H116.453V34.1908C116.699 34.143 116.918 34.0062 117.067 33.8069C117.217 33.6077 117.287 33.3602 117.264 33.1125C117.24 32.8648 117.125 32.6345 116.941 32.4665C116.756 32.2985 116.516 32.2046 116.266 32.2032H105.167V26.0004C105.167 25.7351 105.061 25.4806 104.872 25.293C104.684 25.1054 104.428 25 104.162 25C103.895 25 103.639 25.1054 103.451 25.293C103.262 25.4806 103.156 25.7351 103.156 26.0004V32.2032H101.789C101.522 32.2032 101.267 32.3086 101.078 32.4962C100.89 32.6838 100.784 32.9383 100.784 33.2036C100.784 33.469 100.89 33.7235 101.078 33.9111C101.267 34.0987 101.522 34.2041 101.789 34.2041H103.156V40.4068L103.17 40.5936C103.254 42.7107 104.157 44.7135 105.691 46.1828C107.225 47.6522 109.271 48.4743 111.4 48.4771H111.427C111.559 48.4754 111.689 48.4477 111.81 48.3958C111.932 48.344 112.042 48.2688 112.134 48.1746C112.226 48.0805 112.298 47.9692 112.347 47.8472C112.396 47.7251 112.42 47.5947 112.419 47.4633C112.417 47.3319 112.389 47.2022 112.337 47.0815C112.285 46.9608 112.209 46.8515 112.115 46.7598C112.02 46.6681 111.908 46.5959 111.786 46.5473C111.663 46.4986 111.532 46.4745 111.4 46.4762Z" fill="white"/>
<path d="M120.756 32.0698C120.49 32.0698 120.234 32.1752 120.045 32.3628C119.857 32.5505 119.751 32.8049 119.751 33.0703C119.751 33.3356 119.857 33.5901 120.045 33.7777C120.234 33.9653 120.49 34.0707 120.756 34.0707C121.989 34.0707 123.194 34.4345 124.219 35.1161C125.244 35.7976 126.043 36.7664 126.515 37.8998C126.987 39.0332 127.11 40.2804 126.87 41.4836C126.629 42.6868 126.035 43.792 125.164 44.6595C124.292 45.527 123.181 46.1177 121.972 46.357C120.763 46.5964 119.51 46.4735 118.371 46.0041C117.232 45.5346 116.259 44.7396 115.574 43.7195C114.889 42.6995 114.523 41.5003 114.523 40.2735C114.521 40.0087 114.415 39.7552 114.227 39.568C114.039 39.3807 113.784 39.2748 113.518 39.273C113.253 39.272 112.999 39.3752 112.811 39.5602C112.622 39.7451 112.515 39.9968 112.513 40.2601V40.3135C112.52 41.9343 113.011 43.5164 113.921 44.8602C114.832 46.204 116.122 47.2493 117.629 47.8641C119.136 48.4789 120.793 48.6356 122.389 48.3146C123.986 47.9935 125.451 47.2091 126.6 46.0602C127.748 44.9113 128.53 43.4495 128.844 41.8593C129.159 40.269 128.994 38.6216 128.369 37.1249C127.743 35.6282 126.687 34.3493 125.332 33.4497C123.977 32.55 122.385 32.0698 120.756 32.0698Z" fill="white"/>
<path d="M74.9934 32.0698C73.8083 32.0656 72.6366 32.3189 71.56 32.8119C70.4835 33.305 69.528 34.0259 68.7604 34.9244V26.0004C68.7604 25.7351 68.6545 25.4806 68.4659 25.293C68.2774 25.1054 68.0217 25 67.755 25C67.4884 25 67.2327 25.1054 67.0442 25.293C66.8556 25.4806 66.7497 25.7351 66.7497 26.0004V40.4068C66.7497 40.6722 66.8556 40.9267 67.0442 41.1143C67.2327 41.3019 67.4884 41.4073 67.755 41.4073C68.0217 41.4073 68.2774 41.3019 68.4659 41.1143C68.6545 40.9267 68.7604 40.6722 68.7604 40.4068V40.2735C68.7604 38.6284 69.4171 37.0507 70.586 35.8874C71.7549 34.7242 73.3403 34.0707 74.9934 34.0707C76.6466 34.0707 78.232 34.7242 79.4009 35.8874C80.5698 37.0507 81.2265 38.6284 81.2265 40.2735V47.4767C81.2265 47.742 81.3324 47.9965 81.521 48.1841C81.7095 48.3717 81.9652 48.4771 82.2318 48.4771C82.4985 48.4771 82.7542 48.3717 82.9427 48.1841C83.1313 47.9965 83.2372 47.742 83.2372 47.4767V40.2735C83.2343 38.0986 82.3649 36.0136 80.8195 34.4757C79.2741 32.9379 77.1789 32.0726 74.9934 32.0698Z" fill="white"/>
<path d="M57.1789 32.0698C54.9934 32.0726 52.8982 32.9379 51.3528 34.4757C49.8074 36.0136 48.938 38.0986 48.9352 40.2735V53.9996C48.9352 54.2649 49.0411 54.5194 49.2296 54.707C49.4182 54.8946 49.6739 55 49.9405 55C50.2071 55 50.4628 54.8946 50.6514 54.707C50.8399 54.5194 50.9458 54.2649 50.9458 53.9996V40.2735C50.9458 39.0467 51.3114 37.8474 51.9963 36.8274C52.6812 35.8074 53.6547 35.0123 54.7936 34.5429C55.9326 34.0734 57.1858 33.9506 58.3949 34.1899C59.604 34.4292 60.7146 35.02 61.5864 35.8875C62.4581 36.7549 63.0517 37.8602 63.2922 39.0634C63.5327 40.2666 63.4093 41.5138 62.9375 42.6472C62.4657 43.7806 61.6668 44.7493 60.6418 45.4309C59.6168 46.1124 58.4117 46.4762 57.1789 46.4762C56.9123 46.4762 56.6566 46.5816 56.468 46.7693C56.2795 46.9569 56.1736 47.2113 56.1736 47.4767C56.1736 47.742 56.2795 47.9965 56.468 48.1841C56.6566 48.3717 56.9123 48.4771 57.1789 48.4771C59.3653 48.4771 61.4621 47.6128 63.0081 46.0743C64.5541 44.5358 65.4227 42.4492 65.4227 40.2735C65.4227 38.0977 64.5541 36.0111 63.0081 34.4726C61.4621 32.9341 59.3653 32.0698 57.1789 32.0698Z" fill="white"/>
<path d="M39.2437 32.0698C38.0586 32.0656 36.8869 32.3188 35.8103 32.8119C34.7338 33.3049 33.7783 34.0258 33.0107 34.9244V33.0702C33.0107 32.8049 32.9048 32.5504 32.7162 32.3628C32.5277 32.1752 32.272 32.0698 32.0053 32.0698C31.7387 32.0698 31.483 32.1752 31.2945 32.3628C31.1059 32.5504 31 32.8049 31 33.0702V47.1431C31 47.4085 31.1059 47.6629 31.2945 47.8505C31.483 48.0382 31.7387 48.1436 32.0053 48.1436C32.272 48.1436 32.5277 48.0382 32.7162 47.8505C32.9048 47.6629 33.0107 47.4085 33.0107 47.1431V40.2734C33.0107 38.6283 33.6674 37.0506 34.8363 35.8874C36.0052 34.7241 37.5906 34.0706 39.2437 34.0706C40.8969 34.0706 42.4823 34.7241 43.6512 35.8874C44.8201 37.0506 45.4768 38.6283 45.4768 40.2734V47.4766C45.4768 47.7419 45.5827 47.9964 45.7713 48.184C45.9598 48.3716 46.2155 48.477 46.4822 48.477C46.7488 48.477 47.0045 48.3716 47.193 48.184C47.3816 47.9964 47.4875 47.7419 47.4875 47.4766V40.2734C47.4882 39.1959 47.2754 38.1288 46.8614 37.1332C46.4474 36.1375 45.8402 35.2329 45.0745 34.471C44.3089 33.7091 43.3998 33.1048 42.3993 32.6928C41.3988 32.2808 40.3265 32.0691 39.2437 32.0698Z" fill="#8DD4BD"/>
</g>
<defs>
<clipPath id="clip0_280_479">
<rect width="98" height="30" fill="white" transform="translate(31 25)"/>
</clipPath>
</defs>
</svg>
