<svg width="160" height="80" viewBox="0 0 160 80" fill="none" xmlns="http://www.w3.org/2000/svg">
<g clip-path="url(#clip0_280_512)">
<path d="M57.9369 38.8804L56.9798 38.6811C56.8601 39.4918 56.0704 41.113 53.869 41.113C51.6675 41.113 50.7481 39.0192 50.7581 38.3622C50.798 35.7709 50.8379 35.8506 50.8379 35.412C50.8379 34.1045 49.7079 33.8174 49.123 33.8174H45.1747V34.7742H48.9635C49.6973 34.7742 49.8808 35.1994 49.8808 35.412C49.8409 36.236 49.7611 37.4054 49.801 38.3622C49.8393 39.2818 50.5587 42.1097 53.869 42.1097C56.5171 42.1097 57.6843 39.9568 57.9369 38.8804Z" fill="#65AAAF"/>
<path d="M57.9369 36.2492H56.9399V35.3722C56.9399 34.1284 58.163 33.8174 58.7744 33.8174H62.643V34.7742H58.8144C58.2081 34.7742 57.9768 35.1729 57.9369 35.3722V36.2492Z" fill="#65AAAF"/>
<path d="M58.0167 37.0067L57.0594 37.0465V37.9635H58.0167V37.0067Z" fill="#65AAAF"/>
<path d="M51.5956 35.133C51.692 33.3345 52.603 30.7628 53.1909 29.6712C54.0284 28.1164 54.5264 26.9564 55.9428 25.5251C58.1058 23.3393 61.0147 21.3248 60.0507 22.2162C58.4554 23.6913 57.3387 26.8008 56.8202 28.6746C56.5677 29.5871 56.264 31.4254 56.2219 33.3788C56.1824 35.2168 56.4196 37.0964 56.2219 38.2027C55.894 40.0383 54.4938 40.289 53.829 40.2758C53.1511 40.2359 51.7467 39.7694 51.5557 38.402C51.3165 36.6877 51.476 37.3655 51.5956 35.133Z" fill="white"/>
<path d="M49.8409 30.9672C49.8409 31.5396 49.3766 32.0038 48.804 32.0038C48.2313 32.0038 47.767 31.5396 47.767 30.9672C47.767 30.3947 48.2313 29.9307 48.804 29.9307C49.3766 29.9307 49.8409 30.3947 49.8409 30.9672Z" fill="#A7D7C5"/>
<path d="M53.0314 25.8244C53.0314 26.2427 52.6922 26.5818 52.2737 26.5818C51.8552 26.5818 51.516 26.2427 51.516 25.8244C51.516 25.406 51.8552 25.0669 52.2737 25.0669C52.6922 25.0669 53.0314 25.406 53.0314 25.8244Z" fill="#A7D7C5"/>
<path d="M60.8483 29.7313C60.8483 30.1497 60.5091 30.4888 60.0906 30.4888C59.672 30.4888 59.3328 30.1497 59.3328 29.7313C59.3328 29.313 59.672 28.9739 60.0906 28.9739C60.5091 28.9739 60.8483 29.313 60.8483 29.7313Z" fill="#A7D7C5"/>
<path d="M53.9487 22.1965C55.1504 22.1965 56.3085 22.383 57.3957 22.7285C57.26 22.8497 57.1203 22.9741 56.9745 23.102C56.682 23.3582 56.2978 23.7568 55.8958 24.2295C55.2673 24.0991 54.616 24.0304 53.9487 24.0304C48.6844 24.0304 44.4169 28.2963 44.4169 33.5585C44.4169 38.8208 48.6844 43.0867 53.9487 43.0867C59.2129 43.0867 63.4805 38.8208 63.4805 33.5585C63.4805 30.1687 61.7095 27.1925 59.0421 25.5036C59.3544 24.877 59.6673 24.3251 59.9357 23.8987C63.1648 25.9028 65.3151 29.4796 65.3151 33.5585C65.3151 39.8336 60.2261 44.9204 53.9487 44.9204C47.6712 44.9204 42.5823 39.8336 42.5823 33.5585C42.5823 27.2835 47.6712 22.1965 53.9487 22.1965Z" fill="white"/>
<path d="M46.1906 41.2074C46.523 40.7965 47.1257 40.7327 47.5367 41.065L48.1314 41.5455C48.5424 41.8778 48.6062 42.4801 48.2739 42.8911L46.9669 44.5068C46.9799 44.7357 46.9111 44.9698 46.7556 45.1621L42.7937 50.0606C42.4613 50.4715 41.8586 50.5353 41.4476 50.2031L40.4552 49.401C40.0441 49.0687 39.9802 48.4663 40.3126 48.0554L44.2746 43.1569C44.4353 42.9582 44.6594 42.8408 44.8943 42.8101L46.1906 41.2074Z" fill="white"/>
<path d="M75.3527 34.7606V34.4814C75.6692 34.4628 75.9067 34.4256 76.065 34.3697C76.2326 34.3139 76.3443 34.2022 76.4001 34.0347C76.456 33.8672 76.4839 33.6159 76.4839 33.2808V26.3566C76.4839 26.0123 76.456 25.761 76.4001 25.6028C76.3443 25.4352 76.2326 25.3236 76.065 25.2677C75.9067 25.2026 75.6692 25.1653 75.3527 25.156V24.8768C75.5669 24.8861 75.8368 24.8954 76.1627 24.9048C76.4886 24.9141 76.8098 24.9187 77.1263 24.9187C77.4894 24.9187 77.8293 24.9141 78.1458 24.9048C78.4623 24.8954 78.7184 24.8861 78.9139 24.8768V25.156C78.5974 25.1653 78.3553 25.2026 78.1877 25.2677C78.0294 25.3236 77.9224 25.4352 77.8665 25.6028C77.8107 25.761 77.7827 26.0123 77.7827 26.3566V33.2808C77.7827 33.6159 77.8107 33.8672 77.8665 34.0347C77.9224 34.2022 78.0294 34.3139 78.1877 34.3697C78.3553 34.4256 78.5974 34.4628 78.9139 34.4814V34.7606C78.7184 34.742 78.4623 34.7327 78.1458 34.7327C77.8293 34.7233 77.4894 34.7187 77.1263 34.7187C76.8098 34.7187 76.4886 34.7233 76.1627 34.7327C75.8368 34.7327 75.5669 34.742 75.3527 34.7606ZM69.5151 34.7606V34.4814C69.8317 34.4628 70.0691 34.4256 70.2274 34.3697C70.395 34.3139 70.5067 34.2022 70.5626 34.0347C70.6184 33.8672 70.6463 33.6159 70.6463 33.2808V26.3566C70.6463 26.0123 70.6184 25.761 70.5626 25.6028C70.5067 25.4352 70.395 25.3236 70.2274 25.2677C70.0691 25.2026 69.8317 25.1653 69.5151 25.156V24.8768C69.7107 24.8861 69.9667 24.8954 70.2832 24.9048C70.5998 24.9141 70.9396 24.9187 71.3027 24.9187C71.6286 24.9187 71.9498 24.9141 72.2663 24.9048C72.5922 24.8954 72.8622 24.8861 73.0763 24.8768V25.156C72.7598 25.1653 72.5177 25.2026 72.3501 25.2677C72.1918 25.3236 72.0848 25.4352 72.0289 25.6028C71.9731 25.761 71.9451 26.0123 71.9451 26.3566V33.2808C71.9451 33.6159 71.9731 33.8672 72.0289 34.0347C72.0848 34.2022 72.1918 34.3139 72.3501 34.3697C72.5177 34.4256 72.7598 34.4628 73.0763 34.4814V34.7606C72.8622 34.742 72.5922 34.7327 72.2663 34.7327C71.9498 34.7233 71.6286 34.7187 71.3027 34.7187C70.9396 34.7187 70.5998 34.7233 70.2832 34.7327C69.9667 34.7327 69.7107 34.742 69.5151 34.7606ZM71.4563 29.9304V29.6512H76.9727V29.9304H71.4563Z" fill="white"/>
<path d="M81.8181 34.8584C81.4364 34.8584 81.1058 34.7886 80.8265 34.649C80.5472 34.5 80.3331 34.2953 80.1841 34.0347C80.0444 33.7741 79.9746 33.4716 79.9746 33.1273C79.9746 32.7178 80.0678 32.3828 80.2539 32.1222C80.4494 31.8616 80.6962 31.6522 80.9941 31.494C81.2921 31.3357 81.604 31.2055 81.9298 31.1031C82.265 30.9914 82.5816 30.889 82.8794 30.796C83.1774 30.6936 83.4195 30.5773 83.6056 30.447C83.8012 30.3167 83.8989 30.1445 83.8989 29.9304V29.0649C83.8989 28.674 83.8385 28.3762 83.7174 28.1715C83.6056 27.9667 83.452 27.8318 83.2565 27.7666C83.061 27.6922 82.8422 27.6549 82.6001 27.6549C82.3674 27.6549 82.116 27.6875 81.846 27.7527C81.5853 27.8178 81.3758 27.9528 81.2175 28.1575C81.3945 28.1947 81.5481 28.2878 81.6784 28.4367C81.8088 28.5856 81.8739 28.7764 81.8739 29.0091C81.8739 29.2417 81.7995 29.4279 81.6505 29.5675C81.5015 29.6978 81.3107 29.7629 81.0779 29.7629C80.808 29.7629 80.6077 29.6792 80.4774 29.5116C80.3564 29.3348 80.2958 29.1394 80.2958 28.9253C80.2958 28.6833 80.3564 28.4879 80.4774 28.339C80.5985 28.1901 80.7521 28.0505 80.9382 27.9202C81.1524 27.7713 81.427 27.6456 81.7622 27.5433C82.1067 27.4316 82.4931 27.3757 82.9213 27.3757C83.3031 27.3757 83.629 27.4223 83.8989 27.5153C84.169 27.5991 84.3924 27.7247 84.5693 27.8923C84.8114 28.1156 84.9697 28.3902 85.0441 28.7159C85.1186 29.0323 85.1558 29.4139 85.1558 29.8606V33.7416C85.1558 33.9742 85.1884 34.1417 85.2536 34.2441C85.3281 34.3464 85.4398 34.3977 85.5887 34.3977C85.6912 34.3977 85.789 34.3744 85.882 34.3279C85.9752 34.2813 86.0869 34.2068 86.2172 34.1045L86.3708 34.3419C86.1753 34.4907 85.9892 34.6164 85.8122 34.7188C85.6353 34.8118 85.3979 34.8584 85.1 34.8584C84.83 34.8584 84.6066 34.8118 84.4296 34.7188C84.2527 34.6256 84.1178 34.4907 84.0246 34.3139C83.9408 34.1278 83.8989 33.8951 83.8989 33.6159C83.6475 34.0347 83.345 34.3464 82.9912 34.5513C82.6467 34.756 82.2557 34.8584 81.8181 34.8584ZM82.3208 34.3C82.6281 34.3 82.9121 34.2115 83.1727 34.0347C83.4427 33.8578 83.6848 33.5926 83.8989 33.239V30.5028C83.7872 30.661 83.6243 30.796 83.4101 30.9076C83.1961 31.01 82.9632 31.117 82.7119 31.2287C82.4605 31.3311 82.2185 31.4567 81.9856 31.6056C81.7622 31.7452 81.5761 31.9314 81.427 32.1641C81.2781 32.3967 81.2036 32.6992 81.2036 33.0715C81.2036 33.4437 81.3013 33.7416 81.4969 33.9649C81.7017 34.1883 81.9764 34.3 82.3208 34.3Z" fill="white"/>
<path d="M88.3825 24.0812C88.6246 24.0812 88.8341 24.1696 89.011 24.3464C89.1878 24.5232 89.2763 24.7326 89.2763 24.9746C89.2763 25.2166 89.1878 25.426 89.011 25.6028C88.8341 25.7797 88.6246 25.8681 88.3825 25.8681C88.1404 25.8681 87.931 25.7797 87.7541 25.6028C87.5772 25.426 87.4887 25.2166 87.4887 24.9746C87.4887 24.7326 87.5772 24.5232 87.7541 24.3464C87.931 24.1696 88.1404 24.0812 88.3825 24.0812ZM89.1087 27.4176V33.4624C89.1087 33.8533 89.1878 34.1185 89.3462 34.2581C89.5137 34.3977 89.7884 34.4675 90.1701 34.4675V34.7607C90.0118 34.7513 89.7698 34.742 89.4439 34.7328C89.1274 34.7141 88.8062 34.7049 88.4803 34.7049C88.1638 34.7049 87.8426 34.7141 87.5167 34.7328C87.1908 34.742 86.9488 34.7513 86.7905 34.7607V34.4675C87.1722 34.4675 87.4422 34.3977 87.6005 34.2581C87.7681 34.1185 87.8518 33.8533 87.8518 33.4624V29.0929C87.8518 28.6741 87.7773 28.3669 87.6284 28.1715C87.4795 27.9667 87.2002 27.8644 86.7905 27.8644V27.5712C87.0884 27.5991 87.377 27.6131 87.6563 27.6131C87.9264 27.6131 88.1823 27.5991 88.4244 27.5712C88.6758 27.534 88.9039 27.4828 89.1087 27.4176Z" fill="white"/>
<path d="M95.2252 27.3757C95.4766 27.3757 95.6954 27.4269 95.8816 27.5293C96.0771 27.6317 96.2261 27.7666 96.3285 27.9341C96.4402 28.0924 96.4961 28.2738 96.4961 28.4786C96.4961 28.7112 96.4216 28.916 96.2727 29.0928C96.133 29.2697 95.9421 29.3581 95.7001 29.3581C95.5045 29.3581 95.3323 29.2976 95.1833 29.1766C95.0343 29.0463 94.9599 28.8648 94.9599 28.6321C94.9599 28.4553 95.0064 28.3064 95.0995 28.1854C95.2019 28.0551 95.3136 27.9528 95.4347 27.8783C95.3695 27.7852 95.2717 27.7387 95.1414 27.7387C94.8528 27.7387 94.5874 27.8271 94.3454 28.0039C94.1033 28.1715 93.8985 28.3902 93.7309 28.6601C93.5633 28.93 93.433 29.2185 93.3399 29.5256C93.2467 29.8234 93.2002 30.1026 93.2002 30.3632V33.3228C93.2002 33.7788 93.3305 34.0859 93.5913 34.2441C93.8612 34.393 94.2243 34.4675 94.6806 34.4675V34.7607C94.4664 34.7513 94.1639 34.742 93.7728 34.7327C93.3818 34.7141 92.9674 34.7048 92.5299 34.7048C92.2133 34.7048 91.8968 34.7141 91.5802 34.7327C91.273 34.742 91.0402 34.7513 90.882 34.7607V34.4675C91.2636 34.4675 91.5336 34.3977 91.692 34.2581C91.8595 34.1185 91.9433 33.8533 91.9433 33.4624V29.0928C91.9433 28.674 91.8688 28.3669 91.7199 28.1715C91.5709 27.9667 91.2915 27.8643 90.882 27.8643V27.5712C91.1798 27.5991 91.4685 27.6131 91.7478 27.6131C92.0178 27.6131 92.2738 27.5991 92.5159 27.5712C92.7673 27.534 92.9953 27.4828 93.2002 27.4176V29.1626C93.3026 28.8927 93.4469 28.6228 93.6332 28.3529C93.8287 28.0737 94.0614 27.8411 94.3314 27.6549C94.6014 27.4688 94.8993 27.3757 95.2252 27.3757Z" fill="white"/>
<path d="M77.1961 37.3413C77.1589 37.6949 77.131 38.0393 77.1124 38.3744C77.1031 38.7 77.0984 38.9513 77.0984 39.1282C77.0984 39.3516 77.1031 39.561 77.1124 39.7564C77.1216 39.9519 77.131 40.124 77.1403 40.2729H76.8191C76.7539 39.6214 76.6655 39.1096 76.5537 38.7373C76.442 38.3557 76.2465 38.0812 75.9672 37.9137C75.6879 37.7462 75.2549 37.6624 74.6684 37.6624H73.9142V45.6057C73.9142 45.9779 73.9469 46.2571 74.012 46.4433C74.0865 46.6294 74.2262 46.755 74.431 46.8202C74.6358 46.8853 74.9337 46.9272 75.3248 46.9459V47.2251C75.0827 47.2064 74.7754 47.1971 74.403 47.1971C74.0307 47.1878 73.6536 47.1832 73.2718 47.1832C72.8529 47.1832 72.4571 47.1878 72.0848 47.1971C71.7217 47.1971 71.4284 47.2064 71.2049 47.2251V46.9459C71.596 46.9272 71.8939 46.8853 72.0987 46.8202C72.3035 46.755 72.4386 46.6294 72.5037 46.4433C72.5782 46.2571 72.6155 45.9779 72.6155 45.6057V37.6624H71.8613C71.284 37.6624 70.8511 37.7462 70.5625 37.9137C70.2832 38.0812 70.0877 38.3557 69.976 38.7373C69.8642 39.1096 69.7758 39.6214 69.7106 40.2729H69.3894C69.4081 40.124 69.4173 39.9519 69.4173 39.7564C69.4266 39.561 69.4313 39.3516 69.4313 39.1282C69.4313 38.9513 69.422 38.7 69.4034 38.3744C69.3941 38.0393 69.3708 37.6949 69.3336 37.3413C69.7246 37.3506 70.1482 37.3599 70.6044 37.3692C71.07 37.3785 71.5354 37.3832 72.001 37.3832C72.4665 37.3832 72.8901 37.3832 73.2718 37.3832C73.6536 37.3832 74.0726 37.3832 74.5287 37.3832C74.9943 37.3832 75.4597 37.3785 75.9253 37.3692C76.3908 37.3599 76.8144 37.3506 77.1961 37.3413Z" fill="white"/>
<path d="M80.1183 36.2943V41.5154C80.3603 40.8825 80.6954 40.4451 81.1238 40.2031C81.5613 39.9611 82.0176 39.8402 82.4924 39.8402C82.8461 39.8402 83.1394 39.8866 83.3722 39.9798C83.6142 40.0728 83.8144 40.2031 83.9727 40.3707C84.1496 40.5567 84.2753 40.7895 84.3498 41.0687C84.4242 41.3479 84.4615 41.7248 84.4615 42.1994V45.9268C84.4615 46.3177 84.5406 46.5829 84.6989 46.7225C84.8665 46.8621 85.1412 46.9319 85.5229 46.9319V47.2251C85.3646 47.2157 85.1225 47.2064 84.7967 47.1972C84.4708 47.1785 84.1543 47.1692 83.8471 47.1692C83.5398 47.1692 83.2372 47.1785 82.9393 47.1972C82.6506 47.2064 82.4318 47.2157 82.2829 47.2251V46.9319C82.6181 46.9319 82.8555 46.8621 82.9952 46.7225C83.1348 46.5829 83.2046 46.3177 83.2046 45.9268V41.8923C83.2046 41.6037 83.1813 41.3385 83.1348 41.0966C83.0882 40.8546 82.9812 40.6591 82.8136 40.5103C82.6553 40.3613 82.4086 40.2869 82.0734 40.2869C81.6917 40.2869 81.3518 40.3939 81.054 40.608C80.7653 40.822 80.5372 41.1198 80.3696 41.5014C80.2021 41.8829 80.1183 42.3204 80.1183 42.8137V45.9268C80.1183 46.3177 80.1881 46.5829 80.3277 46.7225C80.4674 46.8621 80.7048 46.9319 81.04 46.9319V47.2251C80.891 47.2157 80.6675 47.2064 80.3696 47.1972C80.081 47.1785 79.7831 47.1692 79.4758 47.1692C79.1686 47.1692 78.852 47.1785 78.5262 47.1972C78.2003 47.2064 77.9582 47.2157 77.8 47.2251V46.9319C78.1816 46.9319 78.4517 46.8621 78.61 46.7225C78.7776 46.5829 78.8614 46.3177 78.8614 45.9268V37.9695C78.8614 37.5507 78.7869 37.2436 78.6379 37.0482C78.4889 36.8433 78.2096 36.741 77.8 36.741V36.4479C78.0979 36.4758 78.3865 36.4898 78.6658 36.4898C78.9358 36.4898 79.1918 36.4758 79.434 36.4479C79.6853 36.4106 79.9134 36.3594 80.1183 36.2943Z" fill="white"/>
<path d="M89.5294 39.8401C90.3488 39.8401 90.9865 40.0914 91.4428 40.5939C91.9082 41.0871 92.141 41.8596 92.141 42.9113H87.2111L87.1971 42.6461H90.8002C90.8189 42.19 90.7817 41.7712 90.6885 41.3897C90.5954 40.9988 90.4465 40.687 90.2417 40.4543C90.0462 40.2216 89.7901 40.1053 89.4735 40.1053C89.0453 40.1053 88.6635 40.3193 88.3283 40.7475C88.0025 41.1756 87.807 41.8549 87.7418 42.7857L87.7837 42.8415C87.7651 42.9811 87.7512 43.1347 87.7418 43.3022C87.7325 43.4697 87.7278 43.6372 87.7278 43.8048C87.7278 44.4376 87.8303 44.982 88.0351 45.4381C88.24 45.8941 88.5053 46.2431 88.8311 46.4851C89.1663 46.7177 89.5108 46.8341 89.8645 46.8341C90.1439 46.8341 90.4092 46.7922 90.6606 46.7085C90.912 46.6153 91.1448 46.4665 91.3589 46.2617C91.573 46.0569 91.7593 45.7824 91.9176 45.4381L92.1969 45.5498C92.0944 45.8569 91.9269 46.1546 91.694 46.4432C91.4613 46.7317 91.168 46.969 90.8142 47.1552C90.4605 47.332 90.0508 47.4204 89.5852 47.4204C88.9149 47.4204 88.3377 47.2669 87.8535 46.9597C87.3787 46.6526 87.011 46.2291 86.7503 45.6894C86.499 45.1402 86.3732 44.512 86.3732 43.8048C86.3732 42.9857 86.5035 42.2831 86.7642 41.6968C87.025 41.1011 87.3926 40.6451 87.8675 40.3287C88.3423 40.0029 88.8963 39.8401 89.5294 39.8401Z" fill="white"/>
<path d="M97.5437 39.8401C97.7951 39.8401 98.0139 39.8912 98.2001 39.9936C98.3956 40.096 98.5445 40.231 98.647 40.3985C98.7587 40.5566 98.8146 40.7381 98.8146 40.9429C98.8146 41.1756 98.7401 41.3803 98.5911 41.5572C98.4515 41.734 98.2605 41.8224 98.0185 41.8224C97.823 41.8224 97.6508 41.7619 97.5018 41.6409C97.3528 41.5106 97.2784 41.3291 97.2784 41.0965C97.2784 40.9196 97.3249 40.7707 97.418 40.6498C97.5204 40.5194 97.6322 40.417 97.7532 40.3427C97.6881 40.2495 97.5902 40.2031 97.4599 40.2031C97.1713 40.2031 96.9059 40.2914 96.6639 40.4683C96.4218 40.6358 96.217 40.8545 96.0494 41.1244C95.8818 41.3942 95.7514 41.6828 95.6584 41.9899C95.5652 42.2877 95.5187 42.5669 95.5187 42.8276V45.7871C95.5187 46.2431 95.649 46.5502 95.9098 46.7085C96.1797 46.8573 96.5428 46.9318 96.9991 46.9318V47.225C96.7849 47.2156 96.4823 47.2063 96.0913 47.1971C95.7003 47.1784 95.2859 47.1691 94.8484 47.1691C94.5318 47.1691 94.2152 47.1784 93.8987 47.1971C93.5915 47.2063 93.3586 47.2156 93.2004 47.225V46.9318C93.5821 46.9318 93.8521 46.862 94.0104 46.7224C94.178 46.5828 94.2618 46.3176 94.2618 45.9267V41.5572C94.2618 41.1384 94.1873 40.8313 94.0384 40.6358C93.8893 40.431 93.61 40.3287 93.2004 40.3287V40.0355C93.4984 40.0635 93.787 40.0774 94.0663 40.0774C94.3362 40.0774 94.5923 40.0635 94.8344 40.0355C95.0858 39.9982 95.3138 39.9471 95.5187 39.882V41.627C95.6211 41.3571 95.7654 41.0871 95.9516 40.8173C96.1472 40.5381 96.3799 40.3054 96.6499 40.1193C96.9199 39.9331 97.2178 39.8401 97.5437 39.8401Z" fill="white"/>
<path d="M101.403 47.3227C101.021 47.3227 100.69 47.2529 100.411 47.1133C100.132 46.9643 99.9176 46.7596 99.7686 46.4991C99.629 46.2384 99.5591 45.936 99.5591 45.5917C99.5591 45.1821 99.6522 44.8471 99.8385 44.5865C100.034 44.3259 100.281 44.1165 100.579 43.9583C100.876 43.8001 101.188 43.6697 101.514 43.5674C101.849 43.4558 102.166 43.3534 102.464 43.2603C102.762 43.1579 103.004 43.0415 103.19 42.9113C103.386 42.781 103.483 42.6088 103.483 42.3948V41.5293C103.483 41.1384 103.423 40.8405 103.302 40.6358C103.19 40.431 103.037 40.2961 102.841 40.231C102.646 40.1565 102.427 40.1193 102.185 40.1193C101.952 40.1193 101.7 40.1518 101.431 40.217C101.17 40.2821 100.96 40.417 100.802 40.6219C100.979 40.659 101.133 40.7521 101.263 40.9011C101.393 41.0499 101.458 41.2407 101.458 41.4734C101.458 41.7061 101.384 41.8922 101.235 42.0318C101.086 42.1621 100.895 42.2273 100.662 42.2273C100.392 42.2273 100.192 42.1435 100.062 41.976C99.9408 41.7991 99.8803 41.6036 99.8803 41.3897C99.8803 41.1477 99.9408 40.9522 100.062 40.8033C100.183 40.6544 100.337 40.5148 100.523 40.3845C100.737 40.2356 101.012 40.1099 101.347 40.0076C101.691 39.8959 102.078 39.8401 102.506 39.8401C102.888 39.8401 103.213 39.8866 103.483 39.9797C103.753 40.0635 103.977 40.1891 104.154 40.3566C104.396 40.58 104.554 40.8545 104.629 41.1803C104.703 41.4967 104.74 41.8783 104.74 42.325V46.2059C104.74 46.4385 104.773 46.6061 104.838 46.7085C104.913 46.8108 105.024 46.862 105.173 46.862C105.276 46.862 105.373 46.8387 105.467 46.7922C105.56 46.7457 105.671 46.6712 105.802 46.5689L105.955 46.8062C105.76 46.9551 105.574 47.0807 105.397 47.1831C105.22 47.2761 104.982 47.3227 104.684 47.3227C104.414 47.3227 104.191 47.2761 104.014 47.1831C103.837 47.09 103.702 46.9551 103.609 46.7783C103.525 46.5921 103.483 46.3595 103.483 46.0803C103.232 46.4991 102.929 46.8108 102.576 47.0156C102.231 47.2203 101.84 47.3227 101.403 47.3227ZM101.905 46.7643C102.213 46.7643 102.496 46.6759 102.757 46.4991C103.027 46.3222 103.269 46.0569 103.483 45.7033V42.9672C103.372 43.1253 103.209 43.2603 102.995 43.372C102.78 43.4743 102.548 43.5814 102.296 43.6931C102.045 43.7954 101.803 43.921 101.57 44.07C101.347 44.2096 101.16 44.3957 101.012 44.6284C100.863 44.861 100.788 45.1635 100.788 45.5358C100.788 45.9081 100.886 46.2059 101.081 46.4293C101.286 46.6526 101.561 46.7643 101.905 46.7643Z" fill="white"/>
<path d="M108.595 39.882V48.4535C108.595 48.8536 108.712 49.1189 108.945 49.2492C109.187 49.3888 109.517 49.4586 109.936 49.4586V49.7518C109.731 49.7424 109.447 49.7284 109.084 49.7099C108.721 49.7005 108.335 49.6959 107.925 49.6959C107.636 49.6959 107.348 49.7005 107.059 49.7099C106.78 49.7284 106.566 49.7424 106.417 49.7518V49.4586C106.752 49.4586 106.989 49.3981 107.129 49.2771C107.269 49.1561 107.339 48.9281 107.339 48.5931V41.5572C107.339 41.1384 107.264 40.8313 107.115 40.6358C106.966 40.431 106.687 40.3287 106.277 40.3287V40.0355C106.575 40.0635 106.864 40.0774 107.143 40.0774C107.413 40.0774 107.669 40.0635 107.911 40.0355C108.163 39.9982 108.391 39.9471 108.595 39.882ZM110.83 39.8401C111.323 39.8401 111.766 39.975 112.157 40.2449C112.548 40.5055 112.855 40.8917 113.078 41.4036C113.311 41.9155 113.428 42.5484 113.428 43.3022C113.428 43.8048 113.367 44.3026 113.246 44.7959C113.125 45.2798 112.934 45.7219 112.673 46.1221C112.422 46.513 112.092 46.8294 111.682 47.0714C111.282 47.3041 110.797 47.4204 110.229 47.4204C109.792 47.4204 109.41 47.318 109.084 47.1133C108.768 46.9085 108.554 46.6619 108.442 46.3734L108.581 46.178C108.712 46.4385 108.898 46.6572 109.14 46.8341C109.391 47.0109 109.703 47.0993 110.076 47.0993C110.597 47.0993 111.002 46.9364 111.291 46.6107C111.579 46.285 111.78 45.8522 111.891 45.3125C112.012 44.7633 112.073 44.1584 112.073 43.4976C112.073 42.7531 112.012 42.1435 111.891 41.6689C111.77 41.1942 111.589 40.8405 111.347 40.6079C111.105 40.3752 110.807 40.2589 110.453 40.2589C109.997 40.2589 109.582 40.4496 109.21 40.8313C108.838 41.2035 108.6 41.7712 108.498 42.5344L108.33 42.3389C108.433 41.5478 108.712 40.9336 109.168 40.4962C109.634 40.0588 110.188 39.8401 110.83 39.8401Z" fill="white"/>
<path d="M120.834 40.0355V40.3147C120.657 40.3333 120.494 40.4124 120.345 40.552C120.196 40.6916 120.056 40.9382 119.926 41.2919L117.636 47.2948H117.398L114.828 41.1105C114.652 40.7475 114.475 40.5287 114.298 40.4543C114.13 40.3706 113.991 40.3287 113.879 40.3287V40.0355C114.084 40.0634 114.298 40.0867 114.521 40.1053C114.745 40.1146 114.987 40.1193 115.247 40.1193C115.536 40.1193 115.839 40.1099 116.155 40.0914C116.481 40.0727 116.784 40.0541 117.063 40.0355V40.3287C116.83 40.3287 116.621 40.3472 116.434 40.3845C116.258 40.4124 116.146 40.5102 116.099 40.6777C116.053 40.8358 116.109 41.1105 116.267 41.5013L117.985 45.7592L117.901 45.7871L119.493 41.627C119.614 41.3199 119.661 41.0778 119.633 40.901C119.614 40.7149 119.521 40.5753 119.353 40.4822C119.186 40.3891 118.934 40.3333 118.599 40.3147V40.0355C118.767 40.0448 118.911 40.0541 119.032 40.0634C119.153 40.0634 119.269 40.068 119.381 40.0774C119.502 40.0774 119.633 40.0774 119.772 40.0774C119.986 40.0774 120.177 40.0727 120.345 40.0634C120.522 40.0541 120.685 40.0448 120.834 40.0355ZM117.636 47.2948L117.161 48.5093C117.068 48.742 116.97 48.9374 116.867 49.0956C116.774 49.2538 116.672 49.3841 116.56 49.4865C116.411 49.6261 116.234 49.7192 116.029 49.7657C115.825 49.8216 115.638 49.8495 115.471 49.8495C115.294 49.8495 115.131 49.8169 114.982 49.7518C114.842 49.6866 114.731 49.5888 114.647 49.4586C114.563 49.3375 114.521 49.1887 114.521 49.0119C114.521 48.7885 114.586 48.607 114.717 48.4674C114.847 48.3371 115.029 48.272 115.261 48.272C115.457 48.272 115.624 48.3278 115.764 48.4395C115.904 48.5512 115.974 48.714 115.974 48.9281C115.974 49.0863 115.936 49.2166 115.862 49.319C115.787 49.4213 115.699 49.5005 115.597 49.5563C115.615 49.5656 115.629 49.5703 115.638 49.5703C115.657 49.5703 115.671 49.5703 115.68 49.5703C115.932 49.5703 116.155 49.4818 116.351 49.305C116.546 49.1375 116.718 48.8629 116.867 48.4814L117.37 47.1831L117.636 47.2948Z" fill="white"/>
<path d="M41.4265 56.5981C41.7938 56.5981 42.0796 56.5324 42.2837 56.4009C42.4878 56.2649 42.5898 56.0473 42.5898 55.748C42.5898 55.5757 42.5558 55.4329 42.4878 55.3196C42.4243 55.2017 42.3381 55.1043 42.2292 55.0272C42.1204 54.9455 41.9957 54.8775 41.8551 54.8232C41.7145 54.7643 41.5671 54.703 41.4129 54.6395C41.2178 54.5624 41.0432 54.4832 40.889 54.4015C40.7348 54.3199 40.6033 54.2293 40.4944 54.1295C40.3856 54.0253 40.3017 53.9073 40.2427 53.7759C40.1883 53.6444 40.1611 53.4902 40.1611 53.3134C40.1611 52.91 40.2949 52.6039 40.5624 52.3953C40.83 52.1868 41.202 52.0825 41.6782 52.0825C41.8052 52.0825 41.9299 52.0916 42.0524 52.1097C42.1748 52.1279 42.2882 52.1528 42.3925 52.1845C42.5014 52.2118 42.5989 52.2435 42.685 52.2798C42.7758 52.3161 42.8506 52.3545 42.9096 52.3953L42.7463 52.783C42.6148 52.6923 42.4537 52.6198 42.2633 52.5653C42.0773 52.511 41.8755 52.4838 41.6578 52.4838C41.5081 52.4838 41.3698 52.4996 41.2428 52.5313C41.1203 52.5586 41.0137 52.6061 40.923 52.6741C40.8323 52.7376 40.7597 52.8192 40.7053 52.919C40.6554 53.0187 40.6305 53.1389 40.6305 53.2794C40.6305 53.4245 40.6577 53.5469 40.7121 53.6467C40.7665 53.7464 40.8414 53.8325 40.9366 53.9051C41.0364 53.9776 41.1521 54.0433 41.2836 54.1022C41.4151 54.1613 41.558 54.2224 41.7122 54.2859C41.8981 54.363 42.0728 54.4401 42.236 54.5172C42.4039 54.5942 42.549 54.6849 42.6714 54.7892C42.7939 54.8934 42.8914 55.0204 42.964 55.17C43.0366 55.3196 43.0728 55.5032 43.0728 55.7208C43.0728 56.147 42.9232 56.4666 42.6238 56.6797C42.329 56.8928 41.9276 56.9994 41.4197 56.9994C41.2382 56.9994 41.0727 56.988 40.923 56.9654C40.7733 56.9426 40.6396 56.9155 40.5216 56.8837C40.4037 56.8475 40.3039 56.8112 40.2223 56.7749C40.1407 56.7386 40.0772 56.7069 40.0318 56.6797L40.1815 56.2784C40.2268 56.3057 40.2881 56.3375 40.3652 56.3737C40.4423 56.41 40.533 56.4463 40.6373 56.4825C40.7416 56.5143 40.8595 56.5415 40.9911 56.5641C41.1226 56.5867 41.2677 56.5981 41.4265 56.5981Z" fill="white"/>
<path d="M45.7846 52.1438C46.4513 52.1438 46.948 52.2707 47.2745 52.5246C47.6011 52.7785 47.7643 53.139 47.7643 53.6059C47.7643 53.8734 47.7167 54.1023 47.6215 54.2928C47.5262 54.4786 47.3902 54.6305 47.2133 54.7484C47.0364 54.8617 46.8187 54.9456 46.5602 55C46.3062 55.0499 46.0182 55.0748 45.6962 55.0748H45.0567V56.8974H44.5941V52.273C44.7573 52.2277 44.9478 52.196 45.1655 52.1778C45.3878 52.1552 45.5941 52.1438 45.7846 52.1438ZM45.805 52.5451C45.6327 52.5451 45.4853 52.5518 45.3628 52.5654C45.2449 52.5745 45.1429 52.5835 45.0567 52.5926V54.6736H45.6417C45.8912 54.6736 46.1157 54.66 46.3153 54.6328C46.5194 54.6011 46.6917 54.5466 46.8323 54.4696C46.9774 54.388 47.0886 54.2769 47.1657 54.1363C47.2428 53.9958 47.2813 53.8167 47.2813 53.5991C47.2813 53.3905 47.2382 53.2183 47.1521 53.0823C47.0704 52.9462 46.9593 52.8397 46.8187 52.7626C46.6826 52.6811 46.5262 52.6243 46.3493 52.5926C46.1724 52.5609 45.991 52.5451 45.805 52.5451Z" fill="white"/>
<path d="M52.1914 56.8974C52.1052 56.6662 52.0236 56.444 51.9465 56.2309C51.8694 56.0178 51.7946 55.8093 51.722 55.6053H49.4293C49.3522 55.8093 49.2751 56.0178 49.198 56.2309C49.1209 56.444 49.0415 56.6662 48.9599 56.8974H48.4769C48.6583 56.4077 48.8284 55.9521 48.9871 55.5305C49.1458 55.1043 49.3001 54.7031 49.4497 54.3267C49.6039 53.9459 49.7559 53.581 49.9055 53.2319C50.0552 52.8828 50.214 52.5337 50.3818 52.1846H50.79C50.9578 52.5337 51.1165 52.8828 51.2662 53.2319C51.4158 53.581 51.5656 53.9459 51.7152 54.3267C51.8694 54.7031 52.0259 55.1043 52.1846 55.5305C52.3433 55.9521 52.5157 56.4077 52.7016 56.8974H52.1914ZM50.5722 52.7151C50.3999 53.1049 50.232 53.5016 50.0688 53.9052C49.9101 54.3086 49.7445 54.7439 49.5722 55.2108H51.5791C51.4067 54.7439 51.239 54.3086 51.0757 53.9052C50.9124 53.5016 50.7446 53.1049 50.5722 52.7151Z" fill="white"/>
<path d="M59.2542 52.1846V52.5858H57.7439V56.8974H57.2813V52.5858H55.7709V52.1846H59.2542Z" fill="white"/>
<path d="M63.7978 53.5991C63.7978 53.9527 63.7048 54.2315 63.5189 54.4356C63.3329 54.6396 63.088 54.7869 62.7842 54.8776C62.8567 54.9683 62.9497 55.0907 63.0631 55.2448C63.181 55.399 63.3012 55.569 63.4236 55.7549C63.5461 55.9363 63.6663 56.1266 63.7842 56.3261C63.9021 56.5256 64.0019 56.716 64.0836 56.8974H63.5869C63.4916 56.716 63.3874 56.5347 63.274 56.3534C63.1651 56.172 63.0517 55.9975 62.9338 55.8297C62.8204 55.6575 62.7093 55.4987 62.6004 55.3536C62.4916 55.2085 62.3963 55.0816 62.3147 54.9728C62.1696 54.9865 62.0244 54.9933 61.8793 54.9933H61.1174V56.8974H60.6547V52.273C60.818 52.2277 61.0084 52.196 61.2262 52.1778C61.4485 52.1552 61.6526 52.1438 61.8385 52.1438C62.4871 52.1438 62.9746 52.2661 63.3012 52.511C63.6323 52.7558 63.7978 53.1185 63.7978 53.5991ZM61.8929 52.5451C61.7206 52.5451 61.5686 52.5518 61.4371 52.5654C61.3101 52.5745 61.2035 52.5835 61.1174 52.5926V54.5988H61.7568C61.97 54.5988 62.1719 54.5897 62.3623 54.5716C62.5528 54.5489 62.7183 54.5036 62.859 54.4356C62.9995 54.3631 63.1107 54.261 63.1924 54.1295C63.274 53.9981 63.3148 53.819 63.3148 53.5924C63.3148 53.3838 63.274 53.2114 63.1924 53.0754C63.1107 52.9394 63.0041 52.8329 62.8725 52.7559C62.7411 52.6742 62.5891 52.6198 62.4168 52.5926C62.2489 52.5609 62.0743 52.5451 61.8929 52.5451Z" fill="white"/>
<path d="M66.5691 56.8974V54.9592C66.2471 54.4651 65.95 53.989 65.6779 53.5311C65.4103 53.0686 65.1608 52.6198 64.9296 52.1846H65.4669C65.6575 52.5835 65.8661 52.9893 66.0929 53.4019C66.3242 53.8099 66.5645 54.1998 66.814 54.5715C67.0544 54.1998 67.2902 53.8099 67.5216 53.4019C67.7529 52.9893 67.966 52.5835 68.1611 52.1846H68.6644C68.4241 52.6152 68.1701 53.0642 67.9025 53.5311C67.6349 53.9935 67.3447 54.4651 67.0317 54.9456V56.8974H66.5691Z" fill="white"/>
<path d="M71.7672 56.9994C71.4633 56.9994 71.1798 56.9449 70.9168 56.8361C70.6582 56.7273 70.4315 56.5686 70.2364 56.3601C70.0459 56.1515 69.894 55.8954 69.7806 55.5916C69.6717 55.2834 69.6174 54.932 69.6174 54.5375C69.6174 54.1431 69.6763 53.794 69.7942 53.4902C69.9166 53.182 70.0776 52.9235 70.2772 52.715C70.4768 52.5064 70.7081 52.3501 70.9711 52.2458C71.2342 52.137 71.5086 52.0825 71.7944 52.0825C71.9713 52.0825 72.1323 52.0939 72.2774 52.1165C72.4225 52.1392 72.5495 52.1687 72.6584 52.205C72.7672 52.2367 72.8602 52.2707 72.9373 52.307C73.0144 52.3387 73.0733 52.3681 73.1141 52.3953L72.9645 52.7966C72.8511 52.7286 72.7059 52.6629 72.5291 52.5993C72.3567 52.5313 72.1413 52.4973 71.8828 52.4973C71.588 52.4973 71.3294 52.5472 71.1072 52.647C70.8895 52.7467 70.7059 52.8872 70.5562 53.0686C70.4065 53.25 70.2931 53.4653 70.216 53.7147C70.1435 53.964 70.1072 54.2406 70.1072 54.5444C70.1072 54.8572 70.1435 55.1405 70.216 55.3944C70.2931 55.6437 70.4042 55.8568 70.5494 56.0336C70.6945 56.2104 70.8714 56.3465 71.0801 56.4417C71.2932 56.5369 71.5358 56.5845 71.808 56.5845C72.1073 56.5845 72.3567 56.5573 72.5563 56.5029C72.7604 56.444 72.9146 56.385 73.019 56.3261L73.1482 56.7206C73.1164 56.7432 73.0621 56.7704 72.985 56.8021C72.9078 56.8294 72.8103 56.8588 72.6924 56.8905C72.5745 56.9223 72.4384 56.9472 72.2842 56.9654C72.13 56.988 71.9576 56.9994 71.7672 56.9994Z" fill="white"/>
<path d="M77.6409 52.1846H78.1035V56.8974H77.6409V54.6328H75.0829V56.8974H74.6202V52.1846H75.0829V54.2315H77.6409V52.1846Z" fill="white"/>
<path d="M84.229 54.5375C84.229 54.9411 84.17 55.2969 84.052 55.6053C83.9341 55.9135 83.7731 56.1719 83.569 56.3805C83.3695 56.5845 83.1359 56.7386 82.8683 56.8429C82.6007 56.9472 82.3172 56.9994 82.0179 56.9994C81.7186 56.9994 81.4351 56.9472 81.1675 56.8429C80.8999 56.7386 80.6641 56.5845 80.46 56.3805C80.2604 56.1719 80.1017 55.9135 79.9837 55.6053C79.8658 55.2969 79.8069 54.9411 79.8069 54.5375C79.8069 54.1341 79.8658 53.7804 79.9837 53.4766C80.1017 53.1683 80.2604 52.9121 80.46 52.7082C80.6641 52.4996 80.8999 52.3432 81.1675 52.239C81.4351 52.1347 81.7186 52.0825 82.0179 52.0825C82.3172 52.0825 82.6007 52.1347 82.8683 52.239C83.1359 52.3432 83.3695 52.4996 83.569 52.7082C83.7731 52.9121 83.9341 53.1683 84.052 53.4766C84.17 53.7804 84.229 54.1341 84.229 54.5375ZM83.7391 54.5375C83.7391 54.2202 83.6983 53.9368 83.6167 53.6874C83.535 53.4336 83.4194 53.2182 83.2696 53.0414C83.12 52.8646 82.9386 52.7309 82.7254 52.6401C82.5168 52.545 82.281 52.4973 82.0179 52.4973C81.7549 52.4973 81.5168 52.545 81.3036 52.6401C81.0949 52.7309 80.9157 52.8646 80.7661 53.0414C80.6164 53.2182 80.5008 53.4336 80.4192 53.6874C80.3375 53.9368 80.2967 54.2202 80.2967 54.5375C80.2967 54.8549 80.3375 55.1405 80.4192 55.3944C80.5008 55.6437 80.6164 55.8568 80.7661 56.0336C80.9157 56.2104 81.0949 56.3465 81.3036 56.4417C81.5168 56.5369 81.7549 56.5845 82.0179 56.5845C82.281 56.5845 82.5168 56.5369 82.7254 56.4417C82.9386 56.3465 83.12 56.2104 83.2696 56.0336C83.4194 55.8568 83.535 55.6437 83.6167 55.3944C83.6983 55.1405 83.7391 54.8549 83.7391 54.5375Z" fill="white"/>
<path d="M88.6131 56.4961V56.8974H85.9326V52.1846H86.3953V56.4961H88.6131Z" fill="white"/>
<path d="M94.0132 54.5375C94.0132 54.9411 93.9543 55.2969 93.8363 55.6053C93.7184 55.9135 93.5574 56.1719 93.3533 56.3805C93.1537 56.5845 92.9202 56.7386 92.6526 56.8429C92.3849 56.9472 92.1015 56.9994 91.8022 56.9994C91.5028 56.9994 91.2194 56.9472 90.9518 56.8429C90.6842 56.7386 90.4483 56.5845 90.2442 56.3805C90.0447 56.1719 89.8859 55.9135 89.768 55.6053C89.6501 55.2969 89.5911 54.9411 89.5911 54.5375C89.5911 54.1341 89.6501 53.7804 89.768 53.4766C89.8859 53.1683 90.0447 52.9121 90.2442 52.7082C90.4483 52.4996 90.6842 52.3432 90.9518 52.239C91.2194 52.1347 91.5028 52.0825 91.8022 52.0825C92.1015 52.0825 92.3849 52.1347 92.6526 52.239C92.9202 52.3432 93.1537 52.4996 93.3533 52.7082C93.5574 52.9121 93.7184 53.1683 93.8363 53.4766C93.9543 53.7804 94.0132 54.1341 94.0132 54.5375ZM93.5234 54.5375C93.5234 54.2202 93.4825 53.9368 93.4009 53.6874C93.3193 53.4336 93.2036 53.2182 93.054 53.0414C92.9042 52.8646 92.7229 52.7309 92.5097 52.6401C92.301 52.545 92.0652 52.4973 91.8022 52.4973C91.5391 52.4973 91.301 52.545 91.0878 52.6401C90.8792 52.7309 90.7001 52.8646 90.5504 53.0414C90.4007 53.2182 90.285 53.4336 90.2034 53.6874C90.1218 53.9368 90.0809 54.2202 90.0809 54.5375C90.0809 54.8549 90.1218 55.1405 90.2034 55.3944C90.285 55.6437 90.4007 55.8568 90.5504 56.0336C90.7001 56.2104 90.8792 56.3465 91.0878 56.4417C91.301 56.5369 91.5391 56.5845 91.8022 56.5845C92.0652 56.5845 92.301 56.5369 92.5097 56.4417C92.7229 56.3465 92.9042 56.2104 93.054 56.0336C93.2036 55.8568 93.3193 55.6437 93.4009 55.3944C93.4825 55.1405 93.5234 54.8549 93.5234 54.5375Z" fill="white"/>
<path d="M98.6558 54.6667H99.1184V56.7681C99.0322 56.8044 98.8621 56.8497 98.6082 56.9041C98.3588 56.9631 98.0503 56.9926 97.6829 56.9926C97.3745 56.9926 97.0888 56.9381 96.8258 56.8294C96.5627 56.7206 96.3337 56.5641 96.1387 56.3601C95.9481 56.1515 95.7985 55.8954 95.6896 55.5916C95.5807 55.2834 95.5264 54.932 95.5264 54.5375C95.5264 54.1431 95.5853 53.794 95.7032 53.4902C95.8211 53.182 95.9798 52.9258 96.1795 52.7218C96.3836 52.5132 96.6194 52.3545 96.887 52.2458C97.1545 52.137 97.4403 52.0825 97.7442 52.0825C98.0934 52.0825 98.3814 52.1211 98.6082 52.1982C98.835 52.2707 99.0005 52.341 99.1048 52.409L98.9483 52.8034C98.8213 52.7127 98.649 52.6401 98.4313 52.5858C98.2136 52.5268 97.9777 52.4973 97.7237 52.4973C97.4879 52.4973 97.2657 52.5404 97.0571 52.6266C96.8484 52.7127 96.667 52.8419 96.5128 53.0143C96.3586 53.1865 96.2361 53.3996 96.1454 53.6534C96.0593 53.9073 96.0162 54.2021 96.0162 54.5375C96.0162 54.8504 96.0525 55.1337 96.125 55.3876C96.1976 55.637 96.3064 55.8523 96.4516 56.0336C96.6012 56.2104 96.785 56.3465 97.0026 56.4417C97.2203 56.5369 97.4721 56.5845 97.7578 56.5845C97.9891 56.5845 98.1818 56.5732 98.336 56.5505C98.4948 56.5233 98.6014 56.4984 98.6558 56.4757V54.6667Z" fill="white"/>
<path d="M100.861 52.1846H101.324V56.8974H100.861V52.1846Z" fill="white"/>
<path d="M105.175 56.9994C104.871 56.9994 104.588 56.9449 104.325 56.8361C104.066 56.7273 103.839 56.5686 103.644 56.3601C103.454 56.1515 103.302 55.8954 103.189 55.5916C103.08 55.2834 103.025 54.932 103.025 54.5375C103.025 54.1431 103.084 53.794 103.202 53.4902C103.325 53.182 103.486 52.9235 103.685 52.715C103.885 52.5064 104.116 52.3501 104.379 52.2458C104.642 52.137 104.917 52.0825 105.202 52.0825C105.379 52.0825 105.54 52.0939 105.685 52.1165C105.83 52.1392 105.957 52.1687 106.066 52.205C106.175 52.2367 106.268 52.2707 106.345 52.307C106.422 52.3387 106.481 52.3681 106.522 52.3953L106.372 52.7966C106.259 52.7286 106.114 52.6629 105.937 52.5993C105.765 52.5313 105.549 52.4973 105.291 52.4973C104.996 52.4973 104.737 52.5472 104.515 52.647C104.297 52.7467 104.114 52.8872 103.964 53.0686C103.814 53.25 103.701 53.4653 103.624 53.7147C103.551 53.964 103.515 54.2406 103.515 54.5444C103.515 54.8572 103.551 55.1405 103.624 55.3944C103.701 55.6437 103.812 55.8568 103.957 56.0336C104.102 56.2104 104.279 56.3465 104.488 56.4417C104.701 56.5369 104.944 56.5845 105.216 56.5845C105.515 56.5845 105.765 56.5573 105.964 56.5029C106.168 56.444 106.322 56.385 106.427 56.3261L106.556 56.7206C106.524 56.7432 106.47 56.7704 106.393 56.8021C106.316 56.8294 106.218 56.8588 106.1 56.8905C105.982 56.9223 105.846 56.9472 105.692 56.9654C105.538 56.988 105.366 56.9994 105.175 56.9994Z" fill="white"/>
<path d="M110.952 52.6062C110.843 52.7332 110.716 52.8873 110.571 53.0686C110.43 53.25 110.278 53.4495 110.115 53.6671C109.952 53.8802 109.784 54.1092 109.612 54.354C109.444 54.5943 109.276 54.8391 109.108 55.0884C108.945 55.3333 108.788 55.5758 108.639 55.8161C108.494 56.0564 108.362 56.2831 108.244 56.4961H111.02V56.8974H107.741V56.5505C107.841 56.3556 107.958 56.1425 108.095 55.9113C108.235 55.6755 108.385 55.4353 108.544 55.1905C108.702 54.9411 108.868 54.6917 109.04 54.4423C109.212 54.193 109.383 53.955 109.55 53.7284C109.718 53.4971 109.877 53.284 110.027 53.0891C110.181 52.8941 110.321 52.7263 110.448 52.5858H107.87V52.1846H110.952V52.6062Z" fill="white"/>
<path d="M115.779 56.8974C115.693 56.7387 115.582 56.5528 115.446 56.3397C115.314 56.1266 115.169 55.9 115.01 55.6596C114.852 55.4148 114.684 55.1655 114.507 54.9116C114.33 54.6532 114.153 54.4038 113.976 54.1635C113.804 53.9187 113.634 53.6898 113.466 53.4767C113.303 53.2636 113.155 53.08 113.024 52.9259V56.8974H112.568V52.1846H112.936C113.167 52.443 113.414 52.7423 113.677 53.0823C113.945 53.4177 114.205 53.7624 114.459 54.116C114.713 54.4651 114.949 54.8074 115.167 55.1428C115.389 55.4784 115.571 55.7707 115.711 56.0201V52.1846H116.167V56.8974H115.779Z" fill="white"/>
<path d="M118.058 56.8974V52.1846H120.779V52.5858H118.521V54.2247H120.535V54.6192H118.521V56.4961H120.956V56.8974H118.058Z" fill="white"/>
</g>
<defs>
<clipPath id="clip0_280_512">
<rect width="81" height="35" fill="white" transform="translate(40 22)"/>
</clipPath>
</defs>
</svg>
