<svg width="160" height="80" viewBox="0 0 160 80" fill="none" xmlns="http://www.w3.org/2000/svg">
<g clip-path="url(#clip0_280_557)">
<path d="M53.7331 49.8515H54.0891V53.0221H53.7331V49.8515ZM54.1736 48.9548C54.1736 49.0526 54.1508 49.1232 54.1051 49.1641C54.0594 49.2051 53.9956 49.2256 53.9088 49.2256C53.8244 49.2256 53.7582 49.2051 53.7126 49.1641C53.6669 49.1232 53.6441 49.0526 53.6441 48.9548C53.6441 48.8637 53.6646 48.7977 53.7057 48.7499C53.7468 48.7044 53.813 48.6816 53.9065 48.6816C54.0001 48.6816 54.0686 48.7044 54.1097 48.7499C54.153 48.7977 54.1736 48.866 54.1736 48.9548Z" fill="white"/>
<path d="M57.0858 53.0221V50.9053C57.0858 50.7301 57.1041 50.5685 57.1406 50.425C57.1771 50.2817 57.2456 50.161 57.3438 50.0609C57.4419 49.963 57.5742 49.8856 57.7454 49.831C57.9143 49.7786 58.1311 49.7513 58.3981 49.7513C58.6629 49.7513 58.882 49.7764 59.0509 49.8288C59.2198 49.8811 59.3545 49.9539 59.4503 50.054C59.5462 50.1542 59.6123 50.2748 59.6489 50.4183C59.6854 50.5616 59.7037 50.7255 59.7037 50.9053V53.0221H59.3476V50.9417C59.3476 50.7983 59.3385 50.6709 59.3202 50.5616C59.3019 50.4524 59.2609 50.3614 59.1947 50.2885C59.1285 50.2134 59.0326 50.1588 58.9048 50.1201C58.7793 50.0836 58.6081 50.0654 58.3959 50.0654C58.1791 50.0654 58.0056 50.0859 57.8801 50.1246C57.7546 50.1633 57.6564 50.2179 57.5902 50.2931C57.524 50.3659 57.483 50.4592 57.4647 50.5685C57.4464 50.6777 57.4373 50.8006 57.4373 50.9417V53.0221H57.0858Z" fill="white"/>
<path d="M64.9508 52.7057V51.0351C64.9508 50.8257 64.9257 50.6573 64.8732 50.5298C64.8206 50.4024 64.7499 50.3045 64.6586 50.2362C64.5672 50.1679 64.4577 50.1224 64.3322 50.0996C64.2089 50.0769 64.0743 50.0655 63.9305 50.0655C63.7547 50.0655 63.6041 50.0814 63.4809 50.1156C63.3554 50.1497 63.2549 50.2066 63.1728 50.2885C63.0929 50.3705 63.0358 50.482 62.997 50.6231C62.9605 50.7643 62.9422 50.9441 62.9422 51.1626V51.5631C62.9422 51.7885 62.9582 51.9774 62.9902 52.1253C63.0221 52.2733 63.0792 52.3894 63.1591 52.4781C63.2389 52.5646 63.3439 52.6238 63.4763 52.6579C63.6064 52.6898 63.7707 52.7057 63.967 52.7057H64.9508ZM63.9556 53.0221C63.7091 53.0221 63.5014 52.9971 63.3257 52.9493C63.1522 52.8992 63.0107 52.8173 62.9012 52.7057C62.7893 52.5919 62.7094 52.4417 62.6569 52.2551C62.6068 52.0684 62.5794 51.8385 62.5794 51.5677V51.1671C62.5794 50.6527 62.6912 50.2885 62.9149 50.0746C63.1385 49.8606 63.4695 49.7537 63.9122 49.7537C64.1747 49.7537 64.3892 49.7878 64.5581 49.8538C64.7248 49.9221 64.8572 50.0154 64.9508 50.1338V48.4381H65.3069V52.6693C65.3069 52.8104 65.2841 52.9038 65.2339 52.9515C65.1859 52.9994 65.0832 53.0221 64.9279 53.0221H63.9556Z" fill="white"/>
<path d="M69.5999 53.1199C69.3442 53.1199 69.1342 53.0949 68.9675 53.0471C68.8009 52.997 68.6662 52.9241 68.568 52.8308C68.4698 52.7375 68.4013 52.6169 68.3625 52.4735C68.3242 52.3301 68.3036 52.1617 68.3036 51.9682V49.8537H68.6616V51.934C68.6616 52.0775 68.6707 52.2049 68.6913 52.3119C68.7118 52.4212 68.7529 52.5122 68.8168 52.5873C68.8808 52.6624 68.9744 52.717 69.0999 52.7535C69.2255 52.7899 69.3922 52.8081 69.5999 52.8081C69.8072 52.8081 69.9762 52.7922 70.0994 52.7557C70.2227 52.7216 70.3186 52.6692 70.3825 52.5964C70.4442 52.5235 70.4876 52.4325 70.5081 52.321C70.5286 52.2094 70.5378 52.0797 70.5378 51.9318V49.8514H70.8962V51.9659C70.8962 52.1526 70.8757 52.3142 70.8369 52.4576C70.798 52.5987 70.7296 52.7193 70.6337 52.8172C70.5378 52.9151 70.4054 52.9901 70.2364 53.0425C70.0698 53.0949 69.8574 53.1199 69.5999 53.1199Z" fill="white"/>
<path d="M75.2919 51.258C75.4654 51.274 75.607 51.3058 75.7184 51.3536C75.8303 51.4014 75.9216 51.4583 75.9901 51.5289C76.0586 51.5972 76.1088 51.6814 76.1385 51.7747C76.1682 51.868 76.1819 51.9727 76.1819 52.082V52.1366C76.1819 52.28 76.1613 52.4074 76.1225 52.519C76.086 52.6305 76.0198 52.7238 75.9284 52.799C75.8394 52.8763 75.7207 52.9333 75.5705 52.9719C75.4221 53.0106 75.2349 53.0311 75.0157 53.0311H74.6618H74.3422C74.2372 53.0311 74.1349 53.0288 74.0299 53.0288C73.9249 53.0265 73.8153 53.0243 73.7011 53.0197L73.7673 52.7056C73.9523 52.7148 74.144 52.717 74.3422 52.717H75.0271C75.1869 52.717 75.3193 52.7079 75.4244 52.6897C75.5294 52.6715 75.6116 52.6373 75.6727 52.5918C75.7344 52.544 75.7755 52.4826 75.7983 52.4074C75.8211 52.3301 75.8326 52.2345 75.8326 52.1207C75.8326 51.9477 75.7892 51.8202 75.7024 51.7406C75.6161 51.6609 75.4586 51.6108 75.2303 51.5904L74.5728 51.5289C74.2691 51.4948 74.0504 51.4128 73.918 51.2785C73.7856 51.1442 73.7194 50.9576 73.7194 50.7186V50.6503C73.7194 50.3749 73.8107 50.1701 73.9911 50.0381C74.1733 49.9038 74.4609 49.8378 74.8536 49.8378H75.4495C75.6545 49.8378 75.8737 49.8423 76.1134 49.8492L76.0449 50.1633C75.8371 50.1542 75.6271 50.1519 75.4198 50.1519H74.8376C74.55 50.1519 74.3491 50.1883 74.2349 50.2657C74.1189 50.3431 74.0618 50.4728 74.0618 50.6572C74.0618 50.7345 74.0687 50.8051 74.0847 50.8643C74.0984 50.9235 74.1258 50.9758 74.1664 51.0213C74.2075 51.0669 74.2669 51.1033 74.3445 51.1328C74.4221 51.1625 74.5226 51.1829 74.6458 51.1943L75.2919 51.258Z" fill="white"/>
<path d="M79.0438 49.048L79.4 48.9797V49.8492H80.6963L80.6278 50.1587H79.4V51.9409C79.4 52.0934 79.4091 52.2186 79.4297 52.3165C79.4502 52.4166 79.489 52.494 79.5438 52.5509C79.5986 52.6101 79.674 52.6488 79.7698 52.6715C79.8657 52.6943 79.9936 52.7057 80.1484 52.7057H80.621L80.5525 53.0198H80.1484C79.9411 53.0198 79.7653 53.0039 79.6237 52.972C79.4822 52.9424 79.368 52.8855 79.2836 52.8058C79.1991 52.7262 79.1352 52.6169 79.1009 52.4781C79.0644 52.3415 79.0461 52.164 79.0461 51.9455V49.048H79.0438Z" fill="white"/>
<path d="M83.4396 53.0221V50.9303C83.4396 50.7164 83.4624 50.5389 83.5103 50.4C83.5583 50.2589 83.6268 50.1474 83.7227 50.0632C83.8163 49.9789 83.935 49.9198 84.0743 49.8879C84.2135 49.856 84.3756 49.8401 84.5601 49.8401H84.9459C85.0692 49.8401 85.1651 49.8424 85.2336 49.8446L85.1674 50.1656C85.1126 50.1633 85.0281 50.1587 84.9117 50.1565C84.7952 50.1542 84.6834 50.1542 84.5783 50.1542C84.4236 50.1542 84.2957 50.1656 84.1953 50.1929C84.0948 50.2202 84.0149 50.2657 83.9578 50.3272C83.9007 50.3887 83.8596 50.4729 83.8345 50.5775C83.8094 50.6822 83.798 50.8165 83.798 50.9759V53.0243H83.4396V53.0221Z" fill="white"/>
<path d="M87.954 49.8515H88.3102V53.0221H87.954V49.8515ZM88.3969 48.9548C88.3969 49.0526 88.3741 49.1232 88.3284 49.1641C88.2828 49.2051 88.2188 49.2256 88.1321 49.2256C88.0476 49.2256 87.9814 49.2051 87.9358 49.1641C87.8901 49.1232 87.8673 49.0526 87.8673 48.9548C87.8673 48.8637 87.8878 48.7977 87.9289 48.7499C87.97 48.7044 88.0385 48.6816 88.1298 48.6816C88.2234 48.6816 88.2919 48.7044 88.333 48.7499C88.3741 48.7977 88.3969 48.866 88.3969 48.9548Z" fill="white"/>
<path d="M91.4963 52.0729C91.4963 52.1844 91.51 52.2777 91.5374 52.3551C91.5648 52.4348 91.6105 52.4985 91.6721 52.5531C91.7361 52.6055 91.8228 52.6442 91.9297 52.6692C92.0392 52.6942 92.1762 52.7056 92.3383 52.7056H93.3835V51.9659C93.3835 51.8339 93.3607 51.7269 93.3173 51.6404C93.2744 51.5562 93.2127 51.4902 93.1305 51.4401C93.0483 51.39 92.9479 51.3559 92.8269 51.3354C92.7059 51.315 92.5689 51.3058 92.4114 51.3058H92.3315C92.0278 51.3058 91.8137 51.3559 91.6858 51.4561C91.5603 51.5562 91.4963 51.7337 91.4963 51.9909V52.0729ZM93.7259 52.6692C93.7259 52.8103 93.6985 52.9014 93.6483 52.9492C93.5958 52.9969 93.4954 53.022 93.3447 53.022H92.3383C91.916 53.022 91.6128 52.9469 91.4301 52.799C91.2475 52.651 91.1539 52.4097 91.1539 52.0751V51.9909C91.1539 51.645 91.2475 51.3946 91.4324 51.2376C91.6196 51.0805 91.9205 51.0031 92.3383 51.0031C92.6214 51.0031 92.8451 51.0304 93.0141 51.0828C93.1808 51.1374 93.3036 51.2102 93.3835 51.3058V50.9349C93.3835 50.7869 93.3675 50.664 93.3401 50.5616C93.3104 50.4614 93.2607 50.3818 93.1876 50.3226C93.1123 50.2634 93.0118 50.2202 92.8794 50.1929C92.7493 50.1655 92.5826 50.1519 92.3817 50.1519C92.231 50.1519 92.0689 50.1542 91.9023 50.1564C91.7338 50.1587 91.5831 50.1633 91.4484 50.1723L91.5169 49.8514C91.631 49.8469 91.7657 49.8446 91.9205 49.8423C92.0758 49.84 92.2287 49.8378 92.3817 49.8378C92.6283 49.8378 92.836 49.8583 93.005 49.8969C93.1739 49.9356 93.3127 49.9971 93.42 50.0813C93.5273 50.1655 93.6049 50.2748 93.6529 50.4091C93.7008 50.5433 93.7259 50.7049 93.7259 50.8984V52.6692Z" fill="white"/>
<path d="M97.0811 48.4358H96.7226V53.0198H97.0811V48.4358Z" fill="white"/>
<path d="M105.121 51.258C105.295 51.274 105.436 51.3058 105.548 51.3536C105.66 51.4014 105.752 51.4583 105.82 51.5289C105.888 51.5972 105.939 51.6814 105.968 51.7747C105.998 51.868 106.012 51.9727 106.012 52.082V52.1366C106.012 52.28 105.991 52.4074 105.952 52.519C105.914 52.6305 105.85 52.7238 105.758 52.799C105.667 52.8763 105.548 52.9333 105.4 52.9719C105.249 53.0106 105.064 53.0311 104.843 53.0311H104.492H104.172C104.067 53.0311 103.964 53.0288 103.859 53.0288C103.754 53.0265 103.645 53.0243 103.531 53.0197L103.597 52.7056C103.782 52.7148 103.973 52.717 104.172 52.717H104.857C105.017 52.717 105.149 52.7079 105.254 52.6897C105.359 52.6715 105.441 52.6373 105.503 52.5918C105.564 52.544 105.605 52.4826 105.628 52.4074C105.651 52.3301 105.662 52.2345 105.662 52.1207C105.662 51.9477 105.621 51.8202 105.535 51.7406C105.448 51.6609 105.29 51.6108 105.062 51.5904L104.405 51.5289C104.101 51.4948 103.884 51.4128 103.752 51.2785C103.617 51.1442 103.554 50.9576 103.554 50.7186V50.6503C103.554 50.3749 103.645 50.1701 103.825 50.0381C104.008 49.9038 104.295 49.8378 104.688 49.8378H105.283C105.489 49.8378 105.708 49.8423 105.948 49.8492L105.879 50.1633C105.672 50.1542 105.462 50.1519 105.254 50.1519H104.67C104.382 50.1519 104.184 50.1883 104.067 50.2657C103.953 50.3431 103.896 50.4728 103.896 50.6572C103.896 50.7345 103.903 50.8051 103.916 50.8643C103.932 50.9235 103.96 50.9758 104.001 51.0213C104.042 51.0669 104.101 51.1033 104.179 51.1328C104.257 51.1625 104.357 51.1829 104.48 51.1943L105.121 51.258Z" fill="white"/>
<path d="M110.072 50.054C109.901 50.054 109.752 50.07 109.629 50.1018C109.506 50.136 109.406 50.1952 109.328 50.2816C109.25 50.3681 109.193 50.4865 109.159 50.639C109.123 50.7915 109.107 50.9872 109.107 51.2262H111.042V51.0168C111.042 50.8301 111.022 50.6777 110.987 50.5525C110.951 50.4296 110.894 50.3294 110.814 50.2566C110.736 50.1815 110.636 50.1291 110.513 50.0996C110.392 50.07 110.243 50.054 110.072 50.054ZM109.109 51.5289C109.109 51.7633 109.123 51.9568 109.152 52.1093C109.182 52.2618 109.232 52.3824 109.305 52.4735C109.381 52.5645 109.481 52.6282 109.608 52.6624C109.739 52.6988 109.905 52.717 110.108 52.717C110.284 52.717 110.455 52.717 110.618 52.7148C110.782 52.7125 110.958 52.7102 111.147 52.7056L111.078 53.0198C110.939 53.0243 110.784 53.0289 110.611 53.0289C110.435 53.0311 110.271 53.0311 110.111 53.0311C109.841 53.0311 109.618 53.0015 109.442 52.9401C109.266 52.8786 109.127 52.7853 109.027 52.6647C108.926 52.5418 108.858 52.3915 108.814 52.2117C108.773 52.0297 108.753 51.8202 108.753 51.5813V51.1921C108.753 50.9326 108.778 50.7118 108.83 50.5297C108.883 50.3476 108.961 50.1974 109.07 50.0813C109.18 49.9652 109.317 49.881 109.486 49.8287C109.654 49.7741 109.853 49.749 110.081 49.749C110.54 49.749 110.871 49.8492 111.074 50.0495C111.275 50.2498 111.377 50.5639 111.377 50.9963V51.1443C111.377 51.2307 111.373 51.299 111.361 51.3491C111.352 51.3992 111.334 51.4356 111.309 51.4629C111.284 51.4902 111.249 51.5085 111.208 51.5152C111.165 51.5244 111.113 51.5266 111.051 51.5266H109.109V51.5289Z" fill="white"/>
<path d="M114.248 53.0221V50.9303C114.248 50.7164 114.271 50.5389 114.319 50.4C114.365 50.2589 114.436 50.1474 114.532 50.0632C114.625 49.9789 114.744 49.9198 114.883 49.8879C115.022 49.856 115.184 49.8401 115.369 49.8401H115.755C115.878 49.8401 115.974 49.8424 116.042 49.8446L115.976 50.1656C115.921 50.1633 115.837 50.1587 115.721 50.1565C115.604 50.1542 115.492 50.1542 115.388 50.1542C115.232 50.1542 115.105 50.1656 115.004 50.1929C114.904 50.2202 114.824 50.2657 114.767 50.3272C114.71 50.3887 114.669 50.4729 114.643 50.5775C114.618 50.6822 114.607 50.8165 114.607 50.9759V53.0243H114.248V53.0221Z" fill="white"/>
<path d="M118.829 49.8514L119.89 52.651L120.959 49.8514H121.328L120.087 53.022H119.676L118.436 49.8514H118.829Z" fill="white"/>
<path d="M123.999 49.8515H124.354V53.0221H123.999V49.8515ZM124.441 48.9548C124.441 49.0526 124.418 49.1232 124.373 49.1641C124.327 49.2051 124.264 49.2256 124.177 49.2256C124.092 49.2256 124.026 49.2051 123.981 49.1641C123.935 49.1232 123.912 49.0526 123.912 48.9548C123.912 48.8637 123.933 48.7977 123.974 48.7499C124.015 48.7044 124.081 48.6816 124.175 48.6816C124.268 48.6816 124.336 48.7044 124.377 48.7499C124.421 48.7977 124.441 48.866 124.441 48.9548Z" fill="white"/>
<path d="M128.623 52.7193C128.791 52.7193 128.944 52.7171 129.084 52.7171C129.223 52.7148 129.348 52.7125 129.465 52.708L129.396 53.0221C129.303 53.0266 129.182 53.0289 129.038 53.0312C128.894 53.0334 128.755 53.0334 128.623 53.0334C128.358 53.0334 128.134 53.0061 127.956 52.9492C127.778 52.8924 127.634 52.8081 127.527 52.692C127.417 52.576 127.342 52.4303 127.296 52.2505C127.251 52.0707 127.23 51.8567 127.23 51.6064V51.2604C127.23 50.9987 127.255 50.7756 127.308 50.5935C127.36 50.4114 127.44 50.2657 127.554 50.152C127.666 50.0382 127.81 49.9585 127.988 49.9084C128.164 49.8606 128.379 49.8356 128.627 49.8356H128.994C129.134 49.8356 129.289 49.8401 129.462 49.847L129.394 50.1611C129.239 50.1542 129.097 50.1497 128.969 50.1497H128.625C128.429 50.1497 128.264 50.1656 128.132 50.1952C127.997 50.2248 127.892 50.2817 127.812 50.3636C127.732 50.4478 127.675 50.5594 127.643 50.7028C127.611 50.8462 127.595 51.0305 127.595 51.2581V51.6041C127.595 51.8157 127.611 51.9887 127.643 52.1321C127.678 52.2733 127.732 52.3871 127.81 52.4758C127.888 52.5623 127.993 52.6237 128.125 52.6602C128.255 52.7012 128.422 52.7193 128.623 52.7193Z" fill="white"/>
<path d="M133.399 50.054C133.228 50.054 133.08 50.07 132.957 50.1018C132.834 50.136 132.733 50.1952 132.656 50.2816C132.578 50.3681 132.521 50.4865 132.487 50.639C132.45 50.7915 132.434 50.9872 132.434 51.2262H134.37V51.0168C134.37 50.8301 134.349 50.6777 134.315 50.5525C134.278 50.4296 134.221 50.3294 134.141 50.2566C134.064 50.1815 133.963 50.1291 133.84 50.0996C133.719 50.07 133.573 50.054 133.399 50.054ZM132.436 51.5289C132.436 51.7633 132.45 51.9568 132.48 52.1093C132.509 52.2618 132.56 52.3824 132.633 52.4735C132.708 52.5645 132.808 52.6282 132.936 52.6624C133.066 52.6988 133.233 52.717 133.436 52.717C133.612 52.717 133.783 52.717 133.945 52.7148C134.109 52.7125 134.285 52.7102 134.475 52.7056L134.406 53.0198C134.267 53.0243 134.112 53.0289 133.938 53.0289C133.762 53.0311 133.598 53.0311 133.438 53.0311C133.169 53.0311 132.945 53.0015 132.77 52.9401C132.594 52.8786 132.455 52.7853 132.354 52.6647C132.254 52.5418 132.185 52.3915 132.142 52.2117C132.101 52.0297 132.08 51.8202 132.08 51.5813V51.1921C132.08 50.9326 132.108 50.7118 132.158 50.5297C132.21 50.3476 132.288 50.1974 132.398 50.0813C132.507 49.9652 132.644 49.881 132.813 49.8287C132.982 49.7741 133.18 49.749 133.408 49.749C133.867 49.749 134.198 49.8492 134.402 50.0495C134.602 50.2498 134.705 50.5639 134.705 50.9963V51.1443C134.705 51.2307 134.7 51.299 134.689 51.3491C134.68 51.3992 134.661 51.4356 134.636 51.4629C134.611 51.4902 134.577 51.5085 134.536 51.5152C134.493 51.5244 134.44 51.5266 134.379 51.5266H132.436V51.5289Z" fill="white"/>
<path d="M139.037 51.258C139.21 51.274 139.352 51.3058 139.464 51.3536C139.575 51.4014 139.667 51.4583 139.735 51.5289C139.804 51.5972 139.854 51.6814 139.884 51.7747C139.913 51.868 139.927 51.9727 139.927 52.082V52.1366C139.927 52.28 139.906 52.4074 139.868 52.519C139.829 52.6305 139.765 52.7238 139.674 52.799C139.582 52.874 139.463 52.9333 139.315 52.9719C139.164 53.0106 138.98 53.0311 138.759 53.0311H138.407H138.087C137.982 53.0311 137.88 53.0288 137.775 53.0288C137.67 53.0265 137.56 53.0243 137.446 53.0197L137.512 52.7056C137.697 52.7148 137.889 52.717 138.087 52.717H138.772C138.932 52.717 139.064 52.7079 139.169 52.6897C139.274 52.6715 139.356 52.6373 139.418 52.5918C139.479 52.544 139.521 52.4826 139.543 52.4074C139.566 52.3301 139.578 52.2345 139.578 52.1207C139.578 51.9477 139.537 51.8202 139.45 51.7406C139.363 51.6609 139.206 51.6108 138.977 51.5904L138.32 51.5289C138.019 51.4948 137.8 51.4128 137.667 51.2785C137.535 51.1442 137.469 50.9576 137.469 50.7186V50.6503C137.469 50.3749 137.56 50.1701 137.74 50.0381C137.923 49.9038 138.211 49.8378 138.603 49.8378H139.199C139.404 49.8378 139.623 49.8423 139.863 49.8492L139.795 50.1633C139.587 50.1542 139.377 50.1519 139.169 50.1519H138.585C138.297 50.1519 138.099 50.1883 137.982 50.2657C137.868 50.3431 137.811 50.4728 137.811 50.6572C137.811 50.7345 137.818 50.8051 137.834 50.8643C137.848 50.9235 137.875 50.9758 137.916 51.0213C137.957 51.0669 138.017 51.1033 138.094 51.1328C138.172 51.1625 138.272 51.1829 138.396 51.1943L139.037 51.258Z" fill="white"/>
<path d="M54.945 40.8176H61.2648V39.6113L54.945 39.6068V35.6123H63.4216V34.39H53.6304V47.07H63.4261V45.8318H54.945V40.8176Z" fill="white"/>
<path d="M72.9044 40.4398H68.3561V35.6236H72.9044C74.8376 35.6236 75.9444 36.5022 75.9444 38.0363C75.9444 40.128 74.039 40.4398 72.9044 40.4398ZM72.9021 41.6712C75.6938 41.6712 77.2955 40.3442 77.2955 38.0363C77.2955 35.7534 75.6253 34.39 72.8272 34.39H67.0343V47.07H68.3538V41.4413L75.4107 47.0495L75.4381 47.07H77.5261L70.5971 41.6735H72.9021V41.6712Z" fill="white"/>
<path d="M91.0671 45.124L82.2346 34.431L82.2049 34.3946H80.9246V47.07H82.246V36.3657L91.0626 47.0359L91.0945 47.07H92.3794V34.39H91.0671V45.124Z" fill="white"/>
<path d="M101.879 36.4022L105.22 42.8047H98.5052L101.879 36.4022ZM94.8465 46.9449L94.767 47.0951H96.2391L97.9002 43.9655H105.829L107.447 47.0951H108.887L101.89 33.8234L94.8465 46.9449Z" fill="white"/>
<path d="M120.886 44.316C119.706 45.4404 118.35 45.9889 116.741 45.9889C113.694 45.9889 111.393 43.7242 111.393 40.7221C111.393 37.7336 113.692 35.4826 116.741 35.4826C118.295 35.4826 119.71 36.0562 120.829 37.1418L120.893 37.2033L121.903 36.3839L121.824 36.3042C120.45 34.9409 118.694 34.2194 116.746 34.2194C113.009 34.2194 110.083 37.0758 110.083 40.7244C110.083 44.4435 112.948 47.2476 116.746 47.2476C118.745 47.2476 120.427 46.5534 121.885 45.1286L121.97 45.0467L120.95 44.2568L120.886 44.316Z" fill="white"/>
<path d="M135.056 34.39H133.046L126.459 39.691V34.39H125.138V47.07H126.459V40.5422L134.05 47.0473L134.077 47.07H136.063L127.844 40.1143L135.056 34.39Z" fill="white"/>
<path d="M139.797 34.39H138.478V47.07H139.797V34.39Z" fill="white"/>
<path d="M36.9399 37.6108H29.9035V31.7135H36.8007C39.4048 31.7135 40.6943 32.6649 40.6943 34.6975C40.6965 36.5023 39.2496 37.6108 36.9399 37.6108ZM47.8539 31.2697C45.5693 27.6371 41.8354 25.0833 37.6063 24.2639L37.547 24.2526L37.5424 24.2753C36.1593 24.0136 34.7443 23.9385 33.3384 24.05C25.6379 24.6531 19.4847 30.8918 19.0283 38.5599C18.832 41.8625 19.6605 45.0581 21.4179 47.8031H23.1889H24.8117H37.6474C41.2169 47.8031 43.1181 46.1984 43.1181 42.9095C43.1181 40.2898 41.6118 38.6282 39.3158 38.2481C41.0138 37.8111 42.2599 36.5706 42.2599 34.5336C42.2599 31.7317 40.3839 30.2819 36.8417 30.2819H28.3652V43.5013H29.9035V39.0242H37.2434C40.1145 39.0242 41.5684 40.4104 41.5615 42.7024C41.5592 45.1378 40.2036 46.3509 37.5994 46.3509H31.104H29.9035H22.26C20.9431 44.0225 20.3246 41.3936 20.489 38.6465C20.9021 31.6976 26.4755 26.0461 33.4525 25.4998C37.4192 25.1926 41.2146 26.4831 44.1337 29.1393C46.8679 31.627 48.5454 35.1367 48.7394 38.7648C48.7508 38.9651 48.7623 39.3702 48.7623 39.3702C48.7645 39.6388 48.7577 39.9165 48.7417 40.1942C48.6892 41.1843 48.5317 42.1789 48.2715 43.1462C46.4639 49.872 39.8658 54.2944 32.9184 53.4386C31.9097 53.3157 30.9191 53.0858 29.972 52.7581L29.9126 52.7376L29.4334 54.1124L29.4927 54.1328C30.5357 54.4924 31.6289 54.7451 32.7381 54.8839C33.368 54.9613 34.0071 55 34.637 55C41.6802 55 47.8676 50.2817 49.6843 43.5241C50.8186 39.3042 50.1681 34.9546 47.8539 31.2697Z" fill="white"/>
</g>
<defs>
<clipPath id="clip0_280_557">
<rect width="121" height="31" fill="white" transform="translate(19 24)"/>
</clipPath>
</defs>
</svg>
