<svg width="160" height="80" viewBox="0 0 160 80" fill="none" xmlns="http://www.w3.org/2000/svg">
<g clip-path="url(#clip0_280_559)">
<path d="M40.3922 45.6487H40.7988V48.1541C40.7988 48.5981 40.9055 48.9245 41.1218 49.1304C41.338 49.3362 41.6725 49.442 42.1338 49.442C42.5951 49.442 42.9354 49.3391 43.1516 49.1304C43.3678 48.9215 43.4775 48.5981 43.4775 48.1541V45.6487H43.8811V48.2599C43.8811 48.7657 43.7311 49.1568 43.4313 49.4273C43.1315 49.6979 42.6989 49.8331 42.1367 49.8331C41.5744 49.8331 41.1362 49.6979 40.842 49.4273C40.5451 49.1568 40.3981 48.7598 40.3981 48.2394V45.6487H40.3922Z" fill="white"/>
<path d="M45.9054 49.7273V46.0222H44.3628V45.6487H47.8488V46.0222H46.3062V49.7273H45.9054Z" fill="white"/>
<path d="M52.3413 47.6895C52.3413 48.354 52.1539 48.8804 51.7791 49.2627C51.4042 49.645 50.891 49.836 50.2393 49.836C49.5877 49.836 49.0715 49.645 48.6968 49.2627C48.3219 48.8804 48.1374 48.357 48.1374 47.6895C48.1374 47.0219 48.3248 46.4985 48.6968 46.1134C49.0687 45.7311 49.5848 45.5399 50.2393 45.5399C50.8938 45.5399 51.4042 45.7311 51.7791 46.1134C52.1539 46.4956 52.3413 47.0219 52.3413 47.6895ZM50.2364 49.4391C50.7641 49.4391 51.1793 49.2832 51.4791 48.9716C51.7791 48.6598 51.929 48.2334 51.929 47.6865C51.929 47.1395 51.7791 46.7103 51.4791 46.3985C51.1793 46.0898 50.7641 45.934 50.2364 45.934C49.7088 45.934 49.2907 46.0898 48.9909 46.3985C48.691 46.7073 48.5411 47.1367 48.5411 47.6865C48.5411 48.2364 48.691 48.6598 48.9909 48.9716C49.2907 49.2832 49.7059 49.4391 50.2364 49.4391Z" fill="white"/>
<path d="M53.0935 49.7273V45.6487H53.7308L55.4175 49.3479L57.1302 45.6487H57.7155V49.7273H57.3234L57.3407 45.9986L55.6453 49.7273H55.1839L53.4453 45.9986L53.4857 49.7273H53.0935Z" fill="white"/>
<path d="M58.2347 49.7273L60.0772 45.6487H60.5356L62.3579 49.7273H61.9542L61.3948 48.4657H59.2064L58.6413 49.7273H58.2289H58.2347ZM59.3851 48.0717H61.219L60.305 45.9869L59.3851 48.0717Z" fill="white"/>
<path d="M63.5373 49.7273V46.0222H61.9947V45.6487H65.4807V46.0222H63.938V49.7273H63.5373Z" fill="white"/>
<path d="M66.3927 45.6487H65.9919V49.7273H66.3927V45.6487Z" fill="white"/>
<path d="M71.3687 47.6895C71.3687 48.354 71.1813 48.8804 70.8065 49.2627C70.4316 49.645 69.9184 49.836 69.2668 49.836C68.6151 49.836 68.099 49.645 67.7242 49.2627C67.3493 48.8804 67.1648 48.357 67.1648 47.6895C67.1648 47.0219 67.3522 46.4985 67.7242 46.1134C68.0962 45.7311 68.6123 45.5399 69.2668 45.5399C69.9213 45.5399 70.4316 45.7311 70.8065 46.1134C71.1813 46.4956 71.3687 47.0219 71.3687 47.6895ZM69.2639 49.4391C69.7915 49.4391 70.2067 49.2832 70.5066 48.9716C70.8064 48.6598 70.9564 48.2334 70.9564 47.6865C70.9564 47.1395 70.8064 46.7103 70.5066 46.3985C70.2067 46.0898 69.7915 45.934 69.2639 45.934C68.7362 45.934 68.3181 46.0898 68.0183 46.3985C67.7184 46.7073 67.5685 47.1367 67.5685 47.6865C67.5685 48.2364 67.7184 48.6598 68.0183 48.9716C68.3181 49.2832 68.7334 49.4391 69.2639 49.4391Z" fill="white"/>
<path d="M72.1156 49.7273V45.6487H72.6232L75.4229 49.3068V45.6487H75.8092V49.7273H75.2758L72.5021 46.0663V49.7273H72.1156Z" fill="white"/>
<path d="M80.3507 49.7273V45.6487H80.9908L82.6776 49.3479L84.3874 45.6487H84.9756V49.7273H84.5835L84.5979 45.9986L82.9053 49.7273H82.4441L80.7054 45.9986L80.7458 49.7273H80.3507Z" fill="white"/>
<path d="M85.4935 49.7273L87.336 45.6487H87.7944L89.6168 49.7273H89.2131L88.6537 48.4657H86.4652L85.9001 49.7273H85.4878H85.4935ZM86.644 48.0717H88.4778L87.5638 45.9869L86.644 48.0717Z" fill="white"/>
<path d="M91.5984 45.6487C92.0513 45.6487 92.3973 45.6781 92.6338 45.734C92.8704 45.7899 93.0752 45.8869 93.2482 46.0251C93.4609 46.1927 93.6198 46.4162 93.7239 46.6897C93.8272 46.9631 93.8793 47.2983 93.8793 47.6894C93.8793 48.0806 93.8272 48.4158 93.7239 48.6892C93.6198 48.9627 93.4583 49.1862 93.2394 49.3597C93.0716 49.492 92.8704 49.5861 92.6338 49.642C92.3973 49.6979 92.0539 49.7273 91.5984 49.7273H90.1394V45.6487H91.5984ZM91.5093 46.0163H90.5401V49.3391H91.5984C91.9471 49.3391 92.219 49.3185 92.4149 49.2774C92.6082 49.2361 92.7751 49.1685 92.9101 49.0774C93.1008 48.948 93.242 48.7686 93.3347 48.5422C93.4265 48.3129 93.4697 48.0188 93.4697 47.66C93.4697 47.319 93.4238 47.0366 93.3311 46.8073C93.2393 46.5808 93.0981 46.4015 92.9101 46.2721C92.7751 46.181 92.6047 46.1134 92.4087 46.0751C92.2101 46.0369 91.91 46.0163 91.5119 46.0163H91.5093Z" fill="white"/>
<path d="M94.6287 49.7273V45.6487H97.7022V46.028H95.0268V47.4571H97.4974V47.8394H95.0268V49.342H97.7022V49.7273H94.6287Z" fill="white"/>
<path d="M102.025 49.7273V45.6487H105.098V46.028H102.423V47.4571H104.891V47.8394H102.423V49.342H105.098V49.7273H102.025Z" fill="white"/>
<path d="M105.401 49.7273L107.243 45.6487H107.701L109.524 49.7273H109.121L108.561 48.4657H106.373L105.807 49.7273H105.395H105.401ZM106.551 48.0717H108.385L107.471 45.9869L106.551 48.0717Z" fill="white"/>
<path d="M109.898 48.3834H110.302V48.404C110.302 48.7157 110.417 48.9627 110.648 49.1509C110.878 49.3391 111.187 49.4332 111.57 49.4332C111.954 49.4332 112.253 49.3567 112.476 49.2068C112.697 49.0539 112.81 48.851 112.81 48.5952C112.81 48.4011 112.747 48.2511 112.617 48.1511C112.487 48.0512 112.219 47.9629 111.813 47.8865L110.962 47.7365C110.645 47.6806 110.408 47.5689 110.249 47.4012C110.094 47.2337 110.013 47.0043 110.013 46.7191C110.013 46.3604 110.152 46.0751 110.423 45.8604C110.696 45.6458 111.066 45.5399 111.533 45.5399C112 45.5399 112.394 45.6516 112.672 45.8722C112.949 46.0927 113.093 46.4015 113.107 46.7955H112.706C112.68 46.5074 112.571 46.2898 112.371 46.1398C112.176 45.9898 111.899 45.9163 111.541 45.9163C111.183 45.9163 110.921 45.9868 110.72 46.1281C110.518 46.2692 110.417 46.4603 110.417 46.7014C110.417 46.8925 110.486 47.0396 110.627 47.1425C110.769 47.2454 111.031 47.3307 111.415 47.3984L112.176 47.5336C112.539 47.6013 112.808 47.7159 112.974 47.8835C113.145 48.0512 113.228 48.2835 113.228 48.5834C113.228 48.9774 113.084 49.2832 112.799 49.5067C112.513 49.7273 112.115 49.839 111.604 49.839C111.094 49.839 110.656 49.7155 110.35 49.4656C110.045 49.2186 109.895 48.8774 109.895 48.4482V48.3864L109.898 48.3834Z" fill="white"/>
<path d="M115.351 49.7273V47.9629L113.628 45.6487H114.138L115.547 47.6365L116.977 45.6487H117.471L115.749 47.9629V49.7273H115.351Z" fill="white"/>
<path d="M35.8374 49.7273L37.6799 45.6487H38.1383L39.9606 49.7273H39.5569L38.9976 48.4657H36.8091L36.244 49.7273H35.8317H35.8374ZM36.9879 48.0717H38.8217L37.9076 45.9869L36.9879 48.0717Z" fill="white"/>
<path d="M12.1276 41.4616C12.1103 41.441 12.0958 41.4146 12.0785 41.394C10.7234 39.5179 10.5244 36.8831 11.6605 34.6454C14.887 35.8951 18.1538 40.1795 18.3931 43.4611C18.2691 43.4994 18.1422 43.5318 18.0183 43.5612L18.0125 43.5553C17.6867 43.6347 17.3551 43.6817 17.0235 43.7053C16.9255 43.7111 16.8245 43.7141 16.7266 43.7141C15.0109 43.7141 13.3011 42.9466 12.1276 41.4616ZM9.06547 29.026C8.95879 29.1172 8.8521 29.2142 8.74542 29.3113C5.7179 31.8754 4.31659 35.7187 4.66548 39.5003C4.76063 41.6469 5.50165 43.7964 6.93755 45.6137C9.64791 49.0424 14.0133 50.2774 17.8366 49.0688L17.8309 49.0747C16.1643 50.4097 10.8791 52.2946 5.9947 46.9722C1.15932 41.9174 2.71345 30.2375 9.08565 27.644C4.69719 29.3436 2.12524 33.0046 1.26601 36.8126C0.527871 41.2528 1.30061 44.6874 3.90139 47.8837C7.56901 52.3916 12.3093 52.6386 12.3093 52.6386C12.8686 52.7004 14.7975 52.7651 16.369 52.1299C17.7617 51.5653 19.1169 50.7449 19.7541 49.0364C21.5532 44.1934 19.9991 38.4211 15.85 34.9189C15.0541 34.2484 14.2007 33.6456 13.3703 33.0222L13.0272 32.8105C13.3703 32.4841 13.8605 32.1342 14.2498 31.896C16.4728 32.7546 26.4665 40.2707 20.521 50.7596C29.3325 40.4 19.6444 32.69 16.914 31.0903C17.0408 31.0785 17.1676 31.0756 17.2946 31.0727C17.828 31.0756 18.3614 31.152 18.8804 31.3079C18.8861 31.3079 18.892 31.3108 18.8977 31.3138C19.0304 31.3549 19.1572 31.4049 19.284 31.4549C22.8392 32.9164 26.8672 39.1738 25.1776 45.1961C25.2468 45.1519 28.7271 36.5773 22.0752 30.6139C20.4374 29.1466 18.6065 28.4497 16.6688 28.5908C13.8749 28.6967 11.1472 30.361 9.65367 33.1957C7.44791 37.386 8.76272 42.5408 12.5918 44.7139C14.5034 45.7989 16.6833 45.9312 18.6584 45.2725C18.6987 45.8136 18.6872 46.3753 18.6122 46.9251C15.2041 48.1866 12.4967 47.2751 10.8906 46.3606C9.84977 45.7665 9.27307 45.1755 9.27019 45.1755C9.12025 45.0285 7.78238 43.9523 7.09614 41.8645C5.74385 37.7419 6.78762 32.884 10.4956 29.8347C12.4736 28.2086 14.5842 27.4381 16.8794 27.397C16.1412 27.1353 15.331 27 14.492 27C12.6524 27 10.683 27.6469 9.06547 29.026Z" fill="white"/>
<path d="M37.9251 29.9701C37.3457 29.9701 36.841 30.1877 36.4258 30.62C35.9991 31.067 35.7943 31.5933 35.7943 32.2167V38.6507C35.7943 39.2593 36.0019 39.7857 36.4258 40.2297C36.8381 40.662 37.3427 40.8796 37.9251 40.8796H44.7673C44.9749 40.8796 45.1566 40.8001 45.3095 40.6502C45.4507 40.4885 45.5286 40.2974 45.5286 40.068C45.5286 39.8503 45.4507 39.6622 45.3095 39.5004C45.1538 39.3505 44.9721 39.2711 44.7673 39.2711H37.9251C37.7695 39.2711 37.6282 39.2152 37.5128 39.0829C37.3976 38.9594 37.3312 38.8124 37.3312 38.6507V32.2167C37.3312 32.0403 37.3976 31.8903 37.5128 31.7551C37.6282 31.6345 37.7695 31.5786 37.9251 31.5786H44.7673C44.9749 31.5786 45.1566 31.4963 45.3095 31.3493C45.4507 31.1875 45.5286 30.9964 45.5286 30.7817C45.5286 30.5524 45.4507 30.3612 45.3095 30.2142C45.1538 30.0525 44.9721 29.9701 44.7673 29.9701H37.9251ZM48.4754 39.0799C48.3456 38.9565 48.2937 38.8094 48.2937 38.6477V32.2167C48.2937 32.0403 48.3456 31.8903 48.4754 31.7551C48.5907 31.6345 48.7204 31.5786 48.8905 31.5786H54.3516C54.5188 31.5786 54.663 31.6315 54.7784 31.7551C54.8937 31.8903 54.96 32.0373 54.96 32.2167V38.6507C54.96 38.8124 54.8937 38.9594 54.7784 39.0829C54.663 39.2182 54.5188 39.2711 54.3516 39.2711H48.8905C48.7204 39.2711 48.5936 39.2152 48.4754 39.0829V39.0799ZM48.8905 29.9731C48.3081 29.9731 47.8064 30.1907 47.3797 30.6229C46.9673 31.0699 46.7597 31.5963 46.7597 32.2197V38.6536C46.7597 39.2623 46.9673 39.7887 47.3797 40.2326C47.8064 40.6649 48.3081 40.8825 48.8905 40.8825H54.3516C54.9456 40.8825 55.4472 40.6678 55.8625 40.2326C56.2892 39.7857 56.4968 39.2593 56.4968 38.6536V32.2167C56.4968 31.5933 56.2892 31.067 55.8625 30.62C55.4502 30.1877 54.9456 29.9701 54.3516 29.9701H48.8905V29.9731ZM59.2591 36.2306H64.4635C64.8643 36.2306 65.2131 36.3805 65.4842 36.6775C65.7697 36.9746 65.911 37.3392 65.911 37.745C65.911 38.1772 65.7697 38.5301 65.4842 38.8271C65.2131 39.124 64.8643 39.274 64.4635 39.274H59.2591V36.2335V36.2306ZM59.2591 31.5816H64.4635C64.8643 31.5816 65.2131 31.7315 65.4842 32.0285C65.7697 32.3255 65.911 32.6902 65.911 33.0959C65.911 33.5282 65.7697 33.8811 65.4842 34.1781C65.2131 34.4751 64.8643 34.625 64.4635 34.625H59.2591V31.5786V31.5816ZM58.4863 29.9731C58.2787 29.9731 58.1 30.0554 57.9443 30.2171C57.7886 30.3642 57.7136 30.5553 57.7136 30.7847V40.0709C57.7136 40.3003 57.7915 40.4885 57.9443 40.6531C58.1 40.8031 58.2816 40.8825 58.4863 40.8825H64.4635C65.291 40.8825 65.9859 40.5738 66.5828 39.9651C67.1652 39.3563 67.4477 38.6124 67.4477 37.7479C67.4477 36.8305 67.1249 36.0453 66.4674 35.4366C67.1249 34.8015 67.4477 34.031 67.4477 33.0989C67.4477 32.2491 67.1652 31.5051 66.5828 30.8964C65.9888 30.276 65.291 29.976 64.4635 29.976H58.4863V29.9731ZM70.3917 39.0829C70.2764 38.9594 70.21 38.8124 70.21 38.6507V32.2167C70.21 32.0403 70.2735 31.8903 70.3917 31.7551C70.5099 31.6345 70.6512 31.5786 70.8069 31.5786H76.2823C76.4496 31.5786 76.5794 31.6315 76.7062 31.7551C76.8216 31.8903 76.8735 32.0373 76.8735 32.2167V38.6507C76.8735 38.8124 76.8216 38.9594 76.7062 39.0829C76.5764 39.2182 76.4496 39.2711 76.2823 39.2711H70.8069C70.6512 39.2711 70.5099 39.2152 70.3917 39.0829ZM70.8069 29.9731C70.2245 29.9731 69.7199 30.1907 69.3076 30.6229C68.8808 31.0699 68.6732 31.5963 68.6732 32.2197V38.6536C68.6732 39.2623 68.8808 39.7887 69.3076 40.2326C69.7199 40.6649 70.2245 40.8825 70.8069 40.8825H76.2823C76.8619 40.8825 77.3665 40.6678 77.7932 40.2326C78.2055 39.7857 78.4131 39.2593 78.4131 38.6536V32.2167C78.4131 31.5933 78.2084 31.067 77.7932 30.62C77.3665 30.1877 76.8648 29.9701 76.2823 29.9701H70.8069V29.9731ZM80.4113 29.9731C80.1922 29.9731 80.0105 30.0554 79.8577 30.2171C79.7164 30.3642 79.6385 30.5553 79.6385 30.7847C79.6385 31.0023 79.7164 31.1905 79.8577 31.3522C80.0134 31.5022 80.1951 31.5816 80.4113 31.5816H83.8973V40.0709C83.8973 40.3003 83.9752 40.4885 84.128 40.6531C84.2837 40.8031 84.4624 40.8825 84.67 40.8825C84.8892 40.8825 85.0708 40.8031 85.2121 40.6531C85.3678 40.4914 85.4312 40.3003 85.4312 40.0709V31.5786H88.6087C88.8134 31.5786 88.9951 31.4963 89.1508 31.3493C89.292 31.1875 89.3697 30.9964 89.3697 30.7817C89.3697 30.5524 89.292 30.3612 89.1508 30.2142C88.9951 30.0525 88.8134 29.9701 88.6087 29.9701H80.4084L80.4113 29.9731ZM95.2466 29.9731C95.0418 29.9731 94.8449 30.0554 94.6896 30.2171C94.5484 30.3642 94.4707 30.5553 94.4707 30.7847C94.4707 31.0023 94.5484 31.1905 94.6896 31.3522C94.8449 31.5022 95.0383 31.5816 95.2466 31.5816H101.223C101.624 31.5816 101.958 31.7315 102.244 32.0285C102.527 32.3255 102.671 32.6902 102.671 33.0959C102.671 33.5282 102.53 33.8811 102.244 34.1781C101.958 34.4751 101.624 34.625 101.223 34.625H95.5802C95.3728 34.625 95.1945 34.7074 95.0383 34.8691C94.897 35.0161 94.8193 35.2073 94.8193 35.4366V40.0738C94.8193 40.3032 94.897 40.4914 95.0383 40.6561C95.1945 40.8061 95.3728 40.8854 95.5802 40.8854C95.8 40.8854 95.9818 40.8061 96.1231 40.6561C96.2784 40.4943 96.3534 40.3032 96.3534 40.0738V36.2364H101.221C102.048 36.2364 102.743 35.9395 103.34 35.319C103.922 34.7103 104.205 33.9663 104.205 33.1018C104.205 32.2373 103.922 31.508 103.34 30.8994C102.746 30.2789 102.048 29.979 101.221 29.979H95.243L95.2466 29.9731ZM105.655 30.2171C105.514 30.3642 105.436 30.5553 105.436 30.7847V40.0709C105.436 40.3003 105.514 40.4885 105.655 40.6531C105.81 40.8031 105.99 40.8825 106.211 40.8825H114.409C114.616 40.8825 114.795 40.8031 114.951 40.6531C115.092 40.4914 115.17 40.3003 115.17 40.0709C115.17 39.8533 115.092 39.6651 114.951 39.5034C114.795 39.3535 114.616 39.274 114.409 39.274H106.973V30.7817C106.973 30.5524 106.895 30.3612 106.753 30.2142C106.598 30.0525 106.416 29.9701 106.211 29.9701C105.992 29.9701 105.81 30.0525 105.655 30.2142V30.2171ZM117.935 33.6341C117.935 33.0665 118.117 32.5931 118.503 32.1873C118.889 31.7815 119.357 31.5786 119.899 31.5786H122.624C123.18 31.5786 123.644 31.7815 124.019 32.1873C124.405 32.5931 124.602 33.0665 124.602 33.6341V34.6191H117.939V33.6341H117.935ZM119.896 29.9701C118.927 29.9701 118.103 30.3348 117.416 31.0523C116.733 31.7698 116.396 32.6196 116.396 33.6341V40.068C116.396 40.2974 116.459 40.4855 116.615 40.6502C116.771 40.8001 116.949 40.8796 117.156 40.8796C117.376 40.8796 117.557 40.8001 117.698 40.6502C117.855 40.4885 117.932 40.2974 117.932 40.068V36.2306H124.596V40.068C124.596 40.2974 124.659 40.4855 124.815 40.6502C124.971 40.8001 125.149 40.8796 125.357 40.8796C125.576 40.8796 125.757 40.8001 125.899 40.6502C126.055 40.4885 126.132 40.2974 126.132 40.068V33.6341C126.132 32.6196 125.784 31.7698 125.101 31.0523C124.417 30.3348 123.589 29.9701 122.62 29.9701H119.896ZM139.085 29.9701C138.865 29.9701 138.684 30.0525 138.528 30.2142C138.387 30.3612 138.309 30.5524 138.309 30.7817V40.068C138.309 40.2974 138.387 40.4855 138.528 40.6502C138.684 40.8001 138.863 40.8796 139.085 40.8796H147.282C147.49 40.8796 147.671 40.8001 147.827 40.6502C147.968 40.4885 148.046 40.2974 148.046 40.068C148.046 39.8503 147.968 39.6622 147.827 39.5004C147.671 39.3505 147.49 39.2711 147.282 39.2711H139.846V36.2306H147.282C147.49 36.2306 147.671 36.1482 147.827 36.0012C147.968 35.8395 148.046 35.6483 148.046 35.4337C148.046 35.2043 147.968 35.0132 147.827 34.8662C147.671 34.7044 147.49 34.6221 147.282 34.6221H139.846V31.5786H147.282C147.49 31.5786 147.671 31.4963 147.827 31.3493C147.968 31.1875 148.046 30.9964 148.046 30.7817C148.046 30.5524 147.968 30.3612 147.827 30.2142C147.671 30.0525 147.49 29.9701 147.282 29.9701H139.085ZM150.033 29.9701C149.825 29.9701 149.644 30.0525 149.491 30.2142C149.335 30.3612 149.271 30.5524 149.271 30.7817C149.271 30.9993 149.335 31.1875 149.491 31.3493C149.646 31.4992 149.825 31.5786 150.033 31.5786H153.53V40.068C153.53 40.2974 153.608 40.4855 153.76 40.6502C153.903 40.8001 154.083 40.8796 154.303 40.8796C154.522 40.8796 154.689 40.8001 154.845 40.6502C155.001 40.4885 155.064 40.2974 155.064 40.068V31.5786H158.227C158.447 31.5786 158.628 31.4963 158.77 31.3493C158.925 31.1875 159 30.9964 159 30.7817C159 30.5524 158.922 30.3612 158.77 30.2142C158.628 30.0525 158.447 29.9701 158.227 29.9701H150.03H150.033ZM127.837 30.026C127.514 30.1613 127.346 30.4024 127.346 30.7817V40.068C127.346 40.2974 127.425 40.4855 127.566 40.6502C127.721 40.8001 127.915 40.8796 128.122 40.8796C128.329 40.8796 128.509 40.8001 128.664 40.6502C128.82 40.4885 128.883 40.2974 128.883 40.068V32.8372L135.755 40.6237C135.91 40.8001 136.103 40.8796 136.322 40.8796C136.426 40.8796 136.515 40.8678 136.593 40.8267C136.928 40.6914 137.084 40.4473 137.084 40.0709V30.7817C137.084 30.5524 137.02 30.3612 136.864 30.2142C136.709 30.0525 136.53 29.9701 136.322 29.9701C136.115 29.9701 135.936 30.0525 135.78 30.2142C135.625 30.3612 135.55 30.5524 135.55 30.7817V38.0125L128.682 30.226C128.525 30.0466 128.352 29.9554 128.156 29.9554C128.058 29.9554 127.952 29.979 127.84 30.0231" fill="white"/>
</g>
<defs>
<clipPath id="clip0_280_559">
<rect width="158" height="26" fill="white" transform="translate(1 27)"/>
</clipPath>
</defs>
</svg>
