<svg width="160" height="80" viewBox="0 0 160 80" fill="none" xmlns="http://www.w3.org/2000/svg">
<g clip-path="url(#clip0_280_669)">
<mask id="mask0_280_669" style="mask-type:luminance" maskUnits="userSpaceOnUse" x="30" y="30" width="99" height="19">
<path d="M128.451 30H30V49H128.451V30Z" fill="white"/>
</mask>
<g mask="url(#mask0_280_669)">
<path d="M42.5991 48.6036H30V30.2302H42.5991V33.9055H33.6768V37.5866H39.7125V41.2618H33.6768V44.9283H42.5991V48.6036Z" fill="white"/>
<path d="M59.6477 48.6036H55.7085L48.6173 36.5111V48.6036H44.9347V30.2302H48.8738L55.9622 42.3373V30.2302H59.6477V48.6036Z" fill="white"/>
<path d="M70.5294 48.6036H66.8701V33.9055H61.3447V30.2302H76.0489V33.9055H70.5294V48.6036Z" fill="white"/>
<path d="M81.4374 48.6036H77.7547V30.2302H85.1142C85.7906 30.2302 86.4379 30.3177 87.0677 30.4925C87.6888 30.6674 88.2719 30.9151 88.8143 31.2328C89.3567 31.5505 89.8494 31.9352 90.3043 32.3899C90.7504 32.8358 91.1323 33.3313 91.4531 33.8793C91.7709 34.4301 92.0275 35.0101 92.2025 35.6338C92.3774 36.2546 92.459 36.9104 92.459 37.5866C92.459 38.2161 92.3862 38.8311 92.2287 39.4285C92.0683 40.026 91.8467 40.5915 91.5435 41.1336C91.2577 41.667 90.8904 42.1712 90.4675 42.6171C90.0361 43.0718 89.5578 43.471 89.033 43.7975L91.0653 48.6036H87.1582L85.5544 44.9051L81.4403 44.9283V48.6036H81.4374ZM81.4374 33.9055V41.2618H85.1142C85.6245 41.2618 86.0939 41.1656 86.5429 40.9762C86.9803 40.7838 87.371 40.5215 87.7063 40.1863C88.0416 39.8512 88.304 39.4606 88.4965 39.0147C88.6889 38.56 88.7822 38.0908 88.7822 37.5866C88.7822 37.0823 88.686 36.6073 88.4965 36.1526C88.304 35.7067 88.0416 35.3161 87.7063 34.981C87.371 34.6458 86.9803 34.3835 86.5429 34.1911C86.0968 33.9987 85.6274 33.9055 85.1142 33.9055H81.4374Z" fill="white"/>
<path d="M112.648 39.4927C112.648 40.3613 112.537 41.2064 112.304 42.0109C112.079 42.8153 111.761 43.5731 111.347 44.2814C110.942 44.9837 110.447 45.6278 109.864 46.2108C109.28 46.7849 108.644 47.2863 107.942 47.7001C107.239 48.114 106.484 48.4346 105.67 48.6561C104.866 48.8863 104.02 49 103.151 49C102.282 49 101.437 48.8892 100.632 48.6561C99.8184 48.4317 99.0691 48.114 98.3605 47.7001C97.6579 47.2863 97.0134 46.782 96.4303 46.2108C95.8471 45.6278 95.3543 44.9837 94.9404 44.2814C94.5263 43.5731 94.2055 42.8153 93.9752 42.0109C93.7507 41.2064 93.6399 40.3613 93.6399 39.4927C93.6399 38.6242 93.7507 37.779 93.9752 36.9658C94.2055 36.1614 94.5263 35.4036 94.9404 34.7012C95.3543 33.9988 95.8501 33.3634 96.4303 32.7805C97.0134 32.1976 97.6579 31.705 98.3605 31.2911C99.0691 30.886 99.8184 30.5654 100.632 30.3352C101.437 30.1108 102.274 30 103.151 30C104.029 30 104.866 30.1108 105.67 30.3352C106.484 30.5654 107.242 30.886 107.942 31.2911C108.644 31.705 109.28 32.2005 109.864 32.7805C110.447 33.3634 110.939 33.9988 111.347 34.7012C111.761 35.4036 112.082 36.1585 112.304 36.9658C112.534 37.779 112.648 38.6242 112.648 39.4927ZM108.997 39.4927C108.997 38.6883 108.837 37.9305 108.534 37.2223C108.222 36.5053 107.808 35.8903 107.283 35.3657C106.758 34.8411 106.134 34.4185 105.425 34.1154C104.708 33.8035 103.95 33.6519 103.154 33.6519C102.358 33.6519 101.577 33.8035 100.865 34.1154C100.157 34.4185 99.5414 34.8411 99.0078 35.3657C98.483 35.8932 98.0602 36.5053 97.7569 37.2223C97.445 37.9305 97.2934 38.6883 97.2934 39.4927C97.2934 40.2971 97.445 41.0462 97.7569 41.7574C98.0602 42.4597 98.483 43.0805 99.0078 43.6052C99.5414 44.1385 100.157 44.5524 100.865 44.8643C101.574 45.1674 102.341 45.3277 103.154 45.3277C103.968 45.3277 104.708 45.1674 105.425 44.8643C106.134 44.5524 106.758 44.1385 107.283 43.6052C107.808 43.0805 108.225 42.4568 108.534 41.7574C108.837 41.0491 108.997 40.3001 108.997 39.4927Z" fill="white"/>
<path d="M113.747 35.7387C113.747 34.981 113.89 34.264 114.179 33.5936C114.473 32.932 114.864 32.3491 115.366 31.8478C115.867 31.3465 116.45 30.956 117.112 30.6616C117.783 30.376 118.491 30.2302 119.258 30.2302H127.693V33.9055H119.258C119.001 33.9055 118.763 33.9521 118.541 34.0483C118.316 34.1445 118.127 34.2727 117.957 34.4388C117.792 34.605 117.655 34.7973 117.567 35.0218C117.471 35.2462 117.424 35.4852 117.424 35.7387C117.424 35.9923 117.471 36.2342 117.567 36.4645C117.655 36.6889 117.792 36.8871 117.957 37.0532C118.123 37.2193 118.316 37.3476 118.541 37.4438C118.765 37.5399 119.004 37.5866 119.258 37.5866H122.935C123.702 37.5866 124.41 37.7294 125.087 38.0092C125.758 38.2948 126.337 38.6941 126.842 39.1895C127.338 39.6909 127.734 40.2738 128.023 40.95C128.309 41.6204 128.454 42.3286 128.454 43.0951C128.454 43.8616 128.312 44.5699 128.023 45.2315C127.737 45.9018 127.338 46.4818 126.842 46.986C126.34 47.4815 125.758 47.8778 125.087 48.1664C124.41 48.4607 123.698 48.6036 122.935 48.6036H114.771V44.9283H122.935C123.191 44.9283 123.431 44.8817 123.652 44.7855C123.877 44.6893 124.066 44.5611 124.235 44.395C124.402 44.2288 124.539 44.0365 124.626 43.8121C124.722 43.5876 124.769 43.3486 124.769 43.0951C124.769 42.8415 124.722 42.5996 124.626 42.3781C124.539 42.1537 124.402 41.9643 124.235 41.7952C124.069 41.6291 123.877 41.4921 123.652 41.4046C123.427 41.3084 123.188 41.2618 122.935 41.2618H119.258C118.491 41.2618 117.783 41.119 117.112 40.8246C116.45 40.539 115.867 40.1397 115.366 39.6443C114.864 39.1429 114.473 38.5513 114.179 37.8839C113.893 37.2135 113.747 36.4965 113.747 35.7387Z" fill="white"/>
</g>
</g>
<defs>
<clipPath id="clip0_280_669">
<rect width="99" height="19" fill="white" transform="translate(30 30)"/>
</clipPath>
</defs>
</svg>
