<svg width="160" height="80" viewBox="0 0 160 80" fill="none" xmlns="http://www.w3.org/2000/svg">
<path d="M18.641 37.2745C18.4762 36.1291 18.0781 35.0803 17.1309 34.3627C15.4972 33.1346 13.7262 33.107 11.9003 33.8936C11.2826 34.1558 10.8295 34.6387 10.349 35.1493V28.5254H7.4798V46.5619H10.3078C10.3216 46.4653 10.3353 46.3963 10.3353 46.3135V39.6067C10.3353 39.2755 10.349 38.9443 10.3765 38.6269C10.5412 37.0399 11.612 35.7703 13.1359 35.7289C14.3303 35.6875 15.2912 36.1429 15.6482 37.3573C15.7992 37.8679 15.8678 38.4337 15.8678 38.9719C15.8953 41.3731 15.8816 43.7881 15.8816 46.2031V46.5481H18.7508V46.1755C18.7508 43.7053 18.7645 41.2351 18.7508 38.7649C18.7508 38.2681 18.7096 37.7713 18.641 37.2745Z" fill="white"/>
<path d="M5.94222 36.8743V28.5668C4.54192 29.9744 3.16909 31.3544 1.8237 32.7205C3.18281 34.0867 4.55565 35.4805 5.94222 36.8743Z" fill="#DAB184"/>
<path d="M44.9171 33.7003V35.5081C44.7661 35.3149 44.6837 35.1907 44.5876 35.0665C44.0934 34.4179 43.5168 33.8797 42.748 33.6037C40.6888 32.8447 37.6685 33.4657 36.4467 36.3775C35.5406 38.5441 35.5132 40.7797 36.3094 42.9876C37.037 45.03 38.4922 46.2168 40.7025 46.3824C42.3224 46.5066 43.6266 45.9408 44.6151 44.6298C44.67 44.5608 44.7386 44.478 44.8485 44.34C44.8485 45.4578 44.9308 46.4928 44.6288 47.4864C44.3542 48.3696 43.7914 48.9768 42.8716 49.2114C42.1851 49.377 41.4987 49.3632 40.826 49.2114C40.3318 49.101 39.8513 48.8802 39.563 48.4386C39.3571 48.135 39.261 47.7762 39.0963 47.4036H36.3231C36.3369 47.5002 36.3369 47.5692 36.3506 47.6382C36.5565 49.4046 37.5587 50.5362 39.1924 51.0744C40.7849 51.5988 42.4323 51.5988 44.0522 51.171C45.5761 50.7708 46.6881 49.8462 47.2509 48.3282C47.5255 47.5554 47.6628 46.755 47.6628 45.927V33.9901C47.6628 33.8935 47.649 33.7969 47.649 33.7003H44.9171ZM44.9583 40.3243C44.9171 41.1799 44.7112 41.9802 44.2581 42.7254C43.2285 44.4228 40.4966 44.547 39.4257 42.6564C38.9315 41.7732 38.7805 40.8349 38.7668 39.8413C38.7805 38.8615 38.9315 37.9093 39.4807 37.0123C40.5377 35.2459 43.1736 35.3839 44.1895 36.9295C44.8759 37.9783 45.0269 39.1237 44.9583 40.3243Z" fill="white"/>
<path d="M70.1224 46.2996C70.04 45.3888 69.889 44.4918 69.8753 43.581C69.8341 41.8422 69.8753 40.1035 69.8616 38.3647C69.8616 37.9369 69.8204 37.4815 69.738 37.0537C69.4085 35.2321 68.324 34.0867 66.553 33.6313C65.2626 33.3001 63.9584 33.3139 62.6679 33.6175C61.5696 33.8659 60.6773 34.4593 60.0183 35.3977C59.5241 36.0877 59.2907 36.8743 59.2495 37.7299H62.0501C62.2698 35.7565 63.7799 35.2873 65.2763 35.5633C66.6354 35.8117 67.2532 36.9019 67.0747 38.6545C66.9923 38.6545 66.9237 38.6683 66.8413 38.6821C65.7431 38.8201 64.6173 38.9167 63.5191 39.0823C62.4894 39.2341 61.4598 39.4963 60.5263 40.0069C59.881 40.3519 59.3594 40.8348 59.0573 41.4972C58.2748 43.2084 58.7004 45.5682 60.993 46.5618C61.8442 46.9206 62.7365 46.9758 63.6426 46.9068C65.0978 46.7964 66.3196 46.2444 67.2257 45.0576C67.2669 45.0024 67.3081 44.9472 67.3767 44.8782C67.4454 45.4026 67.514 45.9132 67.5552 46.41C67.5827 46.617 67.6788 46.6584 67.8572 46.6584H70.1636C70.1361 46.5066 70.1361 46.3962 70.1224 46.2996ZM66.91 42.8496C66.5942 43.8984 65.5371 44.6988 64.3977 44.7816C63.8073 44.823 63.217 44.823 62.6542 44.5608C61.954 44.2296 61.6383 43.6638 61.6245 42.9048C61.6108 42.1596 61.9128 41.5524 62.6404 41.304C63.3406 41.0556 64.0682 40.89 64.7958 40.7658C65.4685 40.6555 66.1686 40.6279 66.8688 40.5589H67.0884C67.1296 41.3592 67.1159 42.1182 66.91 42.8496Z" fill="white"/>
<path d="M55.2271 33.8246C54.3485 34.1558 53.7307 34.8044 53.2228 35.5772C53.2091 35.5634 53.1816 35.5496 53.1679 35.5358V33.7004H50.532V46.5619H53.3875V46.2031C53.3875 44.2297 53.3738 42.2425 53.3875 40.2691C53.3875 39.7861 53.4287 39.3031 53.5248 38.8339C53.8543 37.1365 54.9663 36.1981 56.6686 36.1015C57.0805 36.0877 57.4923 36.1015 57.9179 36.1015V33.6452C56.9981 33.4382 56.092 33.4796 55.2271 33.8246Z" fill="white"/>
<path d="M79.0596 38.4889L77.8789 36.8467L77.4946 37.2469V38.4751H76.7395V34.5422H77.4946V36.1981L79.1969 34.4594L79.746 34.8871L78.4006 36.2947L79.9931 38.4751L79.0596 38.4889Z" fill="white"/>
<path d="M80.5285 34.5421H81.7503C82.2034 34.5421 82.574 34.6387 82.8623 34.8457C83.1506 35.0527 83.3016 35.3563 83.3016 35.7427C83.3016 35.9773 83.2467 36.1843 83.1232 36.3637C82.9996 36.5431 82.8349 36.6811 82.6427 36.7777L83.6037 38.4751H82.8074L81.9837 36.9847H81.2836V38.4751H80.5422V34.5421H80.5285ZM81.7366 35.1631H81.2698V36.3637H81.7366C81.97 36.3637 82.1622 36.3223 82.2995 36.2257C82.4368 36.1291 82.5054 35.9773 82.5054 35.7841C82.5191 35.3701 82.2583 35.1631 81.7366 35.1631Z" fill="white"/>
<path d="M84.1528 38.4889V34.5421H86.5004L86.6102 35.1355H84.8942V36.1981H86.1709L86.2945 36.7915H84.8942V37.8955H86.7749L86.8985 38.4751L84.1528 38.4889Z" fill="white"/>
<path d="M89.2323 34.5421L90.7562 38.4337L90.0011 38.5441L89.6442 37.5643H88.1615L87.8183 38.4889H87.0632L88.5871 34.5421H89.2323ZM88.9028 35.5771L88.3949 36.9571H89.4382L88.9028 35.5771Z" fill="white"/>
<path d="M94.1608 35.1355H92.8154V38.4889H92.0604V35.1355H90.866V34.5421H94.0373L94.1608 35.1355Z" fill="white"/>
<path d="M94.71 38.4889V34.5421H95.4513V38.4889H94.71Z" fill="white"/>
<path d="M97.8537 37.4539L98.9383 34.5421H99.6933L98.1695 38.4889H97.538L96.0004 34.5835L96.7555 34.4731L97.8537 37.4539Z" fill="white"/>
<path d="M103.208 37.2883L102.274 36.0739V38.4751H101.533V34.5421H102L103.331 36.3637L104.539 34.5421H104.993V38.4889H104.237V36.2119L103.51 37.2469L103.208 37.2883Z" fill="white"/>
<path d="M107.697 34.5421L109.221 38.4337L108.466 38.5441L108.109 37.5643H106.626L106.283 38.4889H105.528L107.052 34.5421H107.697ZM107.368 35.5771L106.86 36.9571H107.903L107.368 35.5771Z" fill="white"/>
<path d="M109.77 34.5421H110.992C111.445 34.5421 111.816 34.6387 112.104 34.8457C112.392 35.0527 112.543 35.3563 112.543 35.7427C112.543 35.9773 112.488 36.1843 112.365 36.3637C112.241 36.5431 112.076 36.6811 111.884 36.7777L112.845 38.4751H112.049L111.225 36.9847H110.525V38.4751H109.784V34.5421H109.77ZM110.978 35.1631H110.511V36.3637H110.978C111.211 36.3637 111.404 36.3223 111.541 36.2257C111.678 36.1291 111.747 35.9773 111.747 35.7841C111.761 35.3701 111.5 35.1631 110.978 35.1631Z" fill="white"/>
<path d="M115.701 38.4889L114.52 36.8467L114.136 37.2469V38.4751H113.381V34.5422H114.136V36.1981L115.838 34.4594L116.387 34.8871L115.042 36.2947L116.634 38.4751L115.701 38.4889Z" fill="white"/>
<path d="M117.183 38.4889V34.5421H117.925L119.737 37.1779V34.5421H120.492V38.4889H119.737L117.925 35.8531V38.4889H117.183Z" fill="white"/>
<path d="M123.196 34.5421L124.72 38.4337L123.965 38.5441L123.608 37.5643H122.126L121.782 38.4889H121.027L122.551 34.5421H123.196ZM122.867 35.5771L122.359 36.9571H123.402L122.867 35.5771Z" fill="white"/>
<path d="M127.754 34.7905C128.029 34.9561 128.221 35.1769 128.358 35.4805C128.496 35.7703 128.55 36.1153 128.55 36.5017C128.55 37.1227 128.399 37.6057 128.084 37.9507C127.768 38.3095 127.329 38.4889 126.752 38.5027H125.269V36.7915H124.94L124.871 36.2119H125.256V34.5421H126.738C127.15 34.5421 127.493 34.6249 127.754 34.7905ZM127.521 37.5229C127.699 37.3021 127.795 36.9571 127.795 36.4879C127.795 36.0601 127.713 35.7427 127.548 35.5219C127.384 35.3011 127.136 35.1769 126.793 35.1769H126.024V36.2119H126.436L126.491 36.7915H126.024V37.8403H126.752C127.082 37.8541 127.342 37.7437 127.521 37.5229Z" fill="white"/>
<path d="M130.98 34.5421L132.504 38.4337L131.749 38.5441L131.392 37.5643H129.91L129.566 38.4889H128.811L130.335 34.5421H130.98ZM130.651 35.5771L130.143 36.9571H131.186L130.651 35.5771Z" fill="white"/>
<path d="M133.053 34.5421H134.275C134.728 34.5421 135.099 34.6387 135.387 34.8457C135.675 35.0527 135.826 35.3563 135.826 35.7427C135.826 35.9773 135.772 36.1843 135.648 36.3637C135.524 36.5431 135.36 36.6811 135.168 36.7777L136.129 38.4751H135.332L134.509 36.9847H133.808V38.4751H133.067L133.053 34.5421ZM134.261 35.1631H133.795V36.3637H134.261C134.495 36.3637 134.687 36.3223 134.824 36.2257C134.962 36.1291 135.03 35.9773 135.03 35.7841C135.044 35.3701 134.783 35.1631 134.261 35.1631Z" fill="white"/>
<path d="M138.764 36.8191H137.433V38.4889H136.691V34.5421H138.915L139.025 35.1355H137.433V36.2257H138.655L138.764 36.8191Z" fill="white"/>
<path d="M142.279 34.7216C142.567 34.901 142.787 35.1494 142.952 35.4529C143.103 35.7565 143.185 36.1015 143.185 36.4879C143.185 36.8881 143.103 37.2469 142.938 37.5505C142.773 37.8679 142.553 38.1025 142.265 38.2819C141.977 38.4613 141.634 38.5441 141.263 38.5579C140.865 38.5579 140.522 38.4613 140.233 38.2819C139.945 38.1025 139.725 37.8541 139.574 37.5505C139.423 37.2469 139.341 36.9019 139.341 36.5155C139.341 36.1153 139.423 35.7565 139.574 35.4529C139.725 35.1494 139.959 34.901 140.247 34.7216C140.535 34.5422 140.879 34.4456 141.249 34.4456C141.647 34.4456 141.991 34.5422 142.279 34.7216ZM140.686 35.2598C140.508 35.3839 140.371 35.5495 140.261 35.7703C140.151 35.9911 140.096 36.2395 140.096 36.5293C140.096 36.7501 140.124 36.9433 140.178 37.1227C140.233 37.3021 140.316 37.4539 140.426 37.5781L141.455 35.108C141.387 35.0942 141.318 35.0942 141.236 35.0942C141.057 35.0942 140.865 35.1494 140.686 35.2598ZM141.826 37.7713C142.004 37.6609 142.142 37.5091 142.238 37.2883C142.334 37.0675 142.389 36.8053 142.389 36.4879C142.389 36.0877 142.293 35.7565 142.1 35.4943L141.098 37.9231C141.153 37.9369 141.208 37.9369 141.249 37.9369C141.455 37.9369 141.661 37.8817 141.826 37.7713Z" fill="white"/>
<path d="M143.871 34.5421H145.093C145.546 34.5421 145.917 34.6387 146.205 34.8457C146.493 35.0527 146.644 35.3563 146.644 35.7427C146.644 35.9773 146.59 36.1843 146.466 36.3637C146.342 36.5431 146.178 36.6811 145.985 36.7777L146.946 38.4751H146.15L145.327 36.9847H144.626V38.4751H143.885L143.871 34.5421ZM145.079 35.1631H144.613V36.3637H145.079C145.313 36.3637 145.505 36.3223 145.642 36.2257C145.78 36.1291 145.848 35.9773 145.848 35.7841C145.862 35.3701 145.601 35.1631 145.079 35.1631Z" fill="white"/>
<path d="M147.496 38.4889V34.5421H148.237V38.4889H147.496Z" fill="white"/>
<path d="M149.212 38.4889V34.5421H149.953L151.765 37.1779V34.5421H152.52V38.4889H151.765L149.953 35.8531V38.4889H149.212Z" fill="white"/>
<path d="M154.895 36.9019L154.964 36.3223H156.392V38.2819C156.227 38.3647 156.048 38.4337 155.829 38.4889C155.623 38.5441 155.389 38.5717 155.17 38.5717C154.772 38.5717 154.428 38.4751 154.14 38.2957C153.852 38.1163 153.618 37.8679 153.467 37.5643C153.316 37.2607 153.234 36.9157 153.234 36.5293C153.234 36.1291 153.316 35.7841 153.495 35.4667C153.673 35.1493 153.907 34.9009 154.222 34.7215C154.538 34.5422 154.881 34.4594 155.266 34.4594C155.403 34.4594 155.582 34.487 155.787 34.5284C155.993 34.5697 156.172 34.6387 156.337 34.7215L156.103 35.2597C155.993 35.2183 155.939 35.2045 155.952 35.2183C155.801 35.1769 155.691 35.1493 155.609 35.1217C155.527 35.0941 155.417 35.0941 155.293 35.0941C155.06 35.0941 154.84 35.1493 154.648 35.2597C154.456 35.3701 154.305 35.5357 154.195 35.7427C154.085 35.9635 154.03 36.2257 154.03 36.5293C154.03 36.8053 154.085 37.0537 154.181 37.2745C154.277 37.4953 154.415 37.6471 154.593 37.7713C154.772 37.8817 154.964 37.9369 155.197 37.9369C155.376 37.9369 155.568 37.9093 155.774 37.8679V36.9019H154.895Z" fill="white"/>
<path d="M78.3732 41.7595C78.7713 41.7595 79.1145 41.8561 79.4028 42.0355C79.6911 42.2149 79.9107 42.4633 80.0755 42.7669C80.2265 43.0705 80.3089 43.4155 80.3089 43.8019C80.3089 44.2021 80.2265 44.5609 80.0618 44.8645C79.897 45.1819 79.6774 45.4165 79.3891 45.5959C79.1008 45.7753 78.7576 45.8581 78.3869 45.8719C77.9888 45.8719 77.6456 45.7753 77.3573 45.5959C77.069 45.4165 76.8493 45.1681 76.6983 44.8645C76.5473 44.5609 76.4649 44.2159 76.4649 43.8295C76.4649 43.4293 76.5473 43.0705 76.6983 42.7669C76.863 42.4495 77.0827 42.2149 77.371 42.0355C77.6593 41.8699 77.9888 41.7733 78.3732 41.7595ZM77.22 43.8433C77.22 44.1193 77.2612 44.3677 77.3573 44.5747C77.4534 44.7817 77.5769 44.9611 77.7554 45.0715C77.9201 45.1957 78.126 45.2509 78.3594 45.2509C78.5791 45.2509 78.7713 45.1957 78.9497 45.0853C79.1282 44.9749 79.2655 44.8231 79.3616 44.6023C79.4577 44.3815 79.5126 44.1193 79.5126 43.8019C79.5126 43.5259 79.4714 43.2913 79.3753 43.0843C79.2792 42.8773 79.1557 42.7117 78.9772 42.5875C78.7987 42.4633 78.6065 42.4081 78.3732 42.4081C78.1672 42.4081 77.975 42.4633 77.7966 42.5875C77.6181 42.7117 77.4808 42.8773 77.371 43.0981C77.2749 43.3051 77.22 43.5535 77.22 43.8433Z" fill="white"/>
<path d="M82.5192 44.2159L82.5878 43.6363H84.0156V45.5821C83.8508 45.6649 83.6724 45.7339 83.4527 45.7891C83.2468 45.8443 83.0271 45.8719 82.7937 45.8719C82.3956 45.8719 82.0524 45.7753 81.7641 45.5959C81.4758 45.4165 81.2424 45.1681 81.0914 44.8645C80.9404 44.5609 80.858 44.2159 80.858 43.8295C80.858 43.4293 80.9404 43.0843 81.1189 42.7669C81.2973 42.4495 81.5307 42.2011 81.8465 42.0217C82.1622 41.8423 82.5054 41.7595 82.8898 41.7595C83.0271 41.7595 83.2056 41.7871 83.4115 41.8285C83.6174 41.8699 83.7959 41.9389 83.9607 42.0217L83.7273 42.5599C83.6174 42.5185 83.5625 42.5047 83.5763 42.5185C83.4252 42.4771 83.3154 42.4495 83.233 42.4219C83.1507 42.3943 83.0409 42.3943 82.9173 42.3943C82.6839 42.3943 82.4643 42.4495 82.2721 42.5599C82.0799 42.6703 81.9289 42.8359 81.819 43.0429C81.7092 43.2637 81.6543 43.5259 81.6543 43.8295C81.6543 44.1055 81.6955 44.3539 81.7916 44.5747C81.8877 44.7955 82.025 44.9473 82.2034 45.0715C82.3819 45.1819 82.5741 45.2371 82.8075 45.2371C82.9859 45.2371 83.1781 45.2095 83.3841 45.1681V44.2021L82.5192 44.2159Z" fill="white"/>
<path d="M87.4476 44.2159L87.5163 43.6363H88.944V45.5821C88.7793 45.6649 88.6008 45.7339 88.3812 45.7891C88.1752 45.8443 87.9419 45.8719 87.7222 45.8719C87.3241 45.8719 86.9809 45.7753 86.6926 45.5959C86.4043 45.4165 86.1709 45.1681 86.0199 44.8645C85.8689 44.5609 85.7865 44.2159 85.7865 43.8295C85.7865 43.4293 85.8689 43.0843 86.0473 42.7669C86.2258 42.4495 86.4592 42.2011 86.7749 42.0217C87.0907 41.8423 87.4339 41.7595 87.8183 41.7595C87.9556 41.7595 88.134 41.7871 88.34 41.8285C88.5459 41.8699 88.7244 41.9389 88.8891 42.0217L88.6557 42.5599C88.5459 42.5185 88.491 42.5047 88.5047 42.5185C88.3537 42.4771 88.2439 42.4495 88.1615 42.4219C88.0791 42.3943 87.9693 42.3943 87.8457 42.3943C87.6124 42.3943 87.3927 42.4495 87.2005 42.5599C87.0083 42.6703 86.8573 42.8359 86.7475 43.0429C86.6377 43.2637 86.5827 43.5259 86.5827 43.8295C86.5827 44.1055 86.6377 44.3539 86.7338 44.5747C86.8299 44.7955 86.9671 44.9473 87.1456 45.0715C87.3241 45.1819 87.5163 45.2371 87.7497 45.2371C87.9281 45.2371 88.1203 45.2095 88.3262 45.1681V44.2021L87.4476 44.2159Z" fill="white"/>
<path d="M89.8227 41.8561H91.0445C91.4976 41.8561 91.8682 41.9665 92.1565 42.1597C92.4448 42.3529 92.5958 42.6703 92.5958 43.0567C92.5958 43.2913 92.5409 43.4983 92.4174 43.6777C92.2938 43.8571 92.1291 43.9951 91.9369 44.0917L92.8978 45.7891H92.1016L91.2779 44.2987H90.5777V45.7891H89.8227V41.8561ZM91.0308 42.4771H90.564V43.6777H91.0308C91.2642 43.6777 91.4564 43.6363 91.5937 43.5397C91.7309 43.4431 91.7996 43.2913 91.7996 43.0981C91.8133 42.6841 91.5525 42.4771 91.0308 42.4771Z" fill="white"/>
<path d="M95.314 41.8561L96.8379 45.7477L96.0828 45.858L95.7259 44.8783H94.2432L93.9 45.8029H93.145L94.6688 41.8561H95.314ZM94.9708 42.8911L94.4629 44.2711H95.5062L94.9708 42.8911Z" fill="white"/>
<path d="M99.46 44.1331H98.1284V45.8029H97.387V41.8561H99.611L99.7208 42.4495H98.1284V43.5397H99.3502L99.46 44.1331Z" fill="white"/>
<path d="M100.462 45.8029V41.8561H101.204V45.8029H100.462Z" fill="white"/>
<path d="M102.096 45.5407L102.261 44.9335C102.398 45.0025 102.563 45.0715 102.741 45.1267C102.92 45.1819 103.084 45.2095 103.235 45.2095C103.469 45.2095 103.647 45.1681 103.757 45.0991C103.881 45.0301 103.935 44.9197 103.935 44.7817C103.935 44.6851 103.894 44.6023 103.798 44.5195C103.702 44.4367 103.565 44.3401 103.359 44.2435L103.18 44.1331C102.92 43.9813 102.714 43.8433 102.563 43.7329C102.412 43.6225 102.274 43.4845 102.164 43.3327C102.055 43.1809 102 43.0153 102 42.8221C102 42.6151 102.055 42.4357 102.164 42.2839C102.274 42.1183 102.425 41.9941 102.631 41.9113C102.837 41.8147 103.071 41.7733 103.359 41.7733C103.688 41.7733 104.059 41.8699 104.471 42.0631L104.224 42.6703C104.073 42.5875 103.922 42.5323 103.798 42.4909C103.675 42.4495 103.524 42.4219 103.386 42.4219C103.208 42.4219 103.071 42.4495 102.961 42.5185C102.851 42.5875 102.796 42.6841 102.796 42.8221C102.796 42.9325 102.837 43.0291 102.92 43.0981C103.002 43.1671 103.153 43.2637 103.345 43.3879L103.524 43.4983L103.688 43.5949C103.922 43.7329 104.1 43.8433 104.224 43.9399C104.347 44.0365 104.471 44.1607 104.567 44.2987C104.663 44.4367 104.704 44.6023 104.704 44.7955C104.704 45.0025 104.649 45.1957 104.539 45.3613C104.43 45.5269 104.265 45.6511 104.032 45.7477C103.812 45.8443 103.551 45.8857 103.235 45.8857C103.071 45.8857 102.878 45.8443 102.631 45.7753C102.412 45.6925 102.233 45.6235 102.096 45.5407Z" fill="white"/>
<path d="M107.67 45.8029L106.489 44.1607L106.105 44.5609V45.7891H105.349V41.8423H106.105V43.4983L107.807 41.7595L108.356 42.1873L107.011 43.5949L108.603 45.7753H107.67V45.8029Z" fill="white"/>
<path d="M110.237 45.5407L110.402 44.9335C110.539 45.0025 110.704 45.0715 110.882 45.1267C111.06 45.1819 111.225 45.2095 111.376 45.2095C111.61 45.2095 111.788 45.1681 111.898 45.0991C112.021 45.0301 112.076 44.9197 112.076 44.7817C112.076 44.6851 112.035 44.6023 111.939 44.5195C111.843 44.4367 111.706 44.3401 111.5 44.2435L111.321 44.1331C111.06 43.9813 110.855 43.8433 110.704 43.7329C110.553 43.6225 110.415 43.4845 110.305 43.3327C110.196 43.1809 110.141 43.0153 110.141 42.8221C110.141 42.6151 110.196 42.4357 110.305 42.2839C110.415 42.1183 110.566 41.9941 110.772 41.9113C110.978 41.8147 111.212 41.7733 111.5 41.7733C111.829 41.7733 112.2 41.8699 112.612 42.0631L112.365 42.6703C112.214 42.5875 112.063 42.5323 111.939 42.4909C111.816 42.4495 111.665 42.4219 111.527 42.4219C111.349 42.4219 111.212 42.4495 111.102 42.5185C110.992 42.5875 110.937 42.6841 110.937 42.8221C110.937 42.9325 110.978 43.0291 111.06 43.0981C111.143 43.1671 111.294 43.2637 111.486 43.3879L111.665 43.4983L111.829 43.5949C112.063 43.7329 112.241 43.8433 112.365 43.9399C112.488 44.0365 112.612 44.1607 112.708 44.2987C112.804 44.4367 112.845 44.6023 112.845 44.7955C112.845 45.0025 112.79 45.1957 112.68 45.3613C112.571 45.5269 112.406 45.6511 112.172 45.7477C111.953 45.8443 111.692 45.8857 111.376 45.8857C111.212 45.8857 111.019 45.8443 110.772 45.7753C110.553 45.6925 110.36 45.6235 110.237 45.5407Z" fill="white"/>
<path d="M113.628 45.8029V41.8561H114.369L116.181 44.4919V41.8561H116.936V45.8029H116.181L114.369 43.1671V45.8029H113.628Z" fill="white"/>
<path d="M117.911 45.8029V41.8561H118.652V45.8029H117.911Z" fill="white"/>
<path d="M122.263 42.1044C122.537 42.27 122.73 42.4908 122.867 42.7944C123.004 43.0842 123.059 43.4292 123.059 43.8156C123.059 44.4366 122.908 44.9196 122.592 45.2646C122.277 45.6234 121.837 45.8028 121.261 45.8166H119.778V44.133H119.448L119.38 43.5534H119.764V41.8836H121.261C121.659 41.856 121.988 41.9388 122.263 42.1044ZM122.016 44.8368C122.194 44.616 122.29 44.271 122.29 43.8018C122.29 43.374 122.208 43.0566 122.043 42.8358C121.878 42.615 121.631 42.4908 121.288 42.4908H120.519V43.5258H120.931L120.986 44.1054H120.519V45.1542H121.247C121.576 45.168 121.837 45.0576 122.016 44.8368Z" fill="white"/>
<path d="M125.283 44.2159L125.352 43.6363H126.779V45.5821C126.615 45.6649 126.436 45.7339 126.217 45.7891C126.011 45.8443 125.777 45.8719 125.558 45.8719C125.159 45.8719 124.816 45.7753 124.528 45.5959C124.24 45.4165 124.006 45.1681 123.855 44.8645C123.704 44.5609 123.622 44.2159 123.622 43.8295C123.622 43.4293 123.704 43.0843 123.883 42.7669C124.061 42.4495 124.295 42.2011 124.61 42.0217C124.926 41.8423 125.269 41.7595 125.654 41.7595C125.791 41.7595 125.969 41.7871 126.175 41.8285C126.381 41.8699 126.56 41.9389 126.725 42.0217L126.491 42.5599C126.381 42.5185 126.326 42.5047 126.34 42.5185C126.189 42.4771 126.079 42.4495 125.997 42.4219C125.915 42.3943 125.805 42.3943 125.681 42.3943C125.448 42.3943 125.228 42.4495 125.036 42.5599C124.844 42.6703 124.693 42.8359 124.583 43.0429C124.473 43.2637 124.418 43.5259 124.418 43.8295C124.418 44.1055 124.473 44.3539 124.569 44.5747C124.665 44.7955 124.803 44.9473 124.981 45.0715C125.159 45.1819 125.352 45.2371 125.585 45.2371C125.764 45.2371 125.956 45.2095 126.162 45.1681V44.2021L125.283 44.2159Z" fill="white"/>
<path d="M129.402 41.8561L130.925 45.7477L130.17 45.8581L129.813 44.8783H128.331L127.988 45.8029H127.233L128.756 41.8561H129.402ZM129.058 42.8911L128.55 44.2711H129.594L129.058 42.8911ZM128.77 41.3731L129.058 40.5728H129.827L129.278 41.5249L128.77 41.3731Z" fill="white"/>
<path d="M132.477 44.7679L133.561 41.8561H134.316L132.793 45.8029H132.161L130.637 41.9113L131.392 41.8009L132.477 44.7679Z" fill="white"/>
<path d="M136.17 41.8561L137.694 45.7477L136.939 45.858L136.582 44.8783H135.099L134.756 45.8029H134.001L135.524 41.8561H136.17ZM135.84 42.8911L135.332 44.2711H136.376L135.84 42.8911Z" fill="white"/>
<path d="M33.2754 37.1641C33.5637 38.0197 33.7148 38.9581 33.7148 40.0069C33.7148 41.4283 33.4539 42.6565 32.9322 43.7053C32.4106 44.7541 31.6555 45.5545 30.6808 46.1341C29.7061 46.6999 28.5529 46.9897 27.2487 46.9897C25.8621 46.9897 24.6677 46.6861 23.693 46.0513L22.3751 47.8177L21.1395 46.8793L22.4987 45.0715C21.9358 44.4643 21.4965 43.7329 21.2082 42.8773C20.9199 42.0217 20.7689 41.0695 20.7689 40.0069C20.7689 38.5855 21.0297 37.3573 21.5514 36.3085C22.0731 35.2597 22.8281 34.4594 23.8029 33.8798C24.7776 33.314 25.9308 33.0242 27.235 33.0242C28.6078 33.0242 29.8022 33.3278 30.8181 33.9626L32.136 32.1962L33.3715 33.1622L32.0124 34.9699C32.5616 35.5771 32.9871 36.3085 33.2754 37.1641ZM24.6677 36.5431C24.0362 37.3987 23.7205 38.5441 23.7205 40.0069C23.7205 41.0833 23.8852 41.9803 24.2422 42.7255L29.3217 35.9911C28.7313 35.5081 28.0449 35.2597 27.2624 35.2597C26.1641 35.2597 25.2992 35.6875 24.6677 36.5431ZM29.8296 43.4845C30.4611 42.6427 30.7769 41.4835 30.7769 40.0069C30.7769 39.0271 30.6121 38.1163 30.2552 37.2883L25.1757 44.0503C25.7386 44.5195 26.425 44.7541 27.235 44.7541C28.3332 44.7541 29.1844 44.3263 29.8296 43.4845Z" fill="white"/>
</svg>
