<svg width="361" height="361" viewBox="0 0 361 361" fill="none" xmlns="http://www.w3.org/2000/svg">
<rect width="361" height="361" rx="90" fill="#020A13"/>
<path d="M201.468 77.5905C197.02 76.7483 192.419 77.685 188.654 80.1992C184.889 82.7134 182.261 86.6044 181.335 91.0359L147.087 262.275C146.642 264.48 146.638 266.751 147.074 268.958C147.51 271.165 148.377 273.264 149.627 275.135C150.876 277.005 152.482 278.611 154.354 279.859C156.225 281.107 158.325 281.973 160.532 282.408C161.643 282.637 162.775 282.749 163.91 282.742C167.865 282.736 171.695 281.36 174.75 278.848C177.805 276.336 179.895 272.844 180.666 268.965L214.914 97.7246C215.358 95.5194 215.362 93.2481 214.927 91.0411C214.491 88.8342 213.623 86.735 212.374 84.8642C211.125 82.9934 209.518 81.3878 207.647 80.1396C205.775 78.8913 203.676 78.0251 201.468 77.5905Z" fill="white"/>
<path d="M114.912 115.484C111.422 112.585 106.926 111.187 102.407 111.594C97.8877 112.001 93.714 114.182 90.7983 117.658L47.9884 169.03C45.412 172.105 44 175.988 44 180C44 184.011 45.412 187.895 47.9884 190.97L90.7983 242.342C92.2345 244.082 94.0004 245.521 95.9946 246.576C97.9888 247.631 100.172 248.282 102.418 248.491C104.665 248.699 106.93 248.462 109.085 247.792C111.239 247.122 113.24 246.033 114.972 244.588C116.704 243.142 118.134 241.368 119.178 239.368C120.222 237.368 120.861 235.182 121.057 232.934C121.254 230.686 121.004 228.422 120.322 226.271C119.64 224.121 118.54 222.126 117.085 220.402L83.4069 180L117.086 139.599C119.995 136.112 121.399 131.613 120.992 127.091C120.584 122.569 118.397 118.394 114.912 115.484Z" fill="#8FFF86"/>
<path d="M314.012 169.03L271.202 117.658C269.766 115.918 268 114.479 266.005 113.423C264.011 112.368 261.828 111.717 259.582 111.509C257.335 111.3 255.07 111.537 252.915 112.207C250.761 112.877 248.76 113.966 247.028 115.412C245.296 116.858 243.866 118.631 242.822 120.631C241.778 122.631 241.139 124.818 240.943 127.065C240.746 129.313 240.996 131.577 241.678 133.728C242.36 135.879 243.46 137.873 244.915 139.598L278.593 180L244.914 220.402C243.459 222.126 242.359 224.121 241.677 226.272C240.995 228.422 240.746 230.687 240.942 232.934C241.138 235.182 241.777 237.368 242.821 239.368C243.866 241.368 245.295 243.142 247.027 244.588C248.759 246.033 250.76 247.123 252.914 247.792C255.069 248.462 257.334 248.7 259.581 248.491C261.827 248.282 264.01 247.631 266.005 246.576C267.999 245.521 269.765 244.082 271.201 242.342L314.012 190.97C316.588 187.895 318 184.011 318 180C318 175.988 316.588 172.104 314.012 169.03Z" fill="#8FFF86"/>
</svg>
