<svg width="151" height="16" viewBox="0 0 151 16" fill="none" xmlns="http://www.w3.org/2000/svg">
<path d="M0.8 12V3.904H3.536V4.624L3.024 6.16H3.696C4.016 4.72 4.736 3.744 6.32 3.744C7.856 3.744 8.48 4.768 8.72 6.16H9.2C9.52 4.72 10.208 3.744 11.792 3.744C13.904 3.744 14.48 5.68 14.48 7.872V12H11.744V8.048C11.744 6.512 11.504 6.16 10.608 6.16C9.264 6.16 9.008 7.312 9.008 9.248V12H6.256L6.272 11.968V8.048C6.272 6.512 6.032 6.16 5.136 6.16C3.792 6.16 3.536 7.312 3.536 9.248V12H0.8ZM15.5894 9.792C15.5894 8.384 16.4054 7.552 18.8854 7.296L21.3494 7.024C21.3494 6.176 20.8694 5.84 19.9414 5.84C18.9494 5.84 18.3894 6.256 18.3574 6.976H15.7814C15.8294 4.848 17.6214 3.744 19.8454 3.744C22.0854 3.744 24.1014 4.752 24.1014 7.088V9.584H25.2694V12H23.4134C22.6294 12 22.1654 11.552 22.1654 10.768V10.688L22.5974 9.712H21.9254C21.6214 11.024 20.8534 12.16 18.5814 12.16C16.0214 12.16 15.5894 10.624 15.5894 9.792ZM18.2774 9.328C18.2774 9.856 18.7574 9.984 19.2854 9.984C20.4214 9.984 21.3494 9.376 21.3494 8.4L19.3974 8.688C18.6774 8.8 18.2774 8.88 18.2774 9.328ZM25.8848 7.936C25.8848 5.184 27.7728 3.744 30.3488 3.744C32.6688 3.744 34.6848 5.024 34.7808 7.296H32.0288C31.9488 6.688 31.3568 6.16 30.3488 6.16C29.3888 6.16 28.6208 6.768 28.6208 7.936C28.6208 9.12 29.3888 9.744 30.3488 9.744C31.3568 9.744 31.9488 9.216 32.0288 8.608H34.7808C34.6848 10.88 32.6688 12.16 30.3488 12.16C27.7728 12.16 25.8848 10.704 25.8848 7.936ZM35.5768 12V9.584H37.8488V6.32H35.8648V3.904H38.9848C39.8648 3.904 40.3768 4.352 40.3768 5.248V9.584H42.6648V12H35.5768ZM37.3207 1.824C37.3207 0.896 37.9448 0.447999 38.9208 0.447999C39.8968 0.447999 40.5688 0.896 40.5688 1.824C40.5688 2.768 39.8968 3.2 38.9208 3.2C37.9448 3.2 37.3207 2.768 37.3207 1.824ZM43.1504 7.92C43.1504 5.312 44.9424 3.744 47.4544 3.744C50.2544 3.744 51.8704 5.264 51.8704 7.808V8.528H45.9024C45.9984 9.536 46.5904 10.096 47.5824 10.096C48.4304 10.096 49.0064 9.76 49.1664 9.136H51.8864C51.6624 10.928 50.0784 12.16 47.5824 12.16C44.8464 12.16 43.1504 10.448 43.1504 7.92ZM45.9024 7.12H49.1984C49.1184 6.224 48.4944 5.728 47.5344 5.728C46.5904 5.728 45.9664 6.224 45.9024 7.12ZM53.0813 12V0.24H55.8173V6.752H56.5693L58.8733 3.904H62.1693L58.7613 7.84L62.1693 12H58.8733L56.4573 8.896H55.8173V12H53.0813Z" fill="white"/>
<path d="M77.364 5.296C77.364 4.384 77.876 3.904 78.788 3.904H84.212V6.32H80.116V12H77.364V5.296ZM84.4941 7.936C84.4941 5.072 86.5581 3.744 89.1021 3.744C91.6141 3.744 93.6941 5.072 93.6941 7.936C93.6941 10.832 91.6141 12.16 89.1021 12.16C86.5581 12.16 84.4941 10.832 84.4941 7.936ZM87.2301 7.936C87.2301 9.152 87.9821 9.744 89.1021 9.744C90.1901 9.744 90.9421 9.152 90.9421 7.936C90.9421 6.736 90.1901 6.16 89.1021 6.16C87.9821 6.16 87.2301 6.736 87.2301 7.936ZM94.9094 12V0.24H97.6454V4.288L97.1334 5.808H97.8054C98.2214 4.768 98.9414 3.744 100.957 3.744C103.325 3.744 104.445 5.68 104.445 7.936C104.445 10.208 103.325 12.16 100.957 12.16C98.9414 12.16 98.2214 11.136 97.8054 10.08H97.1334L97.6454 11.616V12H94.9094ZM97.6454 7.936C97.6454 9.216 98.3174 9.744 99.6614 9.744C101.021 9.744 101.709 9.2 101.709 7.936C101.709 6.688 101.021 6.16 99.6614 6.16C98.3174 6.16 97.6454 6.688 97.6454 7.936ZM105.402 9.792C105.402 8.384 106.218 7.552 108.698 7.296L111.162 7.024C111.162 6.176 110.682 5.84 109.754 5.84C108.762 5.84 108.202 6.256 108.17 6.976H105.594C105.642 4.848 107.434 3.744 109.658 3.744C111.898 3.744 113.914 4.752 113.914 7.088V9.584H115.082V12H113.226C112.442 12 111.978 11.552 111.978 10.768V10.688L112.41 9.712H111.738C111.434 11.024 110.666 12.16 108.394 12.16C105.834 12.16 105.402 10.624 105.402 9.792ZM108.09 9.328C108.09 9.856 108.57 9.984 109.098 9.984C110.234 9.984 111.162 9.376 111.162 8.4L109.21 8.688C108.49 8.8 108.09 8.88 108.09 9.328ZM115.697 7.936C115.697 5.184 117.585 3.744 120.161 3.744C122.481 3.744 124.497 5.024 124.593 7.296H121.841C121.761 6.688 121.169 6.16 120.161 6.16C119.201 6.16 118.433 6.768 118.433 7.936C118.433 9.12 119.201 9.744 120.161 9.744C121.169 9.744 121.761 9.216 121.841 8.608H124.593C124.497 10.88 122.481 12.16 120.161 12.16C117.585 12.16 115.697 10.704 115.697 7.936ZM125.816 12V0.24H128.552V6.752H129.304L131.608 3.904H134.904L131.496 7.84L134.904 12H131.608L129.192 8.896H128.552V12H125.816ZM135.608 12V9.584H137.88V6.32H135.896V3.904H139.016C139.896 3.904 140.408 4.352 140.408 5.248V9.584H142.696V12H135.608ZM137.352 1.824C137.352 0.896 137.976 0.447999 138.952 0.447999C139.928 0.447999 140.6 0.896 140.6 1.824C140.6 2.768 139.928 3.2 138.952 3.2C137.976 3.2 137.352 2.768 137.352 1.824Z" fill="#8FFF86"/>
<path d="M145.483 12.7111C145.755 12.9226 146.104 13.0247 146.456 12.9949C146.808 12.9652 147.132 12.8061 147.359 12.5524L150.69 8.80374C150.89 8.57936 151 8.29597 151 8.00324C151 7.71051 150.89 7.42712 150.69 7.20274L147.359 3.45405C147.247 3.32708 147.11 3.22207 146.955 3.14507C146.8 3.06807 146.63 3.02059 146.455 3.00536C146.28 2.99013 146.104 3.00745 145.936 3.05633C145.769 3.10521 145.613 3.18468 145.478 3.29017C145.344 3.39567 145.233 3.5251 145.151 3.67104C145.07 3.81698 145.02 3.97654 145.005 4.14055C144.99 4.30456 145.009 4.46979 145.062 4.62673C145.115 4.78367 145.201 4.92924 145.314 5.05505L147.934 8.0032L145.314 10.9514C145.088 11.2058 144.978 11.5341 145.01 11.8641C145.042 12.194 145.212 12.4987 145.483 12.7111Z" fill="#8FFF86"/>
<path d="M74.5169 3.28893C74.2453 3.0774 73.8955 2.97533 73.544 3.00506C73.1924 3.03479 72.8677 3.19389 72.6408 3.44757L69.3103 7.19626C69.1098 7.42064 69 7.70403 69 7.99676C69 8.28949 69.1098 8.57288 69.3103 8.79726L72.6408 12.5459C72.7526 12.6729 72.89 12.7779 73.0451 12.8549C73.2003 12.9319 73.3701 12.9794 73.5449 12.9946C73.7196 13.0099 73.8959 12.9926 74.0635 12.9437C74.2311 12.8948 74.3868 12.8153 74.5215 12.7098C74.6563 12.6043 74.7675 12.4749 74.8487 12.329C74.93 12.183 74.9797 12.0235 74.9949 11.8594C75.0102 11.6954 74.9908 11.5302 74.9378 11.3733C74.8847 11.2163 74.7991 11.0708 74.6859 10.9449L72.0658 7.9968L74.686 5.04861C74.9123 4.79419 75.0216 4.46591 74.9899 4.13593C74.9581 3.80595 74.788 3.50129 74.5169 3.28893Z" fill="#8FFF86"/>
</svg>
