<svg width="100" height="50" viewBox="0 0 100 50" fill="none" xmlns="http://www.w3.org/2000/svg">
<path d="M31.412 12H31.3192C30.8136 12.0103 30.2772 12.1305 29.7304 12.3319C28.6316 12.7337 27.44 13.4793 26.2278 14.5306C25.9905 14.7366 25.748 14.9576 25.5056 15.1888C25.3457 15.0346 25.1858 14.8908 25.0258 14.7469C23.7414 13.6124 22.4776 12.8144 21.3221 12.3843C20.7443 12.1696 20.1821 12.0406 19.6559 12.0283C19.1297 12.0154 18.6397 12.1182 18.2115 12.3669C17.3759 12.8463 16.9219 13.7907 16.7259 14.937C16.5247 16.09 16.5763 17.4876 16.8858 19.06C16.9477 19.3734 17.0199 19.692 17.1025 20.0208C16.731 20.1236 16.37 20.2366 16.0295 20.3548C14.5268 20.8738 13.3115 21.5314 12.4387 22.2714C11.5659 23.0164 11 23.8796 11 24.8199C11 25.7911 11.5948 26.6903 12.5145 27.4713C13.4343 28.2574 14.7177 28.9562 16.3029 29.4906C16.5557 29.5779 16.8136 29.6602 17.0818 29.7372C16.9941 30.0866 16.9167 30.4309 16.8548 30.7649C16.5608 32.3218 16.5247 33.6988 16.731 34.8241C16.9425 35.9494 17.412 36.8691 18.2322 37.3367C19.073 37.8248 20.1511 37.758 21.2963 37.3573C22.4363 36.9565 23.6795 36.196 24.9381 35.0964C25.1393 34.9217 25.3405 34.7367 25.5417 34.5415C25.8048 34.7933 26.0679 35.0348 26.3309 35.2557C27.5329 36.2885 28.709 37.0079 29.7923 37.3881C30.8755 37.7683 31.9124 37.8248 32.7274 37.3521C33.5734 36.864 34.0531 35.9031 34.275 34.7162C34.4968 33.5293 34.4555 32.0751 34.1305 30.4412C34.0789 30.1894 34.0222 29.9273 33.9603 29.6704C34.1408 29.6139 34.3214 29.5574 34.4968 29.5009C36.1268 28.9665 37.4526 28.278 38.4069 27.497C39.3612 26.7159 39.9802 25.8116 39.9802 24.8199C39.9802 23.8642 39.387 23.001 38.4894 22.2508C37.5918 21.5058 36.3487 20.8481 34.8269 20.3291C34.5277 20.2263 34.2182 20.1287 33.8984 20.0362C33.95 19.8256 34.0016 19.6149 34.0428 19.4042C34.3884 17.7291 34.4503 16.2391 34.2492 15.0249C34.0428 13.8112 33.5682 12.8247 32.7068 12.3294C32.3199 12.1053 31.8763 12.0036 31.412 12ZM31.3243 13.2409C31.6493 13.2327 31.9072 13.2923 32.0878 13.3976C32.4798 13.6211 32.8564 14.2223 33.0266 15.2253C33.1968 16.2339 33.1504 17.5904 32.8254 19.1524C32.7842 19.3426 32.7429 19.5327 32.6965 19.7279C31.4997 19.4505 30.1946 19.2449 28.8225 19.1165C28.0332 17.9963 27.2079 16.9687 26.3722 16.0695C26.5992 15.8573 26.8158 15.6518 27.0376 15.4616C28.1673 14.4849 29.2558 13.8195 30.1585 13.4896C30.6073 13.3246 30.9993 13.2491 31.3243 13.2409ZM19.5218 13.2691H19.6456C19.9912 13.2789 20.409 13.3616 20.8888 13.5394C21.8482 13.896 23.0089 14.6133 24.2005 15.6718C24.3449 15.8002 24.4894 15.9338 24.6338 16.0746C23.7981 16.9687 22.9676 17.9912 22.1681 19.1113C20.8011 19.2398 19.496 19.4453 18.3044 19.7125C18.227 19.4094 18.1599 19.1113 18.1032 18.8236C17.8143 17.3643 17.7834 16.09 17.9433 15.1477C18.1084 14.2058 18.4643 13.6458 18.8305 13.4341C19.0008 13.3359 19.2329 13.2763 19.5218 13.2691ZM25.5056 16.9584C26.0782 17.5699 26.6456 18.2584 27.2079 19.0034C26.6456 18.9777 26.0679 18.9623 25.4901 18.9623C24.9175 18.9623 24.3501 18.9777 23.7878 19.0034C24.3552 18.2584 24.933 17.575 25.5056 16.9584ZM48.925 18.1813V29.9582H50.4003V25.2772H52.7577L55.7702 29.9582H57.5086L54.3156 25.1539C55.9302 25.01 57.3848 23.8488 57.3848 21.7267C57.3848 19.5584 55.8425 18.1813 53.6759 18.1813H48.925ZM86.4166 19.0959V21.4287H85.0238V22.5951H86.4166V28.1752C86.4166 29.4444 87.0872 30.1688 88.3253 30.1688C89.099 30.1688 89.6149 29.9376 89.9244 29.6191L89.5117 28.6325C89.3569 28.8278 88.9959 28.987 88.6348 28.987C88.0673 28.987 87.7578 28.5246 87.7578 27.8926V22.5951H89.5117V21.4287H87.7578V19.0959H86.4166ZM50.4003 19.4864H53.5005C54.8985 19.4864 55.8579 20.4062 55.8579 21.7267C55.8579 23.0524 54.8985 23.9875 53.5005 23.9875H50.4003V19.4864ZM25.4901 20.1955C26.3928 20.1955 27.2749 20.2315 28.1312 20.2931C28.6161 21.0022 29.0855 21.7473 29.5343 22.518C29.9831 23.2887 30.401 24.0646 30.7775 24.8302C30.401 25.6061 29.9883 26.3922 29.5343 27.1681C29.0855 27.944 28.6213 28.689 28.1416 29.4032C27.2801 29.4649 26.3928 29.4957 25.4901 29.4957C24.5977 29.4957 23.7208 29.4649 22.8644 29.4135C22.3796 28.6993 21.905 27.9543 21.451 27.1784C20.9971 26.4025 20.5844 25.6215 20.213 24.8508C20.5844 24.0749 20.9971 23.299 21.4459 22.5231C21.8947 21.7473 22.3692 21.0022 22.8541 20.2931C23.7104 20.2315 24.5925 20.1955 25.4901 20.1955ZM21.2602 20.4524C20.9558 20.9251 20.6618 21.4081 20.3729 21.9065C20.084 22.405 19.8158 22.9034 19.5579 23.3966C19.1916 22.5437 18.8873 21.7062 18.6345 20.9046C19.4599 20.7196 20.3368 20.5706 21.2602 20.4524ZM29.72 20.4576C30.6486 20.5706 31.5358 20.7299 32.3612 20.9149C32.1136 21.7164 31.7989 22.5488 31.4326 23.4018C31.1696 22.9034 30.891 22.3998 30.6021 21.9014C30.3133 21.4081 30.0192 20.9251 29.72 20.4576ZM17.4326 21.2077C17.7937 22.3741 18.2683 23.6022 18.846 24.8508C18.2579 26.1199 17.7782 27.3634 17.412 28.5452C17.1695 28.4784 16.9322 28.4013 16.7001 28.3242C15.2351 27.8258 14.0786 27.1835 13.3198 26.5361C12.5604 25.8887 12.238 25.2618 12.238 24.8199C12.238 24.3935 12.5326 23.818 13.2434 23.2117C13.9537 22.6053 15.0442 21.999 16.437 21.516C16.7517 21.4081 17.087 21.3054 17.4326 21.2077ZM62.6362 21.218C60.1859 21.218 58.4114 23.2117 58.4114 25.6832C58.4114 28.3499 60.2375 30.1688 62.7393 30.1688C64.1321 30.1688 65.3185 29.7115 66.1439 28.8637L65.5249 27.9954C64.8543 28.6839 63.8742 29.0744 62.8941 29.0744C61.0525 29.0744 59.9176 27.7333 59.8145 26.125H66.7113V25.7911C66.7113 23.2271 65.2154 21.218 62.6362 21.218ZM71.8182 21.218C70.4254 21.218 69.3421 21.6753 68.4136 22.631L69.0326 23.5456C69.8064 22.7338 70.6318 22.3638 71.6634 22.3638C72.9015 22.3638 73.83 23.0164 73.83 24.1674V25.7037C73.1078 24.9073 72.1277 24.5373 70.9928 24.5373C69.5485 24.5373 68.0009 25.4365 68.0009 27.3428C68.0009 29.1977 69.5485 30.1688 70.9928 30.1688C72.1277 30.1688 73.1078 29.7629 73.83 28.987V29.9582H75.1196V24.0954C75.1196 22.0299 73.6237 21.218 71.8182 21.218ZM81.3098 21.218C78.7821 21.218 77.0282 23.1603 77.0282 25.6832C77.0282 28.2266 78.7821 30.1688 81.3098 30.1688C82.8573 30.1688 83.7858 29.5317 84.4564 28.6839L83.5795 27.872C83.0121 28.6325 82.2899 28.987 81.4129 28.987C79.5559 28.987 78.421 27.574 78.421 25.6832C78.421 23.7923 79.5559 22.3998 81.4129 22.3998C82.2899 22.3998 83.0121 22.7338 83.5795 23.5097L84.4564 22.6978C83.7858 21.85 82.8573 21.218 81.3098 21.218ZM33.5682 21.2232C33.8623 21.3105 34.1512 21.403 34.4246 21.4955C35.838 21.9785 36.9625 22.5848 37.7002 23.2014C38.4327 23.8128 38.7422 24.3986 38.7422 24.8199C38.7422 25.267 38.412 25.8938 37.6228 26.5412C36.8284 27.1887 35.6265 27.8309 34.1099 28.3345C33.95 28.3859 33.7901 28.4373 33.625 28.4835C33.2536 27.312 32.7532 26.0788 32.1548 24.8302C32.7326 23.597 33.2072 22.3844 33.5682 21.2232ZM25.4901 22.2457C24.805 22.2466 24.1482 22.5181 23.6637 23.0007C23.1793 23.4833 22.9067 24.1375 22.9057 24.8199C22.9053 25.5033 23.1773 26.1588 23.6619 26.6425C24.1465 27.1261 24.8041 27.3984 25.4901 27.3993C25.8302 27.3995 26.1671 27.333 26.4813 27.2034C26.7956 27.0738 27.0811 26.8839 27.3216 26.6443C27.5621 26.4047 27.7529 26.1203 27.8829 25.8073C28.013 25.4942 28.0799 25.1587 28.0796 24.8199C28.0787 24.1366 27.8054 23.4816 27.3198 22.9989C26.8342 22.5162 26.1761 22.2453 25.4901 22.2457ZM62.5846 22.3125C64.5448 22.3125 65.3701 23.8848 65.4217 25.1539H59.8145C59.8815 23.8488 60.7894 22.3125 62.5846 22.3125ZM71.4571 25.4879C72.3856 25.4879 73.3142 25.8424 73.83 26.5464V28.1547C73.3142 28.8637 72.3856 29.2131 71.4571 29.2131C70.2191 29.2131 69.3421 28.4373 69.3421 27.3634C69.3421 26.2638 70.2191 25.4879 71.4571 25.4879ZM31.4481 26.2586C31.8298 27.1321 32.16 27.9851 32.4179 28.7969C31.5771 28.987 30.6692 29.1412 29.72 29.2542C30.0192 28.7764 30.3184 28.2831 30.6073 27.7847C30.9013 27.276 31.1799 26.7673 31.4481 26.2586ZM19.5579 26.2997C19.8158 26.7982 20.0892 27.2966 20.3781 27.795C20.6721 28.2985 20.9765 28.7918 21.286 29.2748C20.3471 29.172 19.4496 29.0282 18.619 28.8483C18.8718 28.0313 19.1865 27.1784 19.5579 26.2997ZM32.7584 29.9839C32.8203 30.2202 32.8719 30.4566 32.9183 30.6827C33.2175 32.1933 33.2381 33.5138 33.0576 34.4901C32.877 35.4715 32.4901 36.0624 32.1084 36.2834C31.737 36.4992 31.087 36.5351 30.2049 36.2268C29.3228 35.9134 28.2499 35.2763 27.1357 34.3205C26.8932 34.115 26.6508 33.8941 26.4083 33.6577C27.2388 32.7534 28.0539 31.7155 28.8379 30.585C30.2307 30.4617 31.5513 30.2613 32.7584 29.9839ZM18.2837 30.0404C19.4908 30.3076 20.8062 30.4926 22.1887 30.6005C22.9934 31.7309 23.8342 32.7637 24.6751 33.6629C24.4894 33.8427 24.3088 34.0123 24.1231 34.1715C22.9625 35.1838 21.8224 35.862 20.8836 36.1909C19.9396 36.5249 19.2329 36.4889 18.8512 36.2679C18.4798 36.0573 18.1238 35.5126 17.9484 34.598C17.7782 33.6834 17.7988 32.44 18.0722 30.9961C18.129 30.6878 18.2012 30.3692 18.2837 30.0404ZM27.2388 30.6878C26.6765 31.4483 26.1091 32.1471 25.5417 32.7739C24.9588 32.1471 24.3707 31.4483 23.7981 30.6981C24.3552 30.7186 24.9175 30.7289 25.4901 30.7289C26.0782 30.7289 26.6611 30.7135 27.2388 30.6878Z" fill="white"/>
</svg>
