<svg width="100" height="50" viewBox="0 0 100 50" fill="none" xmlns="http://www.w3.org/2000/svg">
<path d="M1.66666 14.04V35.96H23.5867V14.04H1.66666ZM62.56 19.5534C60.61 19.5534 59.36 20.8 59.36 22.4367C59.36 24.2134 60.4067 25.0534 61.9833 25.7267L62.5267 25.96C63.5267 26.3934 64.1167 26.66 64.1167 27.41C64.1167 28.0334 63.54 28.4834 62.6367 28.4834C61.56 28.4834 60.9533 27.9234 60.4867 27.16L58.71 28.1867C59.3467 29.4534 60.6567 30.42 62.6833 30.42C64.7567 30.42 66.3 29.34 66.3 27.3767C66.3 25.5534 65.2567 24.7434 63.4 23.9467L62.8567 23.7134C61.92 23.31 61.5133 23.0467 61.5133 22.39C61.5133 21.8567 61.92 21.4567 62.56 21.4567C63.1833 21.4567 63.5867 21.72 63.96 22.39L65.66 21.2967C64.9433 20.0367 63.9467 19.5534 62.56 19.5534ZM33.4267 19.6767V27.0967C33.4267 28.1867 32.9733 28.4667 32.2567 28.4667C31.5067 28.4667 31.1967 27.9534 30.8533 27.3467L29.0767 28.42C29.59 29.5134 30.6033 30.42 32.35 30.42C34.2833 30.42 35.6067 29.3867 35.6067 27.1267V19.6767H33.4267ZM82.4033 19.8934C82.2304 19.8934 82.0592 19.9274 81.8995 19.9936C81.7397 20.0598 81.5946 20.1568 81.4723 20.279C81.35 20.4013 81.2531 20.5464 81.1869 20.7062C81.1207 20.8659 81.0867 21.0371 81.0867 21.21C81.0867 21.3829 81.1207 21.5542 81.1869 21.7139C81.2531 21.8737 81.35 22.0188 81.4723 22.1411C81.5946 22.2633 81.7397 22.3603 81.8995 22.4265C82.0592 22.4927 82.2304 22.5267 82.4033 22.5267C82.578 22.5299 82.7515 22.4978 82.9135 22.4324C83.0755 22.367 83.2226 22.2697 83.3461 22.1462C83.4696 22.0226 83.567 21.8755 83.6324 21.7135C83.6978 21.5515 83.7298 21.378 83.7267 21.2034C83.728 21.0298 83.6946 20.8578 83.6284 20.6974C83.5622 20.5369 83.4646 20.3914 83.3413 20.2693C83.2179 20.1472 83.0714 20.051 82.9103 19.9865C82.7492 19.9219 82.5768 19.8903 82.4033 19.8934ZM94.17 20.1767V23.6334H93.19V25.38H94.17V27.78C94.17 29.7734 95.1367 30.4467 96.48 30.4467C97.4467 30.4467 98.0067 30.1 98.3333 29.8367L97.54 28.37C97.4 28.4634 97.15 28.6534 96.8067 28.6534C96.48 28.6534 96.26 28.5134 96.26 27.84V25.38H97.96V23.6334H96.26V20.1767H94.17ZM40.2033 23.4967C38.6467 23.4967 37.9467 23.98 37.3233 24.5867L38.49 25.8334C38.6879 25.6349 38.9241 25.4788 39.1843 25.3745C39.4445 25.2702 39.7231 25.2199 40.0033 25.2267C40.7033 25.2267 41.08 25.57 41.11 26.3334H39.5667C37.93 26.3334 36.8533 26.91 36.8533 28.3267C36.8533 29.87 37.9767 30.4167 39.1933 30.4167C40.08 30.4167 40.66 30.12 41.1567 29.3567L41.11 30.2767H43.2V26.5034C43.2 24.4167 41.9033 23.4967 40.2067 23.4967M54.75 23.4967C53.19 23.4967 52.49 23.98 51.8667 24.5867L53.0333 25.8334C53.2313 25.6349 53.4675 25.4788 53.7276 25.3745C53.9878 25.2702 54.2665 25.2199 54.5467 25.2267C55.2467 25.2267 55.6233 25.57 55.6533 26.3334H54.11C52.4733 26.3334 51.3967 26.91 51.3967 28.3267C51.3967 29.87 52.52 30.4167 53.7367 30.4167C54.6233 30.4167 55.2033 30.12 55.7033 29.3567L55.6533 30.2767H57.7433V26.5034C57.7433 24.4167 56.45 23.4967 54.75 23.4967ZM71.1167 23.4967C69.0433 23.4967 67.4833 24.93 67.4833 26.94C67.4833 28.9834 69.0433 30.4167 71.1167 30.4167C72.4433 30.4167 73.22 29.95 73.8767 29.2167L72.4567 27.97C72.1467 28.28 71.79 28.5934 71.1167 28.5934C70.1667 28.5934 69.6367 27.9067 69.6367 26.94C69.6367 26.0067 70.1667 25.3367 71.1167 25.3367C71.3731 25.3386 71.6251 25.4035 71.8506 25.5255C72.0761 25.6476 72.2682 25.8231 72.41 26.0367L73.91 24.82C73.2367 23.98 72.4433 23.4967 71.1167 23.4967ZM79.1767 23.4967C78.49 23.4967 77.71 23.7467 77.2267 24.8367L77.26 23.6367H75.1533V30.2767H77.26V27.33C77.26 25.9134 77.7733 25.4767 78.7267 25.4767C79.02 25.4767 79.27 25.5534 79.5333 25.6767L80.2033 23.76C79.9367 23.62 79.6133 23.4934 79.1767 23.4934M89.37 23.4934C88.34 23.4934 87.6367 23.9467 87.2367 24.6634L87.28 23.6367H85.18V33.58H87.28V29.3867C87.6233 29.9967 88.31 30.42 89.3233 30.42C90.9433 30.42 92.3333 28.9834 92.3333 26.94C92.3333 24.8967 90.9767 23.4967 89.37 23.4967M43.8033 23.6367L47.4067 30.4167H47.6067L51.1633 23.6367H49.03L48.1233 25.6167C47.8267 26.2834 47.61 27.3767 47.61 27.3767C47.61 27.3767 47.3767 26.2867 47.0633 25.6167L46.13 23.6367H43.8033ZM81.3433 23.6367V30.2767H83.4467V23.6367H81.3433ZM18.35 23.9867C19.66 23.9867 20.6033 24.4434 21.2833 25.6367L19.6733 26.6667C19.32 26.0334 18.94 25.7834 18.3467 25.7834C17.7467 25.7834 17.3633 26.1667 17.3633 26.6667C17.3633 27.2834 17.7433 27.5334 18.63 27.9167L19.1433 28.1367C20.8933 28.89 21.88 29.6534 21.88 31.3734C21.88 33.2267 20.4233 34.2434 18.4667 34.2434C16.5567 34.2434 15.32 33.3334 14.7133 32.1367L16.3867 31.1667C16.83 31.8867 17.4033 32.4167 18.42 32.4167C19.2733 32.4167 19.82 31.99 19.82 31.4C19.82 30.6934 19.26 30.4434 18.32 30.0334L17.8033 29.8134C16.3167 29.18 15.33 28.3867 15.33 26.71C15.33 25.1634 16.5067 23.9867 18.3467 23.9867M11.5433 24.1034H13.6V31.1367C13.6 33.27 12.35 34.24 10.5267 34.24C8.87666 34.24 7.92 33.3867 7.43666 32.36L9.11333 31.3434C9.43666 31.9167 9.73 32.4034 10.4367 32.4034C11.1133 32.4034 11.54 32.1367 11.54 31.11L11.5433 24.1034ZM88.71 25.35C89.6 25.35 90.1633 25.96 90.1633 26.94C90.1633 27.9867 89.6 28.5767 88.7133 28.5767C87.81 28.5767 87.2133 27.9867 87.2133 26.9434C87.2133 25.96 87.81 25.35 88.7133 25.35M39.6733 27.58H41.1067V27.8467C41.1067 28.4067 40.67 28.78 39.8133 28.78C39.22 28.78 38.91 28.5634 38.91 28.1867C38.91 27.81 39.1433 27.58 39.6733 27.58ZM54.2167 27.58H55.65V27.8467C55.65 28.4067 55.2167 28.78 54.3567 28.78C53.7633 28.78 53.4533 28.5634 53.4533 28.1867C53.4533 27.81 53.6867 27.58 54.2167 27.58Z" fill="white"/>
</svg>
