<svg width="100" height="50" viewBox="0 0 100 50" fill="none" xmlns="http://www.w3.org/2000/svg">
<path d="M38.6493 23.0272L38.6494 23.0266L38.2119 24.5774L38.6493 23.0272Z" fill="white"/>
<path d="M40.7758 28.71H40.7763L37.8873 28.7205L40.776 28.71H40.7758Z" fill="white"/>
<path d="M41.0291 28.5131L41.5323 26.5939L41.0291 28.5135V28.5131Z" fill="white"/>
<path d="M49.2558 19.6748L48.5441 22.9671L49.2558 19.6745V19.6748Z" fill="white"/>
<path d="M51.505 19.4765H49.5004C49.3892 19.4765 49.2788 19.5657 49.255 19.6744L47.8317 26.2595C47.8081 26.3681 47.6978 26.4571 47.5866 26.4571H46.1678C44.764 26.4571 44.9264 25.4863 45.2139 24.156C45.2168 24.1426 45.2196 24.1296 45.2225 24.1158L45.254 23.9482C45.2559 23.9374 45.2582 23.9265 45.2599 23.9167L45.3927 23.2094C45.4135 23.0992 45.4452 22.9379 45.466 22.8366L46.1133 19.6751C46.1356 19.5661 46.0626 19.4766 45.9514 19.4766H43.8938C43.7825 19.4766 43.6724 19.5661 43.6496 19.6748L42.7649 23.8725C42.7645 23.8734 42.7644 23.8747 42.7643 23.8757L42.7231 24.0707C42.2135 26.3972 42.3487 28.6158 45.1182 28.6852C45.1634 28.6866 45.1985 28.6869 45.1985 28.6869H49.5458C49.657 28.6869 49.7671 28.5976 49.7904 28.4886L51.6653 19.6749C51.6885 19.5659 51.6163 19.4765 51.505 19.4765Z" fill="white"/>
<path d="M59.2749 28.5815L59.4694 27.6295L59.2747 28.5818C59.2747 28.5816 59.2749 28.5815 59.2749 28.5815Z" fill="white"/>
<path d="M59.0308 28.7818C59.031 28.7818 59.0314 28.7815 59.0317 28.7815C58.4418 28.7863 56.669 28.7997 55.3366 28.7997C56.9581 28.7997 59.0306 28.7818 59.0306 28.7818L59.0308 28.7818Z" fill="white"/>
<path d="M54.1407 25.2547C54.139 25.1504 54.2576 24.971 54.369 24.971L54.1187 24.9669C54.0059 26.1015 54.1407 25.2547 54.1407 25.2547Z" fill="white"/>
<path d="M59.502 26.4801C59.6134 26.4801 59.6862 26.5693 59.6639 26.6783L59.4375 27.7849" fill="white"/>
<path d="M56.4604 28.797C56.2982 28.7977 56.1363 28.7983 55.9768 28.7987C56.1363 28.7984 56.2983 28.7978 56.4604 28.797Z" fill="white"/>
<path d="M59.0321 28.7814H59.0322C58.5999 28.7849 57.5323 28.7929 56.4676 28.797C57.5317 28.7932 58.5996 28.7849 59.0321 28.7814Z" fill="white"/>
<path d="M59.2749 28.5819L59.4379 27.7848L59.2747 28.5825C59.2747 28.5823 59.2749 28.5823 59.2749 28.5819Z" fill="white"/>
<path d="M26.3084 25.2786L26.6198 23.8982L26.2638 25.4761L25.9221 27.0833L26.2216 25.6744C26.2447 25.5654 26.2839 25.3872 26.3084 25.2786Z" fill="white"/>
<path d="M30.0354 19.4533H27.8339C27.7225 19.4533 27.6115 19.5422 27.5866 19.6505L27.1691 21.4936C27.1446 21.602 27.2155 21.6909 27.3269 21.6909H29.5454C29.6567 21.6909 29.7672 21.602 29.7912 21.4933L30.1946 19.6512V19.6509C30.2184 19.5422 30.1468 19.4533 30.0354 19.4533Z" fill="white"/>
<path d="M29.5563 22.5183V22.518L28.9106 25.5052L29.5563 22.5183Z" fill="white"/>
<path d="M23.161 32.4157C23.161 32.4157 24.2708 32.43 24.9762 32.43C24.4403 32.43 23.5553 32.4201 23.1601 32.4153C23.1605 32.4153 23.1608 32.4156 23.1612 32.4156L23.161 32.4157Z" fill="white"/>
<path d="M29.397 22.3204H27.1782C27.067 22.3204 26.9558 22.4093 26.9312 22.518L26.3082 25.2786C26.2836 25.3873 26.2444 25.5655 26.2213 25.6745L25.6226 28.4923C25.5994 28.601 25.5516 28.7766 25.5159 28.8821C25.5159 28.8821 25.1014 30.1155 24.4045 30.1015C24.3749 30.1008 24.346 30.1006 24.3175 30.0998C23.9799 30.0935 23.7145 30.0887 23.7145 30.0887H23.714C23.6029 30.0871 23.4912 30.1738 23.4653 30.2818L23.0054 32.216C22.9796 32.3241 23.0494 32.4133 23.1599 32.4152C23.5551 32.42 24.4402 32.4299 24.976 32.4299C26.7167 32.4299 27.6343 31.4655 28.2225 28.6903L29.5566 22.518C29.58 22.4093 29.5081 22.3204 29.3969 22.3204L29.397 22.3204Z" fill="white"/>
<path d="M60.9158 28.6867C60.8045 28.6867 60.7324 28.5975 60.7558 28.4885L62.4249 20.6704" fill="white"/>
<path d="M60.78 28.5877C60.7665 28.5332 60.7744 28.3996 60.798 28.2906L61.5902 24.5796L60.7556 28.4885C60.7322 28.5975 60.8044 28.6868 60.9156 28.6868H61.1183C61.0069 28.6868 60.7934 28.6422 60.78 28.5877Z" fill="white"/>
<path d="M63.1037 28.6421C63.0431 28.6666 62.9022 28.6867 62.7909 28.6867H62.9935C63.1048 28.6867 63.2141 28.5975 63.2361 28.4882L63.2762 28.2899C63.2541 28.3989 63.1644 28.6175 63.1037 28.6421Z" fill="white"/>
<path d="M63.5736 26.8197L63.8716 25.347C63.8715 25.3479 63.8713 25.3492 63.8711 25.3498L63.5736 26.8197Z" fill="white"/>
<path d="M70.1594 21.194L70.2514 21.5739C70.2767 21.6826 70.2064 21.7709 70.0954 21.7712" fill="white"/>
<path d="M63.8712 25.3471C63.8934 25.2381 63.93 25.0615 63.9531 24.9535L64.2714 23.4626L63.9109 25.1514L63.8712 25.3471Z" fill="white"/>
<path d="M62.4523 20.5422C62.4301 20.6474 62.4017 20.7803 62.3829 20.8683L61.5908 24.5796L62.4253 20.6704L62.4523 20.5422Z" fill="white"/>
<path d="M70.2508 21.5739L70.1589 21.194L70.0218 20.6079C69.8416 19.9077 69.3125 19.5036 68.1638 19.5036L64.7284 19.4998H62.8751C62.7638 19.4998 62.6537 19.5887 62.6308 19.6977H62.6306L62.452 20.5423L62.4251 20.6704L60.7984 28.2906C60.7748 28.3996 60.7669 28.5331 60.7804 28.5876C60.7938 28.6421 61.0073 28.6868 61.1187 28.6868H62.7907C62.9021 28.6868 63.0429 28.6667 63.1035 28.6421C63.1642 28.6176 63.2538 28.399 63.276 28.29L63.8708 25.3499C63.8709 25.3493 63.871 25.3481 63.8712 25.3471L63.9109 25.1514L64.2714 23.4626L64.5898 21.971C64.6134 21.8626 64.723 21.774 64.8341 21.7737L70.0949 21.7712C70.206 21.7709 70.2761 21.6826 70.2508 21.5739Z" fill="white"/>
<path d="M77.0233 18.1389C76.9119 18.1397 76.7298 18.1404 76.6184 18.1404H74.9345C74.8231 18.1404 74.6805 18.2156 74.6177 18.3075L70.8943 23.7625C70.8314 23.8546 70.7596 23.8409 70.7349 23.7325L70.461 22.5307C70.4363 22.422 70.3248 22.3334 70.2135 22.3334H67.8198C67.7084 22.3334 67.6424 22.4207 67.6729 22.5278L68.7455 26.2853C68.7761 26.3924 68.7783 26.5683 68.7507 26.6761L68.2832 28.4946C68.2555 28.6027 68.324 28.691 68.4354 28.691H70.8012C70.9124 28.691 71.0262 28.6027 71.0538 28.4946L71.5215 26.6761C71.549 26.5683 71.6265 26.4071 71.6936 26.3182L77.7384 18.2952C77.8055 18.2063 77.7692 18.1339 77.658 18.1347L77.0233 18.1389Z" fill="white"/>
<path d="M58.006 22.8449L58.0059 22.8426C57.9919 22.9634 57.8805 23.052 57.7692 23.052H54.7344C54.6295 23.052 54.5762 22.9806 54.5916 22.8927C54.5925 22.8901 54.5929 22.8879 54.5945 22.8857C54.5945 22.8857 54.5934 22.8859 54.5926 22.8866C54.5932 22.8831 54.5932 22.8799 54.5942 22.8764C54.5942 22.8764 54.6 22.855 54.6081 22.8248C54.8979 22.0541 55.4883 21.5483 56.5979 21.5483C57.8471 21.5483 58.0909 22.1587 58.006 22.8449ZM57.1157 19.3419C53.2202 19.3419 52.2972 21.7064 51.7793 24.0928C51.2614 26.5252 51.306 28.7995 55.3369 28.7995H55.48C55.4928 28.7993 55.5059 28.7993 55.5186 28.7993H55.7788C55.7944 28.799 55.81 28.799 55.826 28.799C55.8661 28.799 55.9066 28.7987 55.9473 28.7987H55.9758C56.1353 28.7985 56.2972 28.7977 56.4594 28.7971L56.4676 28.797C57.5322 28.7929 58.5998 28.785 59.0323 28.7815C59.1429 28.7799 59.2511 28.6907 59.2739 28.5826L59.6635 26.6784C59.6858 26.5694 59.613 26.4801 59.5016 26.4801H55.8777C54.4363 26.4801 54.0083 26.097 54.166 24.9711H59.959L59.9585 24.9717C59.96 24.9717 59.9612 24.9711 59.9625 24.9711C60.0546 24.9694 60.1397 24.906 60.1735 24.8216C60.1799 24.8053 60.1853 24.7884 60.1875 24.7709L60.1868 24.7716C61.047 21.5271 60.8003 19.3421 57.1155 19.3421L57.1157 19.3419Z" fill="white"/>
<path d="M38.7041 22.8325L38.6494 23.0266C38.6494 23.0272 38.6493 23.0272 38.6493 23.0272L38.2119 24.5774L37.7745 26.1273C37.7442 26.2344 37.6285 26.322 37.517 26.322H35.2017C33.4455 26.322 33.0179 24.9485 33.4455 22.9225C33.8731 20.8503 34.7114 19.5621 36.4399 19.4317C38.8019 19.2535 39.2745 20.9148 38.7041 22.8325ZM40.2919 26.2028C40.2919 26.2028 41.3835 23.5524 41.6314 22.0214C41.9708 19.972 40.9447 17 36.9815 17C33.0406 17 31.3294 19.8376 30.6765 22.9223C30.0236 26.0293 30.879 28.7542 34.7973 28.7319L40.7774 28.7099C40.8886 28.709 41.0024 28.6207 41.0308 28.5133L41.534 26.5936C41.562 26.4859 41.494 26.3973 41.3828 26.3967L40.4182 26.3909C40.3236 26.3903 40.2694 26.3291 40.2809 26.2478C40.2829 26.2332 40.2863 26.2182 40.2927 26.2026L40.2919 26.2028Z" fill="white"/>
<path d="M59.7996 24.4289C59.7996 24.5022 59.7402 24.5618 59.6667 24.5618C59.5934 24.5618 59.5338 24.5022 59.5338 24.4289C59.5338 24.3556 59.5934 24.2963 59.6667 24.2963C59.7402 24.2963 59.7996 24.3556 59.7996 24.4289Z" fill="white"/>
</svg>
