<svg width="100" height="50" viewBox="0 0 100 50" fill="none" xmlns="http://www.w3.org/2000/svg">
<path d="M32.3235 18.4164H38.5521C40.3804 18.4318 41.7051 18.9561 42.5263 19.9892C43.3474 21.0223 43.6186 22.4332 43.3397 24.2218C43.2312 25.039 42.9911 25.8408 42.6193 26.6272C42.2629 27.4136 41.767 28.1229 41.1318 28.7551C40.3571 29.5569 39.5282 30.0658 38.645 30.2816C37.7619 30.4975 36.8477 30.6055 35.9026 30.6055H33.1137L32.2305 35H29L32.3235 18.4164ZM35.0427 21.0531L33.6482 27.9919C33.7412 28.0073 33.8341 28.015 33.9271 28.015H34.2525C35.7399 28.0304 36.9794 27.8839 37.971 27.5755C38.9626 27.2517 39.6289 26.1261 39.9698 24.1987C40.2487 22.5796 39.9698 21.6468 39.1331 21.4C38.3119 21.1533 37.2815 21.0377 36.042 21.0531C35.8561 21.0685 35.6779 21.0762 35.5075 21.0762C35.3525 21.0762 35.1899 21.0762 35.0194 21.0762L35.0427 21.0531Z" fill="white"/>
<path d="M47.0206 14H50.2278L49.3214 18.4177H52.2033C53.7837 18.4485 54.9613 18.7723 55.736 19.3891C56.5262 20.0059 56.7586 21.1778 56.4332 22.9047L54.876 30.6068H51.6223L53.1097 23.2517C53.2646 22.4807 53.2182 21.9333 52.9703 21.6095C52.7224 21.2857 52.1878 21.1238 51.3666 21.1238L48.7869 21.1007L46.8811 30.6068H43.6739L47.0206 14Z" fill="white"/>
<path d="M59.8777 18.4164H66.1063C67.9346 18.4318 69.2593 18.9561 70.0805 19.9892C70.9017 21.0223 71.1728 22.4332 70.8939 24.2218C70.7855 25.039 70.5453 25.8408 70.1735 26.6272C69.8171 27.4136 69.3213 28.1229 68.686 28.7551C67.9113 29.5569 67.0824 30.0658 66.1993 30.2816C65.3161 30.4975 64.4019 30.6055 63.4568 30.6055H60.6679L59.7847 35H56.5542L59.8777 18.4164ZM62.5969 21.0531L61.2024 27.9919C61.2954 28.0073 61.3884 28.015 61.4813 28.015H61.8067C63.2941 28.0304 64.5336 27.8839 65.5253 27.5755C66.5169 27.2517 67.1831 26.1261 67.524 24.1987C67.8029 22.5796 67.524 21.6468 66.6873 21.4C65.8661 21.1533 64.8357 21.0377 63.5963 21.0531C63.4103 21.0685 63.2321 21.0762 63.0617 21.0762C62.9068 21.0762 62.7441 21.0762 62.5737 21.0762L62.5969 21.0531Z" fill="white"/>
</svg>
