<svg width="100" height="50" viewBox="0 0 100 50" fill="none" xmlns="http://www.w3.org/2000/svg">
<path d="M54.7662 21.8074C53.7138 21.8074 52.9301 22.3229 52.9301 23.5637C52.9301 24.4985 53.4466 25.1474 54.7096 25.1474C55.7801 25.1474 56.5071 24.5182 56.5071 23.5251C56.5071 22.3996 55.8565 21.8074 54.7662 21.8074ZM52.6614 30.5678C52.4124 30.8727 52.1642 31.1966 52.1642 31.579C52.1642 32.3417 53.1392 32.5713 54.4786 32.5713C55.5882 32.5713 57.0996 32.4938 57.0996 31.4647C57.0996 30.853 56.3725 30.8151 55.4537 30.7576L52.6614 30.5678ZM58.3237 21.8651C58.6675 22.3042 59.0315 22.915 59.0315 23.7928C59.0315 25.9109 57.3671 27.1513 54.9574 27.1513C54.3446 27.1513 53.7898 27.0752 53.4458 26.9799L52.8143 27.9912L54.6888 28.1054C57.9985 28.3158 59.9492 28.4114 59.9492 30.9486C59.9492 33.1438 58.0175 34.3834 54.6888 34.3834C51.2264 34.3834 49.9065 33.5055 49.9065 31.9981C49.9065 31.139 50.2892 30.682 50.9588 30.0513C50.3273 29.785 50.1171 29.3082 50.1171 28.7927C50.1171 28.3726 50.3273 27.991 50.6721 27.6282C51.0163 27.266 51.3988 26.9029 51.858 26.4832C50.9207 26.0253 50.2128 25.0329 50.2128 23.6205C50.2128 21.4262 51.6668 19.9192 54.593 19.9192C55.4158 19.9192 55.9134 19.9948 56.3534 20.11H60.0839V21.7316L58.3237 21.8651Z" fill="white"/>
<path d="M63.4511 18.3973C62.3605 18.3973 61.7294 17.767 61.7294 16.6788C61.7294 15.592 62.3605 15 63.4511 15C64.5607 15 65.192 15.592 65.192 16.6788C65.192 17.767 64.5607 18.3973 63.4511 18.3973ZM60.983 29.8654V28.3586L61.9589 28.2254C62.2269 28.1867 62.2649 28.1299 62.2649 27.8429V22.2325C62.2649 22.0231 62.2078 21.8889 62.0159 21.8321L60.983 21.4692L61.1933 19.924H65.1535V27.8431C65.1535 28.149 65.172 28.1868 65.4597 28.2255L66.4354 28.3587V29.8655H60.9829" fill="white"/>
<path d="M74 29.1258C73.1771 29.5261 71.9722 29.8887 70.8812 29.8887C68.6049 29.8887 67.7444 28.9736 67.7444 26.8163V21.8169C67.7444 21.7026 67.7444 21.626 67.5907 21.626H66.2519V19.9276C67.9358 19.7363 68.6048 18.8965 68.8153 16.8164H70.6329V19.5272C70.6329 19.6603 70.6329 19.7179 70.7861 19.7179H73.4831V21.6259H70.6329V26.1866C70.6329 27.3127 70.9011 27.7512 71.9335 27.7512C72.4698 27.7512 73.0239 27.618 73.4831 27.4461L74 29.1258Z" fill="white"/>
<path d="M45.6558 24.1178L36.9084 15.3927C36.4051 14.8902 35.5882 14.8902 35.0842 15.3927L33.2679 17.2048L35.5718 19.5031C36.1074 19.3227 36.7214 19.4437 37.1481 19.8695C37.577 20.2979 37.6974 20.9156 37.5121 21.4517L39.7326 23.6668C40.2698 23.4821 40.8897 23.6015 41.3186 24.0302C41.9184 24.6283 41.9184 25.5974 41.3186 26.1957C40.7188 26.7941 39.7473 26.7941 39.1471 26.1957C38.6962 25.7455 38.5846 25.0845 38.8131 24.5302L36.7421 22.4643L36.742 27.9007C36.8882 27.9729 37.0262 28.0693 37.148 28.1903C37.7476 28.7883 37.7476 29.7573 37.148 30.3564C36.5483 30.9544 35.5763 30.9544 34.9772 30.3564C34.3776 29.7574 34.3776 28.7884 34.9772 28.1903C35.1254 28.0427 35.2969 27.931 35.4798 27.8562V22.3693C35.2968 22.2947 35.1255 22.1839 34.9771 22.0351C34.5229 21.5824 34.4135 20.9173 34.6465 20.3609L32.3753 18.0949L26.3779 24.0775C25.874 24.5804 25.874 25.3954 26.3779 25.898L35.1247 34.6231C35.6283 35.1256 36.445 35.1256 36.9493 34.6231L45.6557 25.9392C46.1594 25.4364 46.1594 24.6212 45.6557 24.1186" fill="white"/>
</svg>
