<svg width="100" height="50" viewBox="0 0 100 50" fill="none" xmlns="http://www.w3.org/2000/svg">
<path d="M29.3341 30.4588L21.7592 34.76V31.4107L26.4789 28.804L29.3341 30.4588ZM29.853 29.9878V20.994L27.0822 22.6014V28.3829L29.853 29.9878ZM13.5189 30.4588L21.0938 34.76V31.4107L16.3716 28.804L13.5189 30.4588ZM13 29.9878V20.994L15.7708 22.6014V28.3829L13 29.9878ZM13.3252 20.4109L21.0938 16V19.2371L16.1159 21.9859L16.0761 22.0083L13.3252 20.4109ZM29.5278 20.4109L21.7592 16V19.2371L26.7371 21.9834L26.7769 22.0058L29.5278 20.4109Z" fill="white"/>
<path d="M21.0938 30.6482L16.4361 28.0764V22.9852L21.0938 25.684V30.6482ZM21.7592 30.6482L26.4169 28.0789V22.9852L21.7592 25.684V30.6482ZM16.7515 22.397L21.4265 19.8178L26.1015 22.397L21.4265 25.1059L16.7515 22.397Z" fill="white"/>
<path d="M40.7399 28.829H42.7882L44.8762 21.8463H42.8801L41.6437 26.8005L40.3253 21.8463H38.5973L37.2665 26.8005L36.0425 21.8463H34.0464L36.122 28.829H38.1703L39.4613 24.3558L40.7399 28.829ZM44.983 25.3576C44.983 27.4534 46.4056 29.0034 48.6426 29.0034C50.3731 29.0034 51.3041 27.9617 51.5697 27.4683L50.3582 26.5463C50.1595 26.8403 49.6133 27.401 48.6674 27.401C47.642 27.401 46.8972 26.7332 46.8575 25.7987H51.756C51.7684 25.6641 51.7684 25.532 51.7684 25.3974C51.7684 23.1147 50.5444 21.6719 48.3893 21.6719C46.4056 21.6719 44.983 23.2468 44.983 25.3576ZM46.9121 24.595C46.9915 23.7951 47.5502 23.1795 48.4166 23.1795C49.2558 23.1795 49.8666 23.7402 49.9063 24.595H46.9121ZM52.4611 28.829H54.1915V28.1088C54.3778 28.3355 55.0704 29.0034 56.2547 29.0034C58.2509 29.0034 59.6611 27.4957 59.6611 25.3451C59.6611 23.182 58.3576 21.6744 56.3615 21.6744C55.1648 21.6744 54.4721 22.3422 54.2983 22.5815V19.1748H52.4635V28.829H52.4611ZM54.2437 25.3576C54.2437 24.0493 55.0158 23.3016 56.0263 23.3016C57.0914 23.3016 57.8089 24.144 57.8089 25.3576C57.8089 26.5986 57.0641 27.3736 56.0263 27.3736C54.9091 27.3736 54.2437 26.464 54.2437 25.3576ZM62.2109 31.326V28.1063C62.3847 28.3331 63.0749 29.0009 64.2741 29.0009C66.2702 29.0009 67.5736 27.4932 67.5736 25.3302C67.5736 23.1945 66.1634 21.6719 64.1673 21.6719C62.983 21.6719 62.2903 22.3397 62.1041 22.579V21.8438H60.3736V31.326H62.2109ZM62.1587 25.3177C62.1587 24.2087 62.8241 23.3016 63.9414 23.3016C64.9792 23.3016 65.724 24.0767 65.724 25.3177C65.724 26.5338 65.0065 27.3736 63.9414 27.3736C62.9309 27.3736 62.1587 26.626 62.1587 25.3177ZM67.9063 26.6659C67.9063 28.1337 69.103 29.0034 70.5132 29.0034C71.3127 29.0034 71.844 28.7642 72.204 28.3754L72.3232 28.829H73.9469V24.4081C73.9469 22.8456 73.2815 21.6719 71.047 21.6719C69.9819 21.6719 68.9317 22.0731 68.3061 22.4992L68.9988 23.7552C69.5177 23.4886 70.1557 23.2618 70.8484 23.2618C71.6603 23.2618 72.1121 23.6755 72.1121 24.291V24.7445C71.8589 24.5701 71.3127 24.3583 70.6076 24.3583C68.9839 24.3558 67.9063 25.2903 67.9063 26.6659ZM69.7411 26.6111C69.7411 26.0379 70.2327 25.6367 70.9378 25.6367C71.6429 25.6367 72.1494 25.998 72.1494 26.6111C72.1494 27.1992 71.6429 27.573 70.9527 27.573C70.2625 27.573 69.7411 27.1867 69.7411 26.6111ZM78.4035 27.3736C77.2465 27.3736 76.4222 26.5313 76.4222 25.3451C76.4222 24.2237 77.1546 23.3016 78.3389 23.3016C79.1235 23.3016 79.6573 23.6879 79.9626 23.9695L80.4815 22.4195C80.0297 22.0731 79.3097 21.6719 78.2868 21.6719C76.1715 21.6719 74.5875 23.2344 74.5875 25.3576C74.5875 27.4808 76.1317 29.0034 78.2992 29.0034C79.3097 29.0034 80.0694 28.5773 80.4666 28.2558L79.9751 26.7481C79.6672 26.9998 79.1086 27.3736 78.4035 27.3736ZM81.1569 28.829H82.9916V25.223L85.3204 28.829H87.4755L84.8413 25.0087L87.2893 21.8438H85.2261L82.9916 24.7819V19.1748H81.1569V28.829Z" fill="white"/>
</svg>
