<svg width="100" height="50" viewBox="0 0 100 50" fill="none" xmlns="http://www.w3.org/2000/svg">
<path d="M31 16.3632H33.6846L37.1762 27.1118L37.7221 28.9526H37.8531L38.421 27.1118L42.0875 16.3632H44.7502L39.0759 32.6341H36.5222L31 16.3632Z" fill="white"/>
<path d="M46.266 18.874C45.9528 18.5487 45.7971 18.1505 45.7971 17.6813C45.7971 17.2121 45.9537 16.8139 46.266 16.4885C46.5784 16.1632 46.9603 16 47.4119 16C47.8635 16 48.2445 16.1632 48.5577 16.4885C48.8701 16.8148 49.0267 17.2121 49.0267 17.6813C49.0267 18.1505 48.8701 18.5487 48.5577 18.874C48.2445 19.2003 47.8625 19.3626 47.4119 19.3626C46.9612 19.3626 46.5784 19.2003 46.266 18.874ZM46.212 21.0448H48.6127V32.6341H46.212V21.0448Z" fill="white"/>
<path d="M54.6579 32.5658C54.221 32.399 53.8647 32.1796 53.5881 31.9068C52.9625 31.256 52.6493 30.3693 52.6493 29.2484V23.2487H50.7065V21.0448H52.6493V17.7725H55.05V21.0448H57.7566V23.2487H55.05V28.7028C55.05 29.324 55.1663 29.7637 55.3989 30.0209C55.6169 30.3241 55.9952 30.4753 56.5338 30.4753C56.7811 30.4753 56.9991 30.4412 57.1887 30.373C57.3774 30.3048 57.4516 30.232 57.4772 30.2135L58.2008 32.1289C57.2876 32.7299 56.738 32.8156 56.0547 32.8156C55.5601 32.8156 55.0948 32.7318 54.6579 32.5658Z" fill="white"/>
<path d="M61.762 32.2027C60.8964 31.6727 60.2195 30.9417 59.7323 30.0098C59.245 29.0779 59.0013 28.029 59.0013 26.8629C59.0013 25.7568 59.2377 24.7309 59.7103 23.7833C60.1829 22.8367 60.8415 22.0827 61.6851 21.5223C62.5286 20.9618 63.4895 20.6816 64.5657 20.6816C65.6419 20.6816 66.6568 20.9397 67.4793 21.454C68.3009 21.9693 68.9265 22.6735 69.3561 23.5676C69.7848 24.4617 70 25.4692 70 26.5901C70 26.8021 69.978 27.0676 69.935 27.3856H61.4011C61.4881 28.4613 61.8554 29.2908 62.503 29.8743C63.1506 30.4578 63.9035 30.7491 64.7617 30.7491C65.445 30.7491 66.0385 30.5868 66.5405 30.2605C67.0424 29.9352 67.4463 29.4918 67.7514 28.9314L69.7811 29.9315C69.2572 30.8855 68.573 31.6358 67.7294 32.1815C66.8858 32.7272 65.8746 33 64.6958 33C63.6049 33 62.6276 32.7327 61.762 32.2027ZM67.5563 25.4757C67.5269 25.0664 67.4033 24.6618 67.1853 24.2599C66.9673 23.8589 66.6357 23.5216 66.1924 23.2487C65.7482 22.9759 65.2069 22.8395 64.5666 22.8395C63.7954 22.8395 63.1442 23.0782 62.6129 23.5557C62.0817 24.0331 61.7144 24.6728 61.511 25.4757H67.5563Z" fill="white"/>
</svg>
