<svg width="100" height="50" viewBox="0 0 100 50" fill="none" xmlns="http://www.w3.org/2000/svg">
<path fill-rule="evenodd" clip-rule="evenodd" d="M55.3138 35.9017C55.6758 36.0435 56.0886 36.0345 56.454 35.8576L61.1865 33.5672C61.6838 33.3266 62 32.8204 62 32.2651V16.735C62 16.1797 61.6838 15.6735 61.1865 15.4328L56.454 13.1424C55.9745 12.9103 55.4133 12.9672 54.9924 13.2749C54.9323 13.3189 54.875 13.368 54.8212 13.4221L45.7615 21.7353L41.8153 18.7224C41.448 18.442 40.9341 18.4649 40.593 18.7771L39.3273 19.9351C38.9099 20.3169 38.9095 20.9772 39.3262 21.3597L42.7485 24.5L39.3262 27.6403C38.9095 28.0227 38.9099 28.6831 39.3273 29.0649L40.593 30.2229C40.9341 30.5351 41.448 30.5581 41.8153 30.2776L45.7615 27.2647L54.8212 35.5779C54.9646 35.7222 55.1328 35.8308 55.3138 35.9017ZM56.257 19.2517L49.3828 24.5L56.257 29.7483V19.2517Z" fill="white"/>
<path d="M61.1866 15.4364L56.4505 13.1428C55.9022 12.8773 55.2471 12.9893 54.8169 13.4221L39.3125 27.6403C38.8954 28.0227 38.8959 28.6831 39.3135 29.0649L40.5799 30.2229C40.9213 30.5351 41.4355 30.558 41.803 30.2776L60.4739 16.0314C61.1003 15.5535 62 16.0028 62 16.7936V16.7383C62 16.1832 61.6839 15.6772 61.1866 15.4364Z" fill="white"/>
<path d="M61.1866 33.5636L56.4505 35.8572C55.9022 36.1227 55.2471 36.0106 54.8169 35.5779L39.3125 21.3597C38.8954 20.9772 38.8959 20.3169 39.3135 19.9351L40.5799 18.7771C40.9213 18.4649 41.4355 18.4419 41.803 18.7224L60.4739 32.9686C61.1003 33.4465 62 32.9971 62 32.2064V32.2617C62 32.8168 61.6839 33.3228 61.1866 33.5636Z" fill="white"/>
<path d="M56.4507 35.8576C55.9023 36.1229 55.2471 36.0107 54.8169 35.5779C55.347 36.1111 56.2535 35.7335 56.2535 34.9794V14.0206C56.2535 13.2665 55.347 12.8888 54.8169 13.4221C55.2471 12.9893 55.9023 12.8771 56.4507 13.1424L61.186 15.4328C61.6836 15.6735 62 16.1797 62 16.735V32.2651C62 32.8204 61.6836 33.3266 61.186 33.5672L56.4507 35.8576Z" fill="white"/>
<path fill-rule="evenodd" clip-rule="evenodd" d="M55.2998 35.9017C55.6619 36.0435 56.0747 36.0344 56.4401 35.8576L61.1725 33.5672C61.6698 33.3266 61.986 32.8204 61.986 32.265V16.735C61.986 16.1797 61.6698 15.6735 61.1725 15.4328L56.4401 13.1424C55.9605 12.9103 55.3993 12.9672 54.9784 13.2749C54.9183 13.3189 54.861 13.368 54.8073 13.4221L45.7476 21.7353L41.8013 18.7224C41.434 18.4419 40.9202 18.4649 40.579 18.7771L39.3135 19.9351C38.8962 20.3169 38.8957 20.9772 39.3125 21.3597L42.7346 24.5L39.3125 27.6403C38.8957 28.0227 38.8962 28.6831 39.3135 29.0649L40.579 30.2229C40.9202 30.5351 41.434 30.558 41.8013 30.2776L45.7476 27.2647L54.8073 35.5779C54.9506 35.7221 55.1189 35.8308 55.2998 35.9017ZM56.243 19.2517L49.3688 24.5L56.243 29.7483V19.2517Z" fill="url(#paint0_linear_225_72)"/>
<defs>
<linearGradient id="paint0_linear_225_72" x1="50.493" y1="13" x2="50.493" y2="36" gradientUnits="userSpaceOnUse">
<stop stop-color="white"/>
<stop offset="1" stop-color="white" stop-opacity="0"/>
</linearGradient>
</defs>
</svg>
