<svg width="100" height="50" viewBox="0 0 100 50" fill="none" xmlns="http://www.w3.org/2000/svg">
<path d="M28.8909 23.3971C28.7808 23.3971 28.6707 23.5074 28.6707 23.6176V25.8787C28.6707 25.989 28.7808 26.0993 28.8909 26.0993H30.7077V28.9118C30.7077 28.9118 30.3223 29.0772 29.1662 29.0772C27.8448 29.0772 26.028 28.5809 26.028 24.5C26.028 20.4191 27.955 19.9228 29.7718 19.9228C31.3684 19.9228 32.029 20.1985 32.4695 20.3088C32.5796 20.364 32.7447 20.1985 32.7447 20.0882L33.2402 17.8824C33.2402 17.8272 33.2402 17.7721 33.1301 17.7169C32.965 17.6066 31.9189 17 29.2212 17C26.0831 17 23 18.2684 23 24.6654C23 31.0074 26.6336 31.9449 29.6617 31.9449C32.1942 31.9449 33.7357 30.8971 33.7357 30.8971C33.7908 30.8419 33.7908 30.7868 33.7908 30.7316V23.6176C33.7908 23.5074 33.6807 23.3971 33.5706 23.3971" fill="white"/>
<path d="M57.3544 17.7721C57.3544 17.6618 57.2442 17.5515 57.1341 17.5515H54.5465C54.4364 17.5515 54.3263 17.6618 54.3263 17.7721V22.7904H50.2523V17.7721C50.2523 17.6618 50.1421 17.5515 50.032 17.5515H47.4444C47.3343 17.5515 47.2242 17.6618 47.2242 17.7721V31.3934C47.2242 31.5037 47.3343 31.614 47.4444 31.614H50.032C50.1421 31.614 50.2523 31.5037 50.2523 31.3934V25.5478H54.3263V31.3934C54.3263 31.5037 54.4364 31.614 54.5465 31.614H57.1341C57.2442 31.614 57.3544 31.5037 57.3544 31.3934V17.7721Z" fill="white"/>
<path d="M36.7638 21.3015C37.7064 21.3015 38.4705 20.5361 38.4705 19.5919C38.4705 18.6477 37.7064 17.8824 36.7638 17.8824C35.8212 17.8824 35.0571 18.6477 35.0571 19.5919C35.0571 20.5361 35.8212 21.3015 36.7638 21.3015Z" fill="white"/>
<path d="M38.2503 22.239C38.2503 22.1287 38.1401 22.0184 38.03 22.0184H35.4424C35.3323 22.0184 35.2222 22.1287 35.2222 22.239V31.2831C35.2222 31.5588 35.3874 31.614 35.6076 31.614H37.975C38.2503 31.614 38.3053 31.5037 38.3053 31.2831" fill="white"/>
<path d="M64.6767 22.0735C64.5666 22.0735 64.4565 22.1838 64.4565 22.2941V28.9669C64.4565 28.9669 63.7958 29.4632 62.8599 29.4632C61.9239 29.4632 61.7037 29.0221 61.7037 28.1397V22.2941C61.7037 22.1838 61.5936 22.0735 61.4835 22.0735H58.8959C58.7858 22.0735 58.6757 22.1838 58.6757 22.2941V28.5809C58.6757 31.2831 60.1622 31.9449 62.2543 31.9449C63.961 31.9449 65.3373 31.0074 65.3373 31.0074C65.3373 31.0074 65.3924 31.5037 65.4474 31.5588C65.5025 31.614 65.5576 31.6691 65.6126 31.6691H67.2643C67.3744 31.6691 67.4845 31.5588 67.4845 31.4485V22.2941C67.4845 22.1838 67.3744 22.0735 67.2643 22.0735" fill="white"/>
<path d="M73.3754 29.5184C72.2743 29.5184 71.7788 29.0221 71.7788 29.0221V24.6654C71.7788 24.6654 72.3844 24.2794 73.1001 24.2243C74.036 24.114 74.9169 24.4449 74.9169 26.6507C74.9169 29.0221 74.6416 29.5184 73.3203 29.5184H73.3754ZM71.8889 17.7721C71.8889 17.6618 71.7788 17.5515 71.6687 17.5515H69.0811C68.971 17.5515 68.8609 17.6618 68.8609 17.7721V31.3934C68.8609 31.5037 68.971 31.614 69.0811 31.614H70.8979C70.953 31.614 71.0631 31.5588 71.0631 31.5037C71.1181 31.4485 71.1732 30.8971 71.1732 30.8971C71.1732 30.8971 72.2192 31.9449 74.2563 31.9449C76.6236 31.9449 78 30.7316 78 26.5404C78 22.3493 75.8529 21.7978 74.3664 21.7978C72.8799 21.7978 71.8889 22.4596 71.8889 22.4596V17.7721Z" fill="white"/>
<path d="M43.8108 22.0184V19.4265C43.8108 19.3162 43.7558 19.261 43.6456 19.261H40.9479C40.8378 19.261 40.7828 19.3162 40.7828 19.4816V22.1838C40.7828 22.1838 39.4615 22.5147 39.3514 22.5147C39.2412 22.5699 39.1862 22.625 39.1862 22.7353V24.4449C39.1862 24.5551 39.2963 24.6654 39.4064 24.6654H40.7828V28.6912C40.7828 31.7243 42.8749 32 44.3063 32C44.967 32 45.7377 31.7794 45.8478 31.7243C45.9029 31.6691 45.958 31.614 45.958 31.5037V29.6838C45.958 29.5735 45.8478 29.4632 45.7377 29.4632C45.6276 29.4632 45.3524 29.5184 45.022 29.5184C44.0861 29.5184 43.7558 29.0772 43.7558 28.4706C43.7558 27.864 43.7558 24.6654 43.7558 24.6654H45.6827C45.7928 24.6654 45.9029 24.5551 45.9029 24.4449V22.239C45.9029 22.1287 45.7928 22.0184 45.6827 22.0184" fill="white"/>
</svg>
