<svg width="100" height="50" viewBox="0 0 100 50" fill="none" xmlns="http://www.w3.org/2000/svg">
<path d="M76.8738 22.3886C76.7181 22.3886 76.5665 22.4206 76.4324 22.4962L72.1893 24.9367C71.9147 25.0944 71.7478 25.3919 71.7478 25.7086V30.5808C71.7478 30.8971 71.9147 31.1943 72.1893 31.3523L73.2974 31.9895C73.8358 32.2537 74.0343 32.2496 74.2793 32.2496C75.0764 32.2496 75.5315 31.7679 75.5315 30.9307V26.1212C75.5315 26.0532 75.4724 26.0046 75.4055 26.0046H74.8739C74.8058 26.0046 74.7478 26.0532 74.7478 26.1212V30.9307C74.7478 31.3017 74.3597 31.6749 73.7299 31.3613L72.5767 30.6884C72.5358 30.6663 72.5045 30.6273 72.5045 30.5808V25.7084C72.5045 25.6623 72.5355 25.6153 72.5767 25.5918L76.8108 23.1604C76.83 23.1493 76.8517 23.1434 76.8739 23.1434C76.896 23.1434 76.9178 23.1493 76.9369 23.1604L81.1712 25.592C81.2115 25.6161 81.2433 25.6609 81.2433 25.7087V30.5809C81.2433 30.6274 81.2198 30.675 81.1802 30.6975L76.9369 33.129C76.9006 33.1506 76.8505 33.1506 76.8108 33.129L75.7207 32.4831C75.7042 32.4741 75.6856 32.4694 75.6667 32.4694C75.6478 32.4694 75.6293 32.4741 75.6127 32.4831C75.3118 32.6529 75.2552 32.6726 74.973 32.7701C74.9035 32.7943 74.7979 32.8319 75.009 32.9497L76.4324 33.784C76.5667 33.8611 76.719 33.9014 76.8739 33.9007C77.0289 33.9017 77.1812 33.8614 77.3153 33.7841L81.5586 31.3525C81.8332 31.1935 82 30.8973 82 30.5809V25.7086C82 25.392 81.8332 25.095 81.5586 24.937L77.3153 22.4965C77.1823 22.4208 77.0298 22.3887 76.8739 22.3887L76.8738 22.3886Z" fill="white"/>
<path d="M78.009 25.8701C76.8007 25.8701 76.0811 26.3822 76.0811 27.234C76.0811 28.1578 76.7953 28.4117 77.955 28.526C79.3424 28.6613 79.4504 28.8642 79.4504 29.1361C79.4504 29.6079 79.0728 29.8091 78.1803 29.8091C77.0588 29.8091 76.8123 29.5302 76.7298 28.9747C76.7201 28.915 76.6739 28.8669 76.6126 28.8669H76.0631C75.9955 28.8669 75.937 28.925 75.937 28.9926C75.937 29.7038 76.3254 30.5448 78.1803 30.5448C79.5229 30.5448 80.2974 30.02 80.2974 29.1002C80.2974 28.1886 79.6718 27.9438 78.3694 27.7723C77.0534 27.5989 76.9279 27.5139 76.9279 27.207C76.9279 26.9536 77.0343 26.6147 78.009 26.6147C78.8797 26.6147 79.2015 26.8017 79.3334 27.3865C79.3449 27.4414 79.3935 27.4851 79.4504 27.4851H80.0001C80.0339 27.4851 80.0667 27.4644 80.0901 27.4402C80.1132 27.4144 80.1295 27.3854 80.1262 27.3506C80.0411 26.3437 79.3669 25.8701 78.009 25.8701Z" fill="white"/>
<path d="M51.928 16.0001C51.8805 16.0001 51.8339 16.0124 51.7927 16.0358C51.7518 16.0597 51.7178 16.0938 51.6941 16.1347C51.6704 16.1756 51.6578 16.2219 51.6576 16.2692V23.1333C51.6576 23.2007 51.6262 23.261 51.5676 23.2948C51.5389 23.3115 51.5062 23.3203 51.473 23.3203C51.4398 23.3203 51.4071 23.3115 51.3784 23.2948L50.2522 22.6489C50.1701 22.6015 50.0769 22.5766 49.982 22.5766C49.8871 22.5766 49.7938 22.6015 49.7117 22.6489L45.2162 25.2329C45.0482 25.3296 44.946 25.5153 44.946 25.7086V30.8768C44.946 31.0699 45.0483 31.2467 45.2162 31.3433L49.7117 33.9275C49.7938 33.975 49.887 34 49.982 34C50.0769 34 50.1701 33.975 50.2522 33.9275L54.7477 31.3433C54.83 31.2962 54.8984 31.2282 54.9458 31.1463C54.9933 31.0643 55.0182 30.9714 55.0181 30.8768V17.992C55.0179 17.8952 54.992 17.8002 54.943 17.7166C54.8939 17.6331 54.8235 17.564 54.7388 17.5164L52.0631 16.0269C52.0211 16.0035 51.9745 15.9994 51.928 16.0001ZM23.009 22.4514C22.9233 22.4548 22.8427 22.4698 22.7658 22.5142L18.2702 25.0984C18.1879 25.1455 18.1195 25.2135 18.072 25.2954C18.0246 25.3773 17.9997 25.4703 18 25.5649L18.009 32.501C18.009 32.5974 18.059 32.6871 18.1441 32.7342C18.1849 32.7586 18.2317 32.7715 18.2793 32.7715C18.3269 32.7715 18.3736 32.7586 18.4145 32.7342L21.0811 31.2089C21.25 31.1089 21.3603 30.9351 21.3603 30.7423V27.5031C21.3603 27.3098 21.4624 27.1325 21.6307 27.0364L22.7657 26.3815C22.8478 26.334 22.9411 26.3092 23.036 26.3096C23.1287 26.3096 23.2238 26.3327 23.3062 26.3815L24.4414 27.0364C24.5238 27.0835 24.5923 27.1515 24.6398 27.2335C24.6872 27.3154 24.7121 27.4085 24.7117 27.5031V30.7421C24.7117 30.9349 24.8232 31.11 24.991 31.2088L27.6576 32.7342C27.6984 32.7586 27.7452 32.7715 27.7928 32.7715C27.8404 32.7715 27.8871 32.7586 27.9279 32.7342C27.969 32.7105 28.0031 32.6765 28.0269 32.6356C28.0506 32.5946 28.0631 32.5482 28.0632 32.5009L28.0719 25.5649C28.0725 25.4703 28.0477 25.3772 28.0002 25.2952C27.9528 25.2132 27.8842 25.1453 27.8017 25.0984L23.3062 22.5142C23.2302 22.4698 23.1493 22.4549 23.0631 22.4514H23.009ZM63.4054 22.5142C63.3115 22.5142 63.2194 22.5379 63.1352 22.586L58.6397 25.1702C58.5574 25.2174 58.489 25.2853 58.4415 25.3673C58.3941 25.4492 58.3692 25.5421 58.3694 25.6367V30.805C58.3694 30.9994 58.4793 31.1755 58.6486 31.2716L63.1081 33.802C63.2728 33.8955 63.4739 33.9026 63.6397 33.8107L66.3424 32.3123C66.4281 32.2649 66.4861 32.1764 66.4865 32.0791C66.4869 32.0318 66.4747 31.9851 66.4509 31.9441C66.4271 31.9031 66.3928 31.8691 66.3514 31.8458L61.8288 29.2616C61.7442 29.2135 61.6847 29.1161 61.6847 29.0193V27.4043C61.6847 27.3077 61.7448 27.2191 61.8288 27.171L63.2342 26.3634C63.2753 26.3397 63.3219 26.3272 63.3694 26.3272C63.4169 26.3272 63.4635 26.3397 63.5046 26.3634L64.9098 27.171C64.951 27.1946 64.9852 27.2285 65.0089 27.2695C65.0327 27.3104 65.0451 27.3569 65.045 27.4042V28.6783C65.0449 28.7256 65.0573 28.7721 65.0811 28.8131C65.1048 28.854 65.139 28.888 65.1801 28.9115C65.2644 28.9601 65.3663 28.9602 65.4503 28.9115L68.1442 27.3506C68.2263 27.3032 68.2946 27.2352 68.342 27.1533C68.3895 27.0714 68.4145 26.9785 68.4145 26.8839V25.6368C68.4145 25.4442 68.3118 25.267 68.1442 25.1702L63.6757 22.586C63.5936 22.5387 63.5003 22.5138 63.4054 22.5142ZM49.9639 26.3725C49.9874 26.3725 50.015 26.3782 50.036 26.3903L51.5766 27.2786C51.6184 27.3027 51.6487 27.3472 51.6487 27.3952V29.1718C51.6487 29.2201 51.6187 29.2645 51.5766 29.2885L50.036 30.1768C50.0154 30.1885 49.9921 30.1947 49.9684 30.1947C49.9448 30.1947 49.9215 30.1885 49.9009 30.1768L48.3604 29.2885C48.3185 29.2643 48.2883 29.2201 48.2883 29.1718V27.3952C48.2883 27.3471 48.3186 27.3029 48.3604 27.2786L49.9009 26.3905C49.9198 26.3787 49.9417 26.3725 49.964 26.3726L49.9639 26.3725Z" fill="white"/>
<path d="M36.5135 22.4872C36.4198 22.4872 36.3272 22.5109 36.2433 22.5591L31.7478 25.1343C31.5796 25.2307 31.4774 25.4167 31.4774 25.6098V30.7781C31.4774 30.9713 31.5797 31.1479 31.7478 31.2447L36.2433 33.8288C36.3254 33.8763 36.4186 33.9013 36.5135 33.9013C36.6085 33.9013 36.7017 33.8763 36.7838 33.8288L41.2793 31.2447C41.3616 31.1975 41.4299 31.1295 41.4774 31.0475C41.5248 30.9656 41.5497 30.8726 41.5495 30.7781V25.6098C41.5495 25.4165 41.4473 25.2307 41.2793 25.1343L36.7838 22.5591C36.7016 22.5118 36.6084 22.487 36.5135 22.4872ZM63.3964 27.0993C63.3785 27.0993 63.3586 27.0993 63.3424 27.1083L62.4776 27.6107C62.4614 27.6196 62.4479 27.6326 62.4384 27.6484C62.429 27.6642 62.4238 27.6821 62.4235 27.7005V28.6874C62.4235 28.7246 62.445 28.7587 62.4776 28.7772L63.3424 29.2707C63.3748 29.2894 63.4094 29.2894 63.4414 29.2707L64.3063 28.7771C64.3224 28.7681 64.3358 28.7552 64.3453 28.7394C64.3548 28.7237 64.36 28.7058 64.3604 28.6874V27.7004C64.36 27.682 64.3548 27.6641 64.3453 27.6484C64.3358 27.6327 64.3224 27.6197 64.3063 27.6107L63.4414 27.1082C63.4254 27.0988 63.4144 27.0993 63.3964 27.0993Z" fill="white"/>
</svg>
