<svg width="100" height="50" viewBox="0 0 100 50" fill="none" xmlns="http://www.w3.org/2000/svg">
<g clip-path="url(#clip0_225_199)">
<path d="M31.6789 15.0159V29.6566L33.5609 29.6638V22.6951H38.1077V20.8506H33.5609V16.8603H39.4797V15.0159H31.6789ZM42.8773 17.9871C43.5596 17.9871 44.1056 17.4345 44.1056 16.7598C44.1056 16.0852 43.5525 15.5326 42.8773 15.5326C42.1949 15.5326 41.649 16.0852 41.649 16.7598C41.649 17.4345 42.2021 17.9871 42.8773 17.9871ZM41.9219 19.8315V29.6566H43.8039V19.8315H41.9219Z" fill="white"/>
<path fill-rule="evenodd" clip-rule="evenodd" d="M50.7929 19.5444C48.2861 19.5444 46.5406 21.6616 46.5406 24.1735C46.5406 26.6854 48.2861 28.8025 50.7929 28.8025C51.9422 28.8025 52.8832 28.3576 53.5728 27.6399V28.9389C53.5728 30.568 52.2942 31.9244 50.6205 31.9244C50.0172 31.9244 49.421 31.6948 48.9469 31.3646L47.9987 33.001C48.753 33.489 49.6508 33.7689 50.6134 33.7689C53.2854 33.7689 55.4475 31.6087 55.4475 28.9389V19.8315H53.5728V20.7071C52.8832 19.9894 51.9422 19.5444 50.7929 19.5444ZM48.4297 24.1735C48.4297 22.6161 49.6221 21.3889 51.0012 21.3889C52.3804 21.3889 53.5728 22.6161 53.5728 24.1735C53.5728 25.7308 52.3804 26.9581 51.0012 26.9581C49.6221 26.9581 48.4297 25.7308 48.4297 24.1735Z" fill="white"/>
<path d="M62.2498 21.3889C61.1365 21.3889 60.2314 22.3362 60.2314 23.4486V29.6566H58.3495V19.8315H60.2314V20.7286C60.7845 20.0181 61.5962 19.5444 62.6593 19.5444C63.981 19.5444 64.9938 20.1975 65.5828 21.2023C66.2364 20.2334 67.2995 19.5444 68.5853 19.5444C70.733 19.5444 72.069 21.274 72.0762 23.4127V29.6566H70.1943V23.4414C70.1943 22.329 69.2892 21.3817 68.1758 21.3817C67.0625 21.3817 66.1574 22.329 66.1574 23.4414V29.6566H64.2755V23.4414C64.2683 22.329 63.3632 21.3889 62.2498 21.3889Z" fill="white"/>
<path fill-rule="evenodd" clip-rule="evenodd" d="M82.1181 20.9439C81.2776 20.0755 80.1284 19.5444 78.7995 19.5444C75.9981 19.5444 74.0013 21.92 74.0013 24.7476C74.0013 27.5753 75.9909 29.9508 78.7995 29.9508C80.1284 29.9508 81.2776 29.4126 82.1181 28.5513V29.6566H84V19.8315H82.1181V20.9439ZM75.8904 24.7476C75.8904 22.8745 77.327 21.3889 79.0078 21.3889C80.6814 21.3889 82.1252 22.8673 82.1252 24.7476C82.1252 26.6208 80.6886 28.1064 79.0078 28.1064C77.327 28.0992 75.8904 26.6208 75.8904 24.7476Z" fill="white"/>
<path d="M21.3282 24.5036C21.3282 22.7596 22.7433 21.3386 24.4959 21.3386C26.2414 21.3386 27.6636 22.7525 27.6636 24.5036C27.6636 26.2476 26.2486 27.6686 24.4959 27.6686C22.7505 27.6686 21.3282 26.2476 21.3282 24.5036Z" fill="white"/>
<path d="M15 30.8264C15 29.0824 16.4151 27.6614 18.1677 27.6614H21.3354V30.8264C21.3354 32.5703 19.9204 33.9913 18.1677 33.9913C16.4151 33.9913 15 32.5775 15 30.8264Z" fill="white"/>
<path d="M21.3282 15.0158V21.3386H24.4959C26.2414 21.3386 27.6636 19.9248 27.6636 18.1736C27.6636 16.4297 26.2486 15.0087 24.4959 15.0087H21.3282V15.0158Z" fill="white"/>
<path d="M15 18.1808C15 19.9248 16.4151 21.3458 18.1677 21.3458H21.3354V15.0159H18.1677C16.4151 15.0159 15 16.4297 15 18.1808Z" fill="white"/>
<path d="M15 24.5036C15 26.2476 16.4151 27.6686 18.1677 27.6686H21.3354V21.3386H18.1677C16.4151 21.3386 15 22.7596 15 24.5036Z" fill="white"/>
</g>
<defs>
<clipPath id="clip0_225_199">
<rect width="69" height="19" fill="white" transform="translate(15 15)"/>
</clipPath>
</defs>
</svg>
