<svg width="100" height="50" viewBox="0 0 100 50" fill="none" xmlns="http://www.w3.org/2000/svg">
<path d="M31.5002 23.5138C32.3712 23.5138 33.047 23.7426 33.5278 24.2002C34.0085 24.6578 34.2754 25.1776 34.3285 25.7598H33.4201C33.3171 25.3177 33.111 24.9675 32.802 24.7092C32.496 24.4508 32.0652 24.3216 31.5096 24.3216C30.8321 24.3216 30.2843 24.5597 29.866 25.036C29.4508 25.5092 29.2432 26.236 29.2432 27.2166C29.2432 28.0197 29.4305 28.6719 29.8051 29.1731C30.1828 29.6712 30.7447 29.9202 31.4908 29.9202C32.1776 29.9202 32.7005 29.6571 33.0595 29.1311C33.2499 28.854 33.392 28.4898 33.4856 28.0384H34.3941C34.3129 28.7606 34.0444 29.3661 33.5887 29.8548C33.0423 30.4432 32.3056 30.7373 31.3784 30.7373C30.5793 30.7373 29.9081 30.4961 29.3649 30.0136C28.65 29.3754 28.2926 28.3902 28.2926 27.0579C28.2926 26.0462 28.5611 25.2166 29.098 24.5691C29.6786 23.8655 30.4794 23.5138 31.5002 23.5138Z" fill="white"/>
<path d="M36.1407 28.3466C36.1625 28.7357 36.2546 29.0517 36.417 29.2945C36.726 29.749 37.2708 29.9762 38.0512 29.9762C38.4008 29.9762 38.7193 29.9264 39.0065 29.8268C39.5621 29.6338 39.84 29.2883 39.84 28.7902C39.84 28.4166 39.7229 28.1505 39.4888 27.9917C39.2515 27.8361 38.88 27.7007 38.3743 27.5855L37.4425 27.3754C36.8337 27.2384 36.4029 27.0874 36.1501 26.9224C35.713 26.6361 35.4945 26.208 35.4945 25.6384C35.4945 25.022 35.7083 24.5161 36.136 24.1208C36.5637 23.7255 37.1693 23.5278 37.9529 23.5278C38.674 23.5278 39.2859 23.7021 39.7885 24.0508C40.2942 24.3963 40.5471 24.9504 40.5471 25.7131H39.6714C39.6246 25.3457 39.5247 25.064 39.3717 24.8679C39.0876 24.5099 38.6053 24.3309 37.9248 24.3309C37.3753 24.3309 36.9804 24.4461 36.7401 24.6765C36.4997 24.9068 36.3795 25.1745 36.3795 25.4796C36.3795 25.8158 36.52 26.0617 36.8009 26.2174C36.9851 26.317 37.4019 26.4415 38.0512 26.5909L39.0158 26.8104C39.481 26.9162 39.84 27.061 40.0928 27.2446C40.5299 27.5653 40.7484 28.0306 40.7484 28.6408C40.7484 29.4003 40.4706 29.9435 39.9149 30.2704C39.3623 30.5972 38.7193 30.7607 37.9857 30.7607C37.1303 30.7607 36.4607 30.5428 35.9768 30.107C35.4929 29.6743 35.2557 29.0875 35.265 28.3466H36.1407Z" fill="white"/>
<path d="M42.5278 28.3466C42.5497 28.7357 42.6418 29.0517 42.8041 29.2945C43.1131 29.749 43.6579 29.9762 44.4383 29.9762C44.788 29.9762 45.1064 29.9264 45.3936 29.8268C45.9493 29.6338 46.2271 29.2883 46.2271 28.7902C46.2271 28.4166 46.11 28.1505 45.8759 27.9917C45.6386 27.8361 45.2672 27.7007 44.7614 27.5855L43.8296 27.3754C43.2208 27.2384 42.79 27.0874 42.5372 26.9224C42.1001 26.6361 41.8816 26.208 41.8816 25.6384C41.8816 25.022 42.0954 24.5161 42.5231 24.1208C42.9508 23.7255 43.5564 23.5278 44.34 23.5278C45.0611 23.5278 45.673 23.7021 46.1756 24.0508C46.6813 24.3963 46.9342 24.9504 46.9342 25.7131H46.0585C46.0117 25.3457 45.9118 25.064 45.7588 24.8679C45.4748 24.5099 44.9924 24.3309 44.3119 24.3309C43.7625 24.3309 43.3676 24.4461 43.1272 24.6765C42.8868 24.9068 42.7666 25.1745 42.7666 25.4796C42.7666 25.8158 42.9071 26.0617 43.1881 26.2174C43.3722 26.317 43.789 26.4415 44.4383 26.5909L45.403 26.8104C45.8681 26.9162 46.2271 27.061 46.48 27.2446C46.917 27.5653 47.1355 28.0306 47.1355 28.6408C47.1355 29.4003 46.8577 29.9435 46.302 30.2704C45.7495 30.5972 45.1064 30.7607 44.3728 30.7607C43.5174 30.7607 42.8478 30.5428 42.3639 30.107C41.88 29.6743 41.6428 29.0875 41.6522 28.3466H42.5278Z" fill="white"/>
<path d="M28.5782 35.6542H29.9128L31.8889 41.4536L33.8509 35.6542H35.1714V42.5135H34.2864V38.4652C34.2864 38.3251 34.2895 38.0932 34.2957 37.7694C34.302 37.4457 34.3051 37.0986 34.3051 36.7282L32.3431 42.5135H31.4206L29.4445 36.7282V36.9383C29.4445 37.1064 29.4476 37.3632 29.4539 37.7087C29.4632 38.0512 29.4679 38.3033 29.4679 38.4652V42.5135H28.5782L28.5782 35.6542Z" fill="white"/>
<path d="M39.5684 35.4674C40.7827 35.4674 41.6818 35.8565 42.2656 36.6348C42.7214 37.2418 42.9492 38.0185 42.9492 38.9648C42.9492 39.989 42.6886 40.8403 42.1672 41.519C41.5554 42.3159 40.6829 42.7143 39.5497 42.7143C38.4914 42.7143 37.6594 42.3657 37.0538 41.6684C36.5137 40.996 36.2437 40.1461 36.2437 39.1189C36.2437 38.1912 36.4747 37.3974 36.9367 36.7375C37.5299 35.8908 38.4071 35.4674 39.5684 35.4674ZM39.662 41.8832C40.4831 41.8832 41.0762 41.5906 41.4414 41.0053C41.8098 40.417 41.994 39.7415 41.994 38.9788C41.994 38.1726 41.7817 37.5235 41.3571 37.0317C40.9357 36.5398 40.3582 36.2939 39.6246 36.2939C38.9128 36.2939 38.3322 36.5383 37.8826 37.027C37.4331 37.5126 37.2083 38.2301 37.2083 39.1796C37.2083 39.9391 37.4003 40.5804 37.7843 41.1034C38.1714 41.6232 38.7973 41.8832 39.662 41.8832Z" fill="white"/>
<path d="M46.6954 41.7197C47.0107 41.7197 47.2698 41.687 47.4727 41.6217C47.8348 41.5003 48.1314 41.2668 48.3624 40.9213C48.5466 40.6442 48.6792 40.2893 48.7604 39.8567C48.8072 39.5983 48.8306 39.3586 48.8306 39.1376C48.8306 38.2877 48.6605 37.6278 48.3202 37.1577C47.9831 36.6877 47.4383 36.4527 46.686 36.4527H45.033V41.7197H46.6954ZM44.0965 35.6542H46.8827C47.8286 35.6542 48.5622 35.9888 49.0835 36.6581C49.5486 37.262 49.7812 38.0356 49.7812 38.9788C49.7812 39.7072 49.6439 40.3656 49.3691 40.954C48.8853 41.9937 48.0533 42.5135 46.8733 42.5135H44.0965V35.6542Z" fill="white"/>
<path d="M51.9961 35.6542V39.894C51.9961 40.3921 52.0898 40.8061 52.2771 41.1361C52.5549 41.6341 53.0232 41.8832 53.6819 41.8832C54.4717 41.8832 55.0086 41.6139 55.2927 41.0754C55.4456 40.7827 55.5221 40.389 55.5221 39.894V35.6542H56.468V39.5064C56.468 40.35 56.3541 40.9991 56.1262 41.4536C55.7079 42.2816 54.9181 42.6956 53.7568 42.6956C52.5955 42.6956 51.8072 42.2816 51.392 41.4536C51.1642 40.9991 51.0502 40.35 51.0502 39.5064V35.6542H51.9961Z" fill="white"/>
<path d="M57.8962 35.6542H58.8281V41.6964H62.312V42.5135H57.8962V35.6542Z" fill="white"/>
<path d="M63.3234 35.6542H68.3385V36.4947H64.2318V38.5772H68.0295V39.371H64.2318V41.6964H68.4088V42.5135H63.3234V35.6542Z" fill="white"/>
<path d="M70.249 40.3002C70.2709 40.6894 70.363 41.0053 70.5253 41.2481C70.8344 41.7026 71.3791 41.9299 72.1595 41.9299C72.5092 41.9299 72.8276 41.8801 73.1148 41.7804C73.6705 41.5874 73.9483 41.2419 73.9483 40.7438C73.9483 40.3703 73.8313 40.1041 73.5971 39.9454C73.3599 39.7897 72.9884 39.6543 72.4827 39.5391L71.5508 39.329C70.9421 39.192 70.5113 39.0411 70.2584 38.8761C69.8214 38.5897 69.6028 38.1617 69.6028 37.592C69.6028 36.9756 69.8167 36.4698 70.2444 36.0744C70.672 35.6791 71.2777 35.4814 72.0612 35.4814C72.7823 35.4814 73.3942 35.6558 73.8968 36.0044C74.4025 36.3499 74.6554 36.904 74.6554 37.6667H73.7797C73.7329 37.2994 73.633 37.0177 73.4801 36.8215C73.196 36.4636 72.7137 36.2846 72.0331 36.2846C71.4837 36.2846 71.0888 36.3997 70.8484 36.6301C70.608 36.8605 70.4878 37.1282 70.4878 37.4332C70.4878 37.7694 70.6283 38.0154 70.9093 38.171C71.0935 38.2706 71.5102 38.3951 72.1595 38.5446L73.1242 38.764C73.5893 38.8699 73.9483 39.0146 74.2012 39.1983C74.6382 39.5189 74.8568 39.9843 74.8568 40.5944C74.8568 41.354 74.5789 41.8972 74.0232 42.224C73.4707 42.5509 72.8276 42.7143 72.094 42.7143C71.2386 42.7143 70.569 42.4964 70.0851 42.0606C69.6013 41.6279 69.364 41.0411 69.3734 40.3002H70.249Z" fill="white"/>
<path d="M66.1135 5V35.5114H68.4818V36.6375H66.1135V38.4344H68.1727V39.5139H66.1135V41.5535H68.552V42.6564H66.1135V45H26V5H66.1135ZM26.2865 44.7143H65.827V42.6564H63.1802V35.5114H65.827V5.28571H26.2865V44.7143ZM42.806 38.9648C42.806 38.0416 42.584 37.2971 42.1509 36.7204C41.6008 35.987 40.7499 35.6103 39.5684 35.6103C38.4473 35.6103 37.617 36.016 37.0542 36.8193C36.6114 37.4518 36.387 38.2159 36.387 39.1189C36.387 40.1189 36.649 40.9346 37.1636 41.5766C37.7379 42.2367 38.5272 42.5715 39.5496 42.5715C40.6447 42.5715 41.4724 42.1889 42.0535 41.4321C42.5521 40.7831 42.806 39.964 42.806 38.9648ZM70.3446 37.4333C70.3446 37.0856 70.4834 36.7817 70.7491 36.5271C71.029 36.2589 71.4693 36.1417 72.0331 36.1417C72.7245 36.1417 73.2532 36.3208 73.5771 36.714L73.5924 36.7329L73.5928 36.7334L73.5931 36.7338C73.7483 36.9328 73.8487 37.1995 73.9033 37.5238H74.5089C74.4792 36.8717 74.2423 36.4136 73.8158 36.1222L73.8154 36.122L73.815 36.1217C73.3404 35.7925 72.7584 35.6243 72.0612 35.6243C71.3011 35.6243 70.7349 35.8158 70.3417 36.1792C69.9452 36.5458 69.7461 37.0128 69.7461 37.592C69.7461 38.1188 69.9446 38.4995 70.3371 38.7567C70.5672 38.9068 70.9765 39.0533 71.5823 39.1896L72.5142 39.3998L72.5146 39.3998C73.0096 39.5126 73.3924 39.6475 73.6512 39.8102L73.6759 39.826L73.6776 39.8272C73.9632 40.0209 74.0916 40.3399 74.0916 40.7438C74.0916 41.0211 74.0135 41.2647 73.8517 41.4659C73.6913 41.6654 73.4571 41.8128 73.1619 41.9154C72.8575 42.0209 72.5228 42.0727 72.1595 42.0727C71.353 42.0727 70.7526 41.8369 70.4067 41.3283L70.4064 41.3278L70.4061 41.3274C70.246 41.0878 70.1517 40.7908 70.1166 40.4431H69.5181C69.5385 41.0599 69.7478 41.5467 70.1394 41.9163L70.1808 41.9543L70.1812 41.9546C70.6314 42.3601 71.2628 42.5715 72.094 42.5715C72.8056 42.5715 73.4227 42.4132 73.9502 42.1012L73.9505 42.101C74.4539 41.8048 74.7135 41.3142 74.7135 40.5944C74.7135 40.023 74.5115 39.6033 74.1163 39.3134C73.8851 39.1457 73.5471 39.0067 73.0923 38.9033L72.1277 38.6838L72.1273 38.6837C71.4822 38.5353 71.0454 38.4071 70.841 38.2966L70.8403 38.2962L70.8397 38.2959C70.6794 38.207 70.5536 38.0891 70.4688 37.9405C70.3841 37.7923 70.3446 37.6215 70.3446 37.4333ZM56.3247 35.7971H55.6654V39.894C55.6654 40.4014 55.5873 40.8207 55.4197 41.1414L55.4195 41.1419C55.1031 41.7416 54.5065 42.026 53.6818 42.026C52.9811 42.026 52.4599 41.7569 52.1524 41.2064C51.9497 40.8493 51.8528 40.4092 51.8528 39.894V35.7971H51.1935V39.5064C51.1935 40.3407 51.3067 40.964 51.5202 41.3897C51.9046 42.1563 52.6335 42.5528 53.7568 42.5528C54.8799 42.5528 55.6105 42.1565 55.9981 41.3897C56.2115 40.964 56.3247 40.3407 56.3247 39.5064V35.7971ZM30.0154 35.5114L31.8883 41.0081L33.748 35.5114H35.3147V42.6564H34.1431V38.4652C34.1431 38.3236 34.1463 38.0905 34.1525 37.7667C34.1535 37.7172 34.1542 37.6672 34.155 37.6167L32.4458 42.6564H31.3181L29.5955 37.6134C29.596 37.6431 29.5965 37.6736 29.5971 37.7048L29.6033 37.9451C29.6085 38.1687 29.6112 38.3422 29.6112 38.4652V42.6564H28.435V35.5114H30.0154ZM49.638 38.9788C49.638 38.0597 49.4118 37.3191 48.9703 36.7457C48.4795 36.1156 47.79 35.7971 46.8827 35.7971H44.2398V42.3707H46.8733C47.4419 42.3707 47.9173 42.2456 48.3062 42.0026C48.6949 41.7597 49.0069 41.393 49.2392 40.8938C49.504 40.3266 49.638 39.689 49.638 38.9788ZM58.9714 35.5114V41.5535H62.4552V42.6564H57.753V35.5114H58.9714ZM66.1135 42.3707H68.2655V41.8392H66.1135V42.3707ZM63.4667 42.3707H65.827V41.8392H64.0886V39.2282H65.827V38.7201H64.0886V36.3518H65.827V35.7971H63.4667V42.3707ZM58.0395 42.3707H62.1687V41.8392H58.6848V35.7971H58.0395V42.3707ZM41.8507 38.9788C41.8507 38.1982 41.6457 37.5849 41.2486 37.1248L41.2482 37.1245C40.8577 36.6688 40.3224 36.4367 39.6246 36.4367C38.9498 36.4367 38.4086 36.6666 37.9882 37.1236L37.9879 37.1239C37.5716 37.5736 37.3516 38.2505 37.3516 39.1796C37.3516 39.9138 37.5366 40.5239 37.8993 41.0182L37.916 41.0402C38.269 41.4982 38.8394 41.7403 39.662 41.7403C40.4444 41.7403 40.986 41.4647 41.3198 40.9298C41.6726 40.3664 41.8507 39.7175 41.8507 38.9788ZM48.6874 39.1376C48.6874 38.3044 48.5202 37.6781 48.2041 37.2414L48.2037 37.2409C47.9012 36.8192 47.4073 36.5955 46.686 36.5955H45.1763V41.5769H46.6954C47.0022 41.5769 47.245 41.5449 47.4286 41.4857C47.7571 41.3752 48.0283 41.1634 48.243 40.8423C48.4137 40.5855 48.5409 40.25 48.6196 39.8304C48.6651 39.5792 48.6874 39.3484 48.6874 39.1376ZM64.3751 41.5535H65.827V39.5139H64.3751V41.5535ZM66.1135 39.2282H67.8862V38.7201H66.1135V39.2282ZM64.3751 38.4344H65.827V36.6375H64.3751V38.4344ZM66.1135 36.3518H68.1952V35.7971H66.1135V36.3518ZM36.2363 25.4796C36.2363 25.132 36.3751 24.8281 36.6408 24.5734C36.9206 24.3053 37.361 24.1881 37.9248 24.1881C38.6162 24.1881 39.1449 24.3672 39.4688 24.7604L39.4841 24.7792L39.4845 24.7797L39.4848 24.7802C39.6399 24.9791 39.7404 25.2459 39.795 25.5702H40.4005C40.3708 24.918 40.134 24.46 39.7075 24.1686L39.7071 24.1683L39.7067 24.168C39.2321 23.8389 38.6501 23.6706 37.9529 23.6706C37.1928 23.6706 36.6266 23.8621 36.2334 24.2256C35.8369 24.5921 35.6378 25.0591 35.6378 25.6384C35.6378 26.1652 35.8362 26.5458 36.2287 26.803C36.4445 26.9438 36.8177 27.0814 37.3627 27.2103L37.474 27.236L38.4059 27.4462L38.4062 27.4462C38.9172 27.5626 39.3086 27.7026 39.5675 27.8724L39.5684 27.873L39.5693 27.8736C39.8549 28.0672 39.9832 28.3863 39.9832 28.7902C39.9832 29.0674 39.9052 29.311 39.7434 29.5123C39.583 29.7118 39.3488 29.8592 39.0536 29.9617C38.7492 30.0673 38.4145 30.1191 38.0512 30.1191C37.2447 30.1191 36.6442 29.8832 36.2984 29.3747L36.2981 29.3742L36.2978 29.3737C36.1376 29.1342 36.0434 28.8372 36.0082 28.4894H35.4098C35.4302 29.1063 35.6395 29.5931 36.0311 29.9626L36.0724 30.0006L36.0728 30.0009C36.523 30.4064 37.1544 30.6178 37.9857 30.6178C38.6973 30.6178 39.3144 30.4595 39.8418 30.1475L39.8421 30.1474C40.3455 29.8513 40.6052 29.3606 40.6052 28.6408C40.6052 28.0697 40.4034 27.6501 40.0085 27.3601L39.9865 27.3444C39.7561 27.1835 39.4249 27.05 38.9839 26.9496L38.0193 26.7302L38.019 26.7301C37.3738 26.5816 36.937 26.4535 36.7326 26.3429L36.732 26.3426L36.7314 26.3422C36.5711 26.2534 36.4453 26.1355 36.3604 25.9869C36.2757 25.8387 36.2363 25.6678 36.2363 25.4796ZM42.6233 25.4796C42.6233 25.132 42.7622 24.8281 43.0279 24.5734C43.3078 24.3053 43.7481 24.1881 44.3119 24.1881C45.0033 24.1881 45.532 24.3672 45.8559 24.7604L45.8712 24.7792L45.8715 24.7797L45.8719 24.7802C46.0271 24.9791 46.1275 25.2459 46.182 25.5702H46.7877C46.7579 24.918 46.5211 24.46 46.0946 24.1686L46.0942 24.1683L46.0938 24.168C45.6192 23.8389 45.0372 23.6706 44.34 23.6706C43.5799 23.6706 43.0137 23.8621 42.6205 24.2256C42.224 24.5921 42.0248 25.0591 42.0248 25.6384C42.0248 26.1652 42.2233 26.5458 42.6158 26.803C42.8316 26.9438 43.2048 27.0814 43.7498 27.2103L43.8611 27.236L44.793 27.4462L44.7933 27.4462C45.3043 27.5626 45.6958 27.7026 45.9546 27.8724L45.9556 27.873L45.9565 27.8736C46.242 28.0672 46.3704 28.3863 46.3704 28.7902C46.3704 29.0674 46.2923 29.311 46.1305 29.5123C45.9701 29.7118 45.7359 29.8592 45.4407 29.9617C45.1363 30.0673 44.8016 30.1191 44.4383 30.1191C43.6318 30.1191 43.0313 29.8832 42.6855 29.3747L42.6852 29.3742L42.6849 29.3737C42.5247 29.1342 42.4305 28.8372 42.3954 28.4894H41.7969C41.8173 29.1063 42.0266 29.5931 42.4182 29.9626L42.4595 30.0006L42.4599 30.0009C42.9101 30.4064 43.5416 30.6178 44.3728 30.6178C45.0844 30.6178 45.7015 30.4595 46.2289 30.1475L46.2292 30.1474C46.7326 29.8513 46.9922 29.3606 46.9922 28.6408C46.9922 28.0694 46.7903 27.6497 46.395 27.3597C46.1639 27.192 45.8259 27.0531 45.3711 26.9496L44.4065 26.7302L44.4061 26.7301C43.761 26.5816 43.3242 26.4535 43.1198 26.3429L43.1191 26.3426L43.1185 26.3422C42.9582 26.2534 42.8324 26.1355 42.7475 25.9869C42.6628 25.8387 42.6233 25.6678 42.6233 25.4796ZM28.1493 27.0579C28.1493 26.02 28.4253 25.1561 28.9876 24.478C29.5988 23.7376 30.4424 23.3709 31.5002 23.3709C32.3962 23.3709 33.1118 23.6068 33.6267 24.0968C34.1289 24.5749 34.4145 25.1257 34.4712 25.7468L34.4854 25.9026H33.3063L33.2805 25.7921C33.1836 25.3762 32.9921 25.0546 32.7099 24.8186L32.7094 24.8181C32.4378 24.5888 32.0443 24.4645 31.5096 24.4645C30.8703 24.4645 30.3629 24.6871 29.9738 25.1301C29.5912 25.566 29.3864 26.2522 29.3864 27.2166C29.3864 27.9974 29.5682 28.6167 29.9193 29.0869C30.2646 29.5422 30.7799 29.7773 31.4908 29.7773C32.1344 29.7773 32.6111 29.5343 32.9411 29.0507L32.9414 29.0503C33.1178 28.7935 33.2542 28.4488 33.3453 28.0095L33.369 27.8956H34.5543L34.5364 28.0543C34.4521 28.8041 34.1722 29.439 33.6936 29.9521C33.1159 30.5741 32.3387 30.8802 31.3784 30.8802C30.5479 30.8802 29.8417 30.6284 29.2696 30.1203L29.2693 30.12C28.5136 29.4454 28.1493 28.4143 28.1493 27.0579ZM56.6113 39.5064C56.6113 40.3593 56.4967 41.0342 56.2544 41.5175L56.2541 41.5178C55.805 42.4069 54.9561 42.8385 53.7568 42.8385C52.5575 42.8385 51.7099 42.4069 51.2639 41.5175C51.0216 41.0342 50.907 40.3593 50.907 39.5064V35.5114H52.1393V39.894C52.1393 40.3599 52.2243 40.7385 52.3858 41.037L52.4017 41.0657L52.402 41.0662L52.4022 41.0666C52.6505 41.5116 53.0656 41.7403 53.6818 41.7403C54.4368 41.7403 54.9141 41.4862 55.1659 41.0089C55.3041 40.7443 55.3788 40.3762 55.3788 39.894V35.5114H56.6113V39.5064ZM48.9739 39.1376C48.9739 39.3685 48.9495 39.6168 48.9014 39.882L48.9013 39.8825L48.9012 39.8829C48.8176 40.3286 48.6794 40.7029 48.4818 41.0002L48.4816 41.0005C48.2347 41.3699 47.9133 41.6247 47.5183 41.7571L47.5175 41.7573L47.5167 41.7576C47.2945 41.8292 47.0192 41.8626 46.6954 41.8626H44.8897V36.3098H46.686C47.4693 36.3098 48.0649 36.5562 48.4368 37.0746C48.8009 37.5779 48.9739 38.2714 48.9739 39.1376ZM42.1373 38.9788C42.1373 39.7655 41.9469 40.4677 41.5629 41.081C41.1663 41.7164 40.5216 42.026 39.662 42.026C38.7683 42.026 38.0918 41.756 37.6693 41.1885L37.6687 41.1878C37.2638 40.6363 37.065 39.9641 37.065 39.1796C37.065 38.21 37.2944 37.452 37.777 36.9304C38.2558 36.41 38.8758 36.151 39.6246 36.151C40.3938 36.151 41.0134 36.4108 41.4657 36.9385L41.5074 36.988C41.9312 37.505 42.1373 38.1729 42.1373 38.9788ZM49.9245 38.9788C49.9245 39.7254 49.7836 40.4047 49.4991 41.014C49.2475 41.5546 48.9016 41.9677 48.4584 42.2447C48.0154 42.5215 47.4847 42.6564 46.8733 42.6564H43.9532V35.5114H46.8827C47.8517 35.5114 48.6205 35.8512 49.1706 36.5375L49.1966 36.5705L49.1971 36.5711C49.6857 37.2054 49.9245 38.0118 49.9245 38.9788ZM43.0925 38.9648C43.0925 39.9976 42.8333 40.87 42.3063 41.5725L42.281 41.6058C41.6383 42.4428 40.721 42.8572 39.5496 42.8572C38.4565 42.8572 37.5824 42.4952 36.9455 41.7619L36.9437 41.7598L36.942 41.7577C36.3778 41.0553 36.1005 40.1721 36.1005 39.1189C36.1005 38.1666 36.338 37.3432 36.8193 36.6557L36.8488 36.6143C37.4718 35.752 38.3857 35.3245 39.5684 35.3245C40.8155 35.3245 41.7628 35.7261 42.3802 36.5491C42.8588 37.1864 43.0925 37.9954 43.0925 38.9648ZM34.4296 42.3707H35.0281V35.7971H33.9537L31.8894 41.8991L29.8101 35.7971H28.7215V42.3707H29.3247V38.4652C29.3247 38.3053 29.32 38.0548 29.3107 37.7126L29.3106 37.7119V37.7113C29.3044 37.3656 29.3012 37.1077 29.3012 36.9383V36.7281L29.5801 36.6821L31.5231 42.3707H32.2403L34.1694 36.6824L34.4484 36.7281C34.4484 37.0994 34.4452 37.4474 34.439 37.7722C34.4327 38.0959 34.4296 38.3266 34.4296 38.4652V42.3707ZM70.6311 37.4333C70.6311 37.5812 70.6619 37.7014 70.7177 37.7991C70.7731 37.8961 70.8576 37.9787 70.9775 38.0454C71.1415 38.1341 71.5383 38.255 72.1918 38.4053L73.156 38.6248C73.6163 38.7295 73.9871 38.874 74.2595 39.0643L74.2855 39.0828L74.2861 39.0832C74.7649 39.4344 75 39.9455 75 40.5944C75 41.3936 74.704 41.9892 74.0963 42.3468C73.5186 42.6885 72.8496 42.8572 72.094 42.8572C71.2145 42.8572 70.5067 42.6328 69.9891 42.1666C69.4702 41.7024 69.2203 41.0738 69.2301 40.2984L69.2319 40.1574H70.3845L70.3921 40.2922C70.413 40.6642 70.5004 40.9533 70.6445 41.1689C70.9169 41.5687 71.4058 41.787 72.1595 41.787C72.4955 41.787 72.7977 41.7391 73.0677 41.6455C73.3282 41.555 73.5107 41.4332 73.6282 41.2872C73.7442 41.1429 73.8051 40.9647 73.8051 40.7438C73.8051 40.4011 73.6995 40.1879 73.5172 40.0639C73.3015 39.9228 72.9503 39.7922 72.4508 39.6784L71.5192 39.4684C70.9077 39.3308 70.4555 39.1754 70.1799 38.9956L70.1797 38.9954C69.6982 38.6799 69.4596 38.2045 69.4596 37.592C69.4596 36.9386 69.6881 36.3938 70.147 35.9697C70.6092 35.5425 71.2542 35.3386 72.0612 35.3386C72.8058 35.3386 73.4472 35.5188 73.9777 35.8865C74.5322 36.2654 74.7986 36.8701 74.7987 37.6667V37.8095H73.6535L73.6376 37.6847C73.5926 37.3312 73.4982 37.0776 73.367 36.9093C73.1211 36.6002 72.6912 36.4274 72.0331 36.4274C71.4981 36.4274 71.1486 36.5406 70.9477 36.7331C70.7326 36.9392 70.6311 37.1708 70.6311 37.4333ZM28.4359 27.0579C28.4359 28.3659 28.7863 29.3052 29.4602 29.9069L29.5088 29.9491C30.0144 30.3779 30.6347 30.5945 31.3784 30.5945C32.2724 30.5945 32.9686 30.3123 33.4835 29.7578L33.4837 29.7575C33.8833 29.3291 34.1327 28.8054 34.2302 28.1813H33.6007C33.5046 28.594 33.3651 28.9392 33.1777 29.2118C32.7897 29.7802 32.2206 30.0631 31.4908 30.0631C30.7095 30.0631 30.101 29.8001 29.6908 29.2593L29.6905 29.2588L29.6902 29.2584C29.2925 28.7264 29.0999 28.0417 29.0999 27.2166C29.0999 26.2199 29.3103 25.4523 29.7582 24.942C30.2057 24.4324 30.794 24.1788 31.5096 24.1788C32.0861 24.1788 32.5543 24.3128 32.8946 24.6001C33.2033 24.8584 33.4144 25.1996 33.5312 25.6169H34.1659C34.0864 25.1357 33.8437 24.6985 33.4288 24.3035C32.9822 23.8784 32.3461 23.6566 31.5002 23.6566C30.5165 23.6566 29.7586 23.9934 29.2086 24.6598L29.2084 24.6601C28.6968 25.277 28.4359 26.0724 28.4359 27.0579ZM36.5228 25.4796C36.5228 25.6276 36.5536 25.7478 36.6094 25.8455C36.6648 25.9425 36.7493 26.0251 36.8692 26.0918C37.0332 26.1805 37.4299 26.3013 38.0834 26.4517L39.0477 26.6711C39.5079 26.7758 39.8787 26.9204 40.1511 27.1106L40.1772 27.1291L40.1777 27.1296C40.6565 27.4809 40.8917 27.9919 40.8917 28.6408C40.8917 29.4401 40.5956 30.0358 39.9877 30.3934C39.4101 30.735 38.7412 30.9036 37.9857 30.9036C37.1061 30.9036 36.3983 30.6791 35.8808 30.213C35.3618 29.7487 35.112 29.1201 35.1218 28.3448L35.1235 28.2037H36.2762L36.2837 28.3386C36.3046 28.71 36.3918 28.9988 36.5355 29.2143L36.5617 29.2513C36.8386 29.6282 37.3204 29.8334 38.0512 29.8334C38.3662 29.8334 38.6515 29.7913 38.9084 29.7089L38.9594 29.6919C39.2199 29.6014 39.4024 29.4796 39.5198 29.3336C39.6358 29.1893 39.6967 29.011 39.6967 28.7902C39.6967 28.4478 39.5914 28.2348 39.4095 28.1108C39.1938 27.9694 38.8425 27.8387 38.3424 27.7248L37.4109 27.5147C36.7994 27.3771 36.3472 27.2218 36.0716 27.042L36.0714 27.0418C35.5898 26.7262 35.3513 26.2509 35.3513 25.6384C35.3513 24.9849 35.5798 24.4402 36.0386 24.016C36.5008 23.5888 37.1458 23.3849 37.9529 23.3849C38.6979 23.3849 39.3397 23.5654 39.8703 23.9335C40.4242 24.3124 40.6903 24.9168 40.6903 25.713V25.8559H39.5452L39.5293 25.7311C39.4842 25.3776 39.3899 25.124 39.2586 24.9556C39.0128 24.6466 38.5828 24.4738 37.9248 24.4738C37.3897 24.4738 37.0403 24.5869 36.8394 24.7795C36.6243 24.9856 36.5228 25.2171 36.5228 25.4796ZM42.9099 25.4796C42.9099 25.6276 42.9407 25.7478 42.9965 25.8455C43.0519 25.9425 43.1364 26.0251 43.2564 26.0918L43.2724 26.1002C43.4454 26.1881 43.8375 26.306 44.4705 26.4517L45.4348 26.6711C45.8951 26.7758 46.2659 26.9204 46.5382 27.1106L46.5643 27.1291L46.5649 27.1296C47.0437 27.4809 47.2788 27.9919 47.2788 28.6408C47.2788 29.4401 46.9827 30.0358 46.3748 30.3934C45.7972 30.735 45.1283 30.9035 44.3728 30.9036C43.4933 30.9036 42.7854 30.6791 42.2679 30.213C41.7489 29.7487 41.4991 29.1201 41.5089 28.3448L41.5107 28.2037H42.6633L42.6709 28.3386C42.6917 28.71 42.7789 28.9988 42.9227 29.2143L42.9488 29.2513C43.2258 29.6282 43.7075 29.8334 44.4383 29.8334C44.7743 29.8334 45.0765 29.7855 45.3465 29.6919C45.607 29.6014 45.7895 29.4796 45.9069 29.3336C46.0229 29.1893 46.0838 29.011 46.0838 28.7902C46.0838 28.4478 45.9785 28.2348 45.7966 28.1108C45.5809 27.9694 45.2296 27.8387 44.7295 27.7248L43.798 27.5147C43.1865 27.3771 42.7344 27.2218 42.4588 27.042L42.4585 27.0418C41.9769 26.7262 41.7383 26.2509 41.7383 25.6384C41.7383 24.9849 41.9669 24.4402 42.4257 24.016C42.8879 23.5888 43.533 23.3849 44.34 23.3849C45.0846 23.3849 45.726 23.5652 46.2565 23.9329C46.811 24.3118 47.0774 24.9164 47.0774 25.713V25.8559H45.9323L45.9164 25.7311C45.8713 25.3776 45.7771 25.124 45.6458 24.9556C45.3999 24.6466 44.9699 24.4738 44.3119 24.4738C43.7768 24.4738 43.4273 24.5869 43.2264 24.7795C43.0114 24.9856 42.9099 25.2171 42.9099 25.4796Z" fill="white"/>
</svg>
