<svg width="100" height="50" viewBox="0 0 100 50" fill="none" xmlns="http://www.w3.org/2000/svg">
<path d="M11.3733 19C8.6911 19 7.01444 20.3333 6.34332 23C7.34999 21.6667 8.52444 21.1667 9.86666 21.5C10.6333 21.69 11.1767 22.2433 11.7833 22.8533C12.7667 23.85 13.91 25 16.4 25C19.0822 25 20.76 23.6667 21.4333 21C20.4267 22.3333 19.2522 22.8333 17.91 22.5C17.1433 22.31 16.5967 21.7567 15.99 21.1467C15.01 20.15 13.8667 19 11.3733 19ZM44.7967 19.3533V29.6333H46.3267V19.3533H44.7967ZM42.2633 19.5933C42.0049 19.5933 41.757 19.6958 41.5739 19.8782C41.3908 20.0607 41.2875 20.3082 41.2867 20.5667C41.291 20.8237 41.3955 21.0689 41.5779 21.2501C41.7603 21.4313 42.0062 21.5341 42.2633 21.5367C42.5207 21.5349 42.7671 21.4324 42.9497 21.2511C43.1323 21.0697 43.2365 20.824 43.24 20.5667C43.2391 20.3082 43.1358 20.0607 42.9528 19.8782C42.7697 19.6958 42.5218 19.5933 42.2633 19.5933ZM59.7633 19.5933C59.5049 19.5933 59.257 19.6958 59.0739 19.8782C58.8908 20.0607 58.7875 20.3082 58.7867 20.5667C58.7867 21.0867 59.2267 21.5367 59.7633 21.5367C60.3 21.5367 60.74 21.0867 60.74 20.5667C60.7391 20.3082 60.6358 20.0607 60.4528 19.8782C60.2697 19.6958 60.0218 19.5933 59.7633 19.5933ZM75.99 19.7767V23.59C75.45 22.8567 74.6167 22.41 73.5133 22.41C71.5867 22.41 69.9867 24.0133 69.9867 26.11C69.9867 28.1933 71.5867 29.81 73.5133 29.81C74.6167 29.81 75.4533 29.3633 75.99 28.6167V29.63H77.52V19.7767H75.99ZM29.7333 20.2533L28.2033 20.7033V22.5933H26.9033V24.0567H28.2033V27.4333C28.2033 29.2667 29.1367 29.9133 31.49 29.6333V28.2667C30.3267 28.32 29.7333 28.3333 29.7333 27.4333V24.0567H31.49V22.59H29.7333V20.2533ZM35.7033 22.41C33.7767 22.41 32.1767 24.0133 32.1767 26.11C32.1767 28.1933 33.7767 29.81 35.7033 29.81C36.8067 29.81 37.6433 29.3633 38.1833 28.6167V29.63H39.71V22.5933H38.1833V23.5933C37.6433 22.86 36.8067 22.41 35.7033 22.41ZM66.0167 22.41C65.0567 22.41 64.29 22.76 63.8233 23.4933V22.5933H62.2933V29.63H63.8267V25.8567C63.8267 24.4233 64.6167 23.83 65.6233 23.83C66.5833 23.83 67.2067 24.3967 67.2067 25.4633V29.63H68.7367V25.31C68.7367 23.4767 67.6033 22.41 66.02 22.41M82.64 22.41C80.5033 22.41 78.9033 24.0133 78.9033 26.11C78.9033 28.1933 80.5033 29.81 82.64 29.81C83.2869 29.8232 83.9252 29.6602 84.4865 29.3384C85.0479 29.0166 85.5111 28.5482 85.8267 27.9833L84.51 27.2367C84.3276 27.5743 84.0548 27.8545 83.7222 28.0458C83.3895 28.2371 83.0102 28.3321 82.6267 28.32C82.3357 28.3255 82.0466 28.272 81.7769 28.1627C81.5072 28.0533 81.2625 27.8905 81.0575 27.6839C80.8525 27.4774 80.6915 27.2314 80.5842 26.9609C80.477 26.6904 80.4256 26.4009 80.4333 26.11C80.4333 24.8433 81.38 23.9 82.6267 23.9C83.4767 23.9 84.17 24.3233 84.48 24.9867L85.8 24.2233C85.2333 23.1267 84.03 22.41 82.64 22.41ZM89.38 22.41C87.9367 22.41 86.79 23.24 86.79 24.5633C86.79 27.0833 90.6 26.3767 90.6 27.63C90.6 28.1967 90.0733 28.42 89.3933 28.42C88.6167 28.42 88.05 28.04 87.8233 27.4067L86.5067 28.1667C86.96 29.18 87.98 29.8133 89.3933 29.8133C90.9267 29.8133 92.1567 29.0533 92.1567 27.6467C92.1567 25.04 88.3467 25.8133 88.3467 24.5333C88.3467 24.0267 88.8267 23.79 89.38 23.79C89.96 23.79 90.4567 24.0433 90.7133 24.59L92 23.8733C91.5033 22.9433 90.54 22.4067 89.38 22.4067M95.9067 22.4067C94.4633 22.4067 93.3167 23.24 93.3167 24.5633C93.3167 27.0833 97.1267 26.3767 97.1267 27.63C97.1267 28.1967 96.6033 28.42 95.9233 28.42C95.1433 28.42 94.5767 28.04 94.35 27.4067L93.0333 28.1667C93.4867 29.18 94.5067 29.8133 95.9233 29.8133C97.45 29.8133 98.6833 29.0533 98.6833 27.6467C98.6833 25.04 94.8733 25.8133 94.8733 24.5333C94.8733 24.0267 95.3567 23.79 95.9067 23.79C96.49 23.79 96.9833 24.0433 97.24 24.59L98.5267 23.8733C98.0333 22.9433 97.07 22.4067 95.9067 22.4067ZM41.4933 22.5933V29.63H43.0267V22.5933H41.4933ZM47.4567 22.5933L49.68 29.63H51.18L52.6667 24.8867L54.14 29.63H55.64L57.8633 22.5933H56.25L54.86 27.4467L53.39 22.5933H51.93L50.4433 27.4467L49.07 22.5933H47.4567ZM58.9967 22.5933V29.63H60.5233V22.5933H58.9967ZM35.9433 23.86C37.22 23.86 38.1833 24.8033 38.1833 26.11C38.1833 27.4167 37.2167 28.3633 35.9433 28.3633C34.67 28.3633 33.71 27.42 33.71 26.11C33.71 24.8 34.67 23.86 35.9433 23.86ZM73.75 23.86C75.0233 23.86 75.9833 24.8033 75.9833 26.11C75.9833 27.4167 75.0233 28.3633 73.75 28.3633C72.4767 28.3633 71.51 27.42 71.51 26.11C71.51 24.8 72.4767 23.86 73.7467 23.86M6.34332 25C3.6611 25 1.98444 26.3333 1.31332 29C2.31999 27.6667 3.49332 27.1667 4.83332 27.5C5.59999 27.69 6.14666 28.2433 6.75332 28.8533C7.73999 29.85 8.87999 31 11.3733 31C14.0555 31 15.7322 29.6667 16.4033 27C15.3967 28.3333 14.2233 28.8333 12.8833 28.5C12.1167 28.31 11.57 27.7567 10.9633 27.1467C9.97666 26.1533 8.83666 25 6.34332 25Z" fill="white"/>
</svg>
