<svg width="100" height="50" viewBox="0 0 100 50" fill="none" xmlns="http://www.w3.org/2000/svg">
<g clip-path="url(#clip0_225_172)">
<path d="M39.8682 16.7444C39.8191 15.3166 40.9167 14 42.4002 14H57.6017C59.0852 14 60.1828 15.3166 60.1337 16.7444C60.0866 18.1159 60.1478 19.8926 60.5889 21.3413C61.0315 22.7944 61.7777 23.7129 63 23.8309V25.1691C61.7777 25.2871 61.0315 26.2056 60.5889 27.6587C60.1478 29.1074 60.0866 30.8841 60.1337 32.2556C60.1828 33.6834 59.0852 35 57.6017 35H42.4002C40.9167 35 39.8191 33.6834 39.8682 32.2556C39.9153 30.8841 39.8541 29.1074 39.4129 27.6587C38.9704 26.2056 38.2223 25.2871 37 25.1691V23.8309C38.2223 23.7129 38.9704 22.7944 39.4129 21.3413C39.8541 19.8926 39.9153 18.1159 39.8682 16.7444Z" fill="white"/>
<path d="M50.5638 30.0823C52.9656 30.0823 54.413 28.8904 54.413 26.9243C54.413 25.4382 53.3803 24.3623 51.8469 24.192V24.1301C52.9735 23.9444 53.8575 22.884 53.8575 21.6997C53.8575 20.0124 52.5432 18.9132 50.5404 18.9132H46.0341V30.0823H50.5638ZM47.7865 20.3297H50.1179C51.3853 20.3297 52.1051 20.9024 52.1051 21.9396C52.1051 23.0465 51.268 23.6657 49.7502 23.6657H47.7865V20.3297ZM47.7865 28.6659V24.9893H50.1022C51.7608 24.9893 52.6214 25.6085 52.6214 26.816C52.6214 28.0234 51.7843 28.6659 50.204 28.6659H47.7865Z" fill="black"/>
</g>
<defs>
<clipPath id="clip0_225_172">
<rect width="26" height="21" fill="white" transform="translate(37 14)"/>
</clipPath>
</defs>
</svg>
