<svg width="100" height="50" viewBox="0 0 100 50" fill="none" xmlns="http://www.w3.org/2000/svg">
<path d="M16.8 12.5L18.8 35L27.8 37.5L36.8333 34.9967L38.84 12.5H16.8ZM20.8967 17.1H34.7233L34.2267 22.6833L34.16 23.4267L33.51 30.6933L33.47 31.16L27.82 32.7233H27.81L22.1567 31.1567L21.77 26.8233H24.5367L24.7367 29.0233L27.81 29.8567L27.82 29.8533L30.8867 29.02L31.2067 25.4433H21.6467L21.3967 22.6833H31.4467L31.7 19.8567H21.15L20.8967 17.1ZM47.5833 18.3333V31.4767H58.0567V27.0933H51.96V22.7133H58.0567V18.3333H47.5833ZM60.1533 18.3333V26.9H66.25V27.6667H60.1567V31.6667H70.6333V22.9H64.5333V22.14H70.63V18.33L60.1533 18.3333ZM72.7267 18.3333V26.9H78.8233V27.6667H72.7233V31.6667H83.2033V22.9H77.1067V22.14H83.2033V18.33L72.7267 18.3333Z" fill="white"/>
</svg>
