<svg width="100" height="50" viewBox="0 0 100 50" fill="none" xmlns="http://www.w3.org/2000/svg">
<path d="M19 19.5103H22.3389V22.8052H25.3891V19.5103H28.728V29.4893H25.3891V26.1504H22.3389V29.4893H19V19.5103ZM33.1088 22.8178H30.1653V19.5103H39.3724V22.8178H36.4351V29.4893H33.0962V22.8178H33.1088ZM40.841 19.5103H44.318L46.4582 23.0186L48.5983 19.5103H52.069V29.4893H48.749V24.5437L46.4519 28.0898H46.3954L44.1109 24.5437V29.4893H40.8473L40.841 19.5103ZM53.7322 19.5103H57.0711V26.1944H61.7594V29.4956H53.7322V19.5103Z" fill="white"/>
<path d="M63.3473 14H81.8619L80.1736 32.8975L72.592 35L65.0293 32.9038L63.3473 14Z" fill="white"/>
<path d="M78.7301 31.6926L80.1736 15.5441H72.6109V33.3934L78.7301 31.6926Z" fill="white"/>
<path d="M69.5356 22.5546L69.3222 20.1822H72.6046V17.8663H66.7929L67.4205 24.8768H72.6046V22.5546H69.5356ZM67.5209 26.0316L67.8473 29.6718L72.5983 30.9898H72.6109V28.5797H72.5983L70.0251 27.8768L69.8619 26.0253H68.6067L67.5209 26.0316Z" fill="black"/>
<path d="M77.9268 23.1755L77.9833 22.5542H72.5983V24.8701H75.454L75.1841 27.8764L72.5983 28.573V30.983L77.3494 29.6651L77.387 29.2759L77.9268 23.1755ZM72.5983 20.1818H78.1967L78.4038 17.8596H72.5983V20.1692V20.1818Z" fill="black"/>
</svg>
