<svg width="100" height="50" viewBox="0 0 100 50" fill="none" xmlns="http://www.w3.org/2000/svg">
<path fill-rule="evenodd" clip-rule="evenodd" d="M71.3218 22.6037C71.1075 22.1445 71.0039 21.6012 70.9818 21.0897C70.9268 19.8309 70.9736 18.5676 70.9161 17.3088C70.8646 16.1816 70.4582 15.1656 69.3646 14.5845C68.4018 14.073 67.2857 14.0221 66.2143 14.0101V16.0218C66.5714 16.0338 66.4836 16.0448 66.5707 16.0493C68.0096 16.1193 68.4918 16.5711 68.51 17.984C68.5236 19.0345 68.5143 20.0858 68.5314 21.136C68.5525 22.4103 68.7446 23.6266 69.9221 24.4312C69.9421 24.445 69.9404 24.4955 69.9518 24.5542C69.3525 24.9755 68.8782 25.5181 68.7404 26.2587C68.6301 26.8602 68.5656 27.4691 68.5475 28.0802C68.5132 29.1824 68.5486 30.287 68.5168 31.3892C68.4918 32.2524 68.0786 32.6575 67.2296 32.8498C66.91 32.9226 66.5714 32.9484 66.2143 32.9933V35C66.9286 34.9576 67.2918 34.9297 67.7811 34.8773C69.6225 34.6801 70.6593 33.7317 70.8718 31.9636C70.9382 31.4093 70.9307 30.8444 70.9432 30.2845C70.9668 29.235 70.9546 28.1806 71.0496 27.1374C71.1464 26.0731 71.9286 25.4849 73 25.5436V23.44C72.2857 23.5665 71.6275 23.2608 71.3218 22.6037ZM37.755 26.8925C37.7546 22.8101 37.6429 18.7277 37.6429 14.6457V14.0034C36.5714 14.0034 35.4193 13.9931 34.2889 14.0083C33.83 14.0143 33.4254 14.0532 32.9704 14.1147C31.2286 14.3494 30.3889 15.1586 30.0804 16.8761C29.9911 17.3717 30.0089 17.8868 30.0014 18.3937C29.9875 19.3573 30.0154 20.3212 29.9996 21.2845C29.98 22.4976 29.4025 23.4379 28.1525 23.5093C28.1082 23.5118 28.3571 23.5623 28 23.5927V25.4679C29.4286 25.6899 29.8832 26.2608 29.9782 27.5744C29.9932 27.7836 29.9971 27.9946 29.9993 28.205C30.0114 29.3785 29.9979 30.5539 30.0514 31.7253C30.1018 32.8186 30.3471 33.7957 31.3911 34.3694C32.3661 34.9053 33.7143 34.9487 34.4286 34.9767V32.9745C34.4286 32.9576 34.3536 32.942 34.2839 32.9378C32.7343 32.8441 32.385 32.4277 32.3757 30.8929C32.3696 29.8766 32.4136 28.8603 32.3971 27.8441C32.3764 26.5673 32.1879 25.3562 31.02 24.5482C31.0021 24.5358 31.0196 24.4835 31.0139 24.4128C31.7993 23.9214 32.2168 23.1699 32.3304 22.2587C32.3932 21.756 32.4143 21.2463 32.4232 20.739C32.4411 19.6881 32.4221 18.6361 32.4511 17.5859C32.4714 16.8479 32.9475 16.3099 33.555 16.189C34.1307 16.0741 34.4286 16.0776 35.5 16.0243V16.751C35.5 20.3954 35.3689 24.0395 35.3882 27.6839C35.395 28.9321 35.5346 30.1626 36.8864 30.7016C37.6214 30.9947 38.4089 31.0848 39.2532 31.282C39.3943 30.4648 39.4404 29.7868 39.5557 29.1159C37.9996 28.674 37.755 28.445 37.755 26.8925ZM47.2814 19.8606C44.66 18.6199 41.4786 19.7047 40.2579 22.3071C39.3386 24.2668 39.3714 26.2838 40.1807 28.2711C40.6196 29.3485 41.4129 30.1551 42.4925 30.6295C44.6011 31.556 46.735 31.3308 48.8611 30.6804C48.9757 30.6451 49.1221 30.4266 49.1082 30.3107C49.0357 29.7235 48.9154 29.1421 48.8079 28.5358C48.3018 28.662 47.8789 28.791 47.4468 28.8713C46.305 29.0837 45.1607 29.0834 44.0496 28.6461C42.9525 28.2149 42.2157 26.9741 42.3989 25.9137H49.8532C49.9443 24.8532 49.9082 23.3951 49.4521 22.1894C49.045 21.1116 48.3421 20.3629 47.2814 19.8606ZM47.2657 24.1466H42.3671C42.3696 22.7327 43.5329 21.4637 45.0589 21.4927C46.3993 21.5181 47.3264 22.7327 47.2657 24.1466ZM67.3043 28.487C67.48 26.7005 66.935 25.6952 65.3279 24.919C64.7579 24.6436 64.1529 24.4397 63.5721 24.1844C63.1375 23.9936 62.7 23.8002 62.2936 23.5584C61.8979 23.3233 61.7321 22.9331 61.7907 22.476C61.8482 22.0246 62.1414 21.727 62.565 21.6422C63.0782 21.539 63.6161 21.4506 64.1321 21.4923C64.8614 21.5513 65.5807 21.7362 66.3332 21.8723L66.8089 19.8157C65.7907 19.6623 64.8414 19.464 63.8821 19.3891C62.8154 19.306 61.7764 19.4813 60.8 19.9794C58.7368 21.0317 58.6989 24.2622 60.595 25.3227C61.1614 25.6394 61.7675 25.8868 62.3568 26.164C62.9771 26.4563 63.62 26.7104 64.2136 27.0491C64.6643 27.3061 64.8254 27.7546 64.7046 28.2774C64.5929 28.7635 64.2211 28.9802 63.7843 29.0215C63.12 29.0841 62.4386 29.1442 61.7811 29.0668C60.9893 28.9734 60.2143 28.7356 59.4032 28.5539L58.9896 30.6005C60.8943 31.3082 62.7789 31.4242 64.6818 31.0067C66.2743 30.6574 67.1814 29.7356 67.3043 28.487ZM57.1561 25.1459C56.4564 24.7786 55.7039 24.5107 54.9818 24.1834C54.5336 23.9801 54.0589 23.8037 53.6639 23.522C52.9043 22.9801 53.0457 21.9412 53.9304 21.6634C54.4379 21.5036 55.0118 21.4541 55.545 21.4937C56.2714 21.5478 56.9882 21.7337 57.7457 21.8695L58.195 19.909C57.8104 19.8055 57.4621 19.6927 57.1054 19.6185C55.6871 19.323 54.2614 19.2084 52.8646 19.6945C51.6646 20.1123 50.8321 20.8935 50.6675 22.2078C50.4832 23.6754 50.975 24.8341 52.3446 25.5312C52.8929 25.8105 53.4804 26.013 54.04 26.2718C54.5986 26.5298 55.1689 26.7762 55.6879 27.1C56.0846 27.3474 56.2411 27.7663 56.1293 28.2506C56.0182 28.7306 55.6646 28.9724 55.2246 29.0173C54.5604 29.0848 53.8786 29.1474 53.2207 29.0714C52.4257 28.9795 51.6482 28.7409 50.8229 28.557C50.7011 29.1272 50.5582 29.7016 50.4693 30.2838C50.45 30.4104 50.5925 30.6536 50.7125 30.6949C52.6354 31.3545 54.5925 31.4492 56.5482 30.8791C57.7161 30.539 58.5329 29.8006 58.6975 28.538C58.8843 27.1046 58.5389 25.8713 57.1561 25.1459Z" fill="white"/>
</svg>
