<svg width="100" height="50" viewBox="0 0 100 50" fill="none" xmlns="http://www.w3.org/2000/svg">
<path d="M64.4431 26.3715C63.0477 26.3776 61.8348 26.6577 60.8193 27.0718C60.4467 26.4568 60.074 25.9088 60.0083 25.5069C59.9352 25.038 59.8476 24.7519 59.9352 24.1917C60.0229 23.6315 60.4174 22.8338 60.4101 22.773C60.4028 22.7121 60.3225 22.4259 59.5188 22.4198C58.7151 22.4137 58.021 22.5477 57.9407 22.7242C57.8603 22.9008 57.7069 23.3027 57.6046 23.7167C57.4658 24.3256 55.9972 26.4994 55.157 27.638C54.8867 27.1935 54.6529 26.8038 54.6017 26.4933C54.5287 26.0245 54.441 25.7383 54.5287 25.1781C54.6164 24.6179 55.0109 23.8203 55.0036 23.7594C54.9963 23.6985 54.9159 23.4123 54.1122 23.4062C53.3085 23.4001 52.6145 23.5341 52.5341 23.7107C52.4537 23.8872 52.3661 24.3013 52.198 24.7032C52.03 25.105 50.0792 28.734 49.5678 29.6717C49.3048 30.1528 49.0783 30.5364 48.9175 30.7982C48.9175 30.7982 48.9102 30.8165 48.8883 30.8469C48.7495 31.0722 48.6691 31.194 48.6691 31.194C48.6691 31.194 48.6691 31.194 48.6691 31.2001C48.5595 31.3645 48.4427 31.5167 48.3842 31.5167C48.3404 31.5167 48.26 31.0783 48.3988 30.4816C48.6911 29.2212 49.3851 27.2605 49.3778 27.1935C49.3778 27.157 49.5093 26.816 48.9249 26.6394C48.355 26.4629 48.1504 26.7551 48.0993 26.7551C48.0481 26.7551 48.0116 26.8586 48.0116 26.8586C48.0116 26.8586 48.6472 24.6544 46.7988 24.6544C45.6444 24.6544 44.0517 25.7078 43.2626 26.6577C42.7658 26.883 41.7064 27.364 40.5739 27.8816C40.1429 28.0825 39.6972 28.2835 39.2807 28.4722C39.2515 28.4479 39.2223 28.4174 39.1931 28.3931C36.9574 26.402 32.8221 24.9954 32.9974 22.3224C33.0632 21.3481 33.465 18.7908 40.9392 15.6854C47.091 13.1585 51.9861 13.8587 52.8336 15.4114C54.0465 17.6278 50.2107 21.7439 43.8544 22.3406C41.4287 22.5659 40.1575 21.7865 39.836 21.4943C39.4999 21.1898 39.4488 21.1716 39.3246 21.2325C39.12 21.3238 39.2515 21.5978 39.3246 21.7561C39.5145 22.1701 40.2963 22.9008 41.6187 23.2601C42.7877 23.5767 45.6298 23.7533 49.071 22.6451C52.9213 21.4029 55.9315 17.9505 55.0474 15.0583C54.1634 12.1234 48.3184 11.1552 42.7877 12.7932C39.4999 13.7674 35.9345 15.3018 33.3701 17.299C30.3234 19.6737 29.8412 21.7378 30.0384 22.6025C30.7471 25.6713 35.8249 27.6685 37.856 29.1481C37.7537 29.1968 37.6588 29.2394 37.5784 29.276C36.5628 29.6961 32.6906 31.3827 31.7262 33.1668C30.6302 35.1883 31.9015 36.6375 32.7417 36.8323C35.35 37.4351 38.0314 36.3513 39.4707 34.5612C40.91 32.771 40.7347 30.445 40.0698 29.3795C40.0625 29.3673 40.0552 29.3551 40.0406 29.3429C40.3036 29.2151 40.5739 29.0811 40.8369 28.9532C41.3557 28.6975 41.8671 28.46 42.3055 28.2652C42.0571 28.8315 41.8744 29.5073 41.7867 30.4816C41.6772 31.6263 42.2397 33.112 42.9776 33.6965C43.3064 33.9523 43.6936 33.9584 43.9421 33.9584C44.8042 33.9584 45.1914 33.3616 45.6225 32.6553C46.1485 31.7907 46.6234 30.786 46.6234 30.786C46.6234 30.786 46.0316 33.5017 47.639 33.5017C48.2235 33.5017 48.8153 32.8684 49.0783 32.5457C49.0783 32.5518 49.0783 32.5518 49.0783 32.5518C49.0783 32.5518 49.0929 32.5335 49.1221 32.4909C49.1806 32.4118 49.2171 32.363 49.2171 32.363C49.2171 32.363 49.2171 32.357 49.2171 32.3509C49.4509 32.0099 49.9769 31.2366 50.7587 29.9518C51.767 28.2956 52.7387 26.2254 52.7387 26.2254C52.7387 26.2254 52.8263 26.7308 53.1259 27.571C53.3012 28.0643 53.6666 28.6062 53.9588 29.1298C53.725 29.4038 53.5789 29.556 53.5789 29.556C53.5789 29.556 53.5789 29.556 53.5862 29.5621C53.3962 29.7692 53.1916 29.9944 52.9652 30.2136C52.1688 31.0052 51.219 31.9125 51.0875 32.1743C50.934 32.4848 50.9706 32.7101 51.2628 32.8928C51.4747 33.0267 51.8546 33.045 52.2419 33.0267C52.9579 32.9841 53.462 32.838 53.7104 32.7467C54.0976 32.631 54.5506 32.4544 54.9744 32.1926C55.7561 31.7115 56.231 31.0235 56.1872 30.1162C56.1653 29.6169 55.968 29.1176 55.7269 28.6488C55.7999 28.5635 55.8657 28.4783 55.9388 28.3931C57.1735 26.8891 58.1306 25.239 58.1306 25.239C58.1306 25.239 58.2183 25.7444 58.5178 26.5846C58.664 27.0109 58.9635 27.4736 59.2265 27.9242C58.0649 28.7097 57.3489 29.623 57.0931 30.2197C56.6328 31.3279 56.9909 31.8272 57.6703 31.9429C57.9772 31.9977 58.4156 31.8759 58.737 31.7602C59.1462 31.6506 59.6284 31.4619 60.0887 31.1818C60.8704 30.7008 61.623 30.031 61.5791 29.1237C61.5572 28.7097 61.4257 28.3017 61.243 27.9059C62.2294 27.565 63.5006 27.3762 65.1226 27.5345C68.6003 27.8755 69.2871 29.6839 69.1556 30.445C69.0241 31.2061 68.2935 31.6202 68.0524 31.7481C67.8113 31.8759 67.7309 31.9186 67.7528 32.0099C67.782 32.1438 67.8989 32.1378 68.1035 32.1134C68.3885 32.0708 69.9301 31.4984 69.9958 30.098C70.1054 28.3078 68.0597 26.3533 64.4431 26.3715ZM37.6149 33.9096C36.4606 34.9569 34.8532 35.3527 34.1591 35.0178C33.4139 34.6586 33.7061 33.112 35.1235 32.0038C35.9857 31.3279 37.0962 30.7008 37.8341 30.3172C38.0022 30.2319 38.2506 30.1101 38.5501 29.9579C38.6013 29.9336 38.6305 29.9214 38.6305 29.9214C38.6889 29.8909 38.7474 29.8605 38.8058 29.83C39.3246 31.4132 38.8278 32.8075 37.6149 33.9096ZM46.017 29.1481C45.6152 29.964 44.775 32.0525 44.2635 31.9368C43.8252 31.8394 43.5548 30.2563 44.1759 28.6914C44.49 27.9059 45.1549 26.9682 45.5421 26.6029C46.1704 26.0184 46.8645 25.8235 47.0326 26.061C47.2444 26.3715 46.2654 28.6366 46.017 29.1481ZM52.9505 31.9125C52.7825 31.9855 52.6218 32.0342 52.5487 31.9977C52.4976 31.9734 52.6218 31.8759 52.6218 31.8759C52.6218 31.8759 53.4912 31.0965 53.8346 30.7434C54.0319 30.5364 54.2657 30.2928 54.5141 30.0188C54.5141 30.0432 54.5141 30.0736 54.5141 30.098C54.5141 31.0296 53.4328 31.6567 52.9505 31.9125ZM58.2987 30.8956C58.1744 30.8225 58.1964 30.579 58.6128 29.8179C58.7736 29.5195 59.1535 29.0202 59.8037 28.5392C59.8768 28.734 59.9279 28.9228 59.9206 29.0994C59.9133 30.2745 58.9051 30.7129 58.2987 30.8956Z" fill="white"/>
</svg>
